<?xml version="1.0" encoding="utf-8"?>
<!-- Generator: Adobe Illustrator 23.0.1, SVG Export Plug-In . SVG Version: 6.00 Build 0)  -->
<svg version="1.1" id="Layer_1" xmlns="http://www.w3.org/2000/svg" xmlns:xlink="http://www.w3.org/1999/xlink" x="0px" y="0px"
	 viewBox="0 0 36 36" style="enable-background:new 0 0 36 36;" xml:space="preserve">
<style type="text/css">
	.st0{fill:#5C5C5C;}
</style>
<path id="Path_11" class="st0" d="M36,12.1V9.4h-0.1V6.9h-0.1V6h-1v0.9c0,0-25.2,0.2-29.6,0c-0.7,0-4.5,0.4-0.7,6.3
	c1,1.8,0.8,4.1-0.6,5.6c-2.4,2.9-3.4,8.8-3.7,10.6H0v1.1h10.9v-2c-4.7,0.9,3.3-10.1,2.9-8.3c0.3,0.1,0.5,0.1,0.8,0.1h2.8
	c1.8,0,4.1-1.9,4.1-3.6c0-0.7-0.3-1.4-0.7-2h14.1l0.5-1.7h0.6L36,12.1l-0.2,0.1l0-0.1H36z M17.5,18.7h-2.8c-0.2,0-0.4,0-0.6-0.1
	c0.2-1,0.3-1.8,0.4-2.5c0.2,0.9,0.8,1.6,1.6,2c0.1,0,0.1,0,0.2,0c0.3,0,0.5-0.2,0.5-0.5c0-0.2-0.1-0.4-0.3-0.5
	c-0.9-0.4-1.1-1.8-1.2-2.4H18c1.1,0.3,1.8,1.4,1.5,2.5C19.2,18.1,18.4,18.7,17.5,18.7L17.5,18.7z M32,13H18l2.4-0.8H32V13z"/>
</svg>
