<?xml version="1.0" encoding="utf-8"?>
<!-- Generator: Adobe Illustrator 23.0.1, SVG Export Plug-In . SVG Version: 6.00 Build 0)  -->
<svg version="1.1" id="Layer_1" xmlns="http://www.w3.org/2000/svg" xmlns:xlink="http://www.w3.org/1999/xlink" x="0px" y="0px"
	 viewBox="0 0 36 36" style="enable-background:new 0 0 36 36;" xml:space="preserve">
<style type="text/css">
	.st0{fill:#FCF6F5;}
</style>
<g id="hammer" transform="translate(0)">
	<path id="Path_8" class="st0" d="M34.2,12.6c-0.4-0.4-1.1-0.4-1.5,0c0,0,0,0,0,0c-0.4,0.4-1.1,0.4-1.5,0c-0.4-0.4-0.4-1.1,0-1.5
		l0,0l-6,6c0.4-0.4,1.1-0.4,1.5,0c0.4,0.4,0.4,1.1,0,1.5c-0.4,0.4-0.4,1.1,0,1.5c0,0,0,0,0,0l1.5,1.5c0.4,0.4,1.1,0.4,1.5,0
		c0,0,0,0,0,0l6-6c0.4-0.4,0.4-1.1,0-1.5c0,0,0,0,0,0L34.2,12.6z"/>
	<path id="Path_9" class="st0" d="M20,10.3l4.5,4.5l5.2-5.2c0.4-0.4,0.4-1.1,0-1.5c0,0,0,0,0,0l-3-3c-4-4-10.3-6.1-14.9-1.5
		c-0.4,0.4-0.4,1.1,0,1.5c0.2,0.2,0.5,0.3,0.7,0.3c3.2,0,6.4,1.2,8.8,3.3c0.1,0.1,0.1,0.2,0,0.3L20,10.3z"/>
	<path id="Path_10" class="st0" d="M0.9,33.9c1.2,1.2,3.2,1.2,4.5,0L23,16.3l-4.5-4.5L0.9,29.4C-0.3,30.7-0.3,32.7,0.9,33.9z"/>
</g>
</svg>
