<?xml version="1.0" encoding="utf-8"?>
<!-- Generator: Adobe Illustrator 23.0.1, SVG Export Plug-In . SVG Version: 6.00 Build 0)  -->
<svg version="1.1" id="Layer_1" xmlns="http://www.w3.org/2000/svg" xmlns:xlink="http://www.w3.org/1999/xlink" x="0px" y="0px"
	 viewBox="0 0 36 36" style="enable-background:new 0 0 36 36;" xml:space="preserve">
<style type="text/css">
	.st0{fill:#FCF6F5;}
</style>
<path id="Icon_awesome-hand-peace" class="st0" d="M31.1,15.2c-1.6,0-2.9,1.3-2.9,2.8h-0.6v-2.2c0-1.6-1.3-2.8-2.9-2.8
	c-1.6,0-2.9,1.3-2.9,2.8c0,0,0,0,0,0V18h-0.6V3.4C21.4,1.5,19.9,0,18,0c-1.9,0-3.4,1.5-3.4,3.4c0,0,0,0,0,0V18h-1l-5-12.5
	C7.9,3.8,5.9,2.9,4.2,3.6S1.5,6.2,2.2,8l5.3,13.4l-2.2,1.7C4.3,24,4,25.5,4.7,26.7l4.6,7.9c0.5,0.9,1.5,1.4,2.5,1.4h17.1
	c1.3,0,2.5-0.9,2.8-2.2l2.3-9.6c0.1-0.2,0.1-0.4,0.1-0.6V18C34,16.4,32.7,15.2,31.1,15.2C31.1,15.2,31.1,15.2,31.1,15.2z"/>
</svg>
