<?xml version="1.0" encoding="utf-8"?>
<!-- Generator: Adobe Illustrator 23.0.1, SVG Export Plug-In . SVG Version: 6.00 Build 0)  -->
<svg version="1.1" id="Layer_1" xmlns="http://www.w3.org/2000/svg" xmlns:xlink="http://www.w3.org/1999/xlink" x="0px" y="0px"
	 viewBox="0 0 360 645" style="enable-background:new 0 0 360 645;" xml:space="preserve">
<style type="text/css">
	.st0{fill:#5C5C5C;}
	.st1{enable-background:new    ;}
	.st2{fill:none;}
	.st3{fill:none;stroke:#7EEF8C;stroke-width:4;}
	.st4{fill:#E96161;}
	.st5{fill:none;stroke:#707070;stroke-width:3;}
	.st6{fill:#7EEF8C;}
</style>
<g id="Group_35" transform="translate(-21 -99.5)">
	<g id="Group_13" transform="translate(45.849 112.812)">
		<path id="Icon_awesome-hand-paper" class="st0" d="M41,11c-1.7,0-3,1.3-3,3l0,0v6.5h-0.6v-13c0-1.7-1.3-3-3-3l0,0
			c-1.6,0-2.9,1.3-2.9,3v13.1h-0.6V4.5c0-1.7-1.3-3-3-3l0,0c-1.6,0-2.9,1.3-2.9,3v16h-0.6v-13c0-1.7-1.3-3-3-3l0,0
			c-1.6,0-2.9,1.3-2.9,3V25l-2.3-3.2c-1-1.3-2.8-1.6-4.1-0.7c-1.3,1-1.6,2.8-0.7,4.1l0,0L20.7,38c0.7,0.9,1.7,1.5,2.9,1.5h14.6
			c1.6,0,3.1-1.1,3.5-2.7l2-8.3c0.3-1.1,0.4-2.2,0.4-3.3V13.9C43.9,12.3,42.6,11,41,11z"/>
		<g class="st1">
			<path class="st0" d="M14.3,58.1c0,2.9-2,4.7-4.6,4.7c-1.1,0-2.1-0.4-2.8-1.1V66H4.4V53.5h2.5v1.1c0.7-0.8,1.6-1.2,2.9-1.2
				C12.3,53.4,14.3,55.2,14.3,58.1z M11.6,58.1c0-1.6-1-2.5-2.3-2.5S7,56.5,7,58.1c0,1.6,1,2.5,2.3,2.5S11.6,59.7,11.6,58.1z"/>
			<path class="st0" d="M24,57.5v5.2h-2.5v-1.1c-0.5,0.8-1.4,1.3-2.8,1.3c-2.1,0-3.4-1.2-3.4-2.8c0-1.6,1.1-2.7,3.9-2.7h2.1
				c0-1.1-0.7-1.8-2.1-1.8c-1,0-2,0.3-2.6,0.8l-1-1.9c1-0.7,2.5-1.1,3.9-1.1C22.4,53.4,24,54.7,24,57.5z M21.4,59.8v-0.9h-1.8
				c-1.2,0-1.6,0.5-1.6,1.1c0,0.7,0.6,1.1,1.5,1.1C20.3,61,21.1,60.6,21.4,59.8z"/>
			<path class="st0" d="M36.4,58.1c0,2.9-2,4.7-4.6,4.7c-1.1,0-2.1-0.4-2.8-1.1V66h-2.7V53.5H29v1.1c0.7-0.8,1.6-1.2,2.9-1.2
				C34.4,53.4,36.4,55.2,36.4,58.1z M33.7,58.1c0-1.6-1-2.5-2.3-2.5c-1.3,0-2.3,1-2.3,2.5c0,1.6,1,2.5,2.3,2.5
				C32.7,60.6,33.7,59.7,33.7,58.1z"/>
			<path class="st0" d="M47.1,58.9h-6.9c0.3,1.1,1.2,1.8,2.6,1.8c1,0,1.7-0.3,2.3-0.9l1.4,1.5c-0.8,1-2.1,1.5-3.8,1.5
				c-3.2,0-5.2-2-5.2-4.7c0-2.7,2.1-4.7,4.9-4.7c2.7,0,4.8,1.8,4.8,4.7C47.1,58.4,47.1,58.6,47.1,58.9z M40.1,57.3h4.5
				c-0.2-1.2-1.1-1.9-2.2-1.9C41.2,55.4,40.3,56.1,40.1,57.3z"/>
			<path class="st0" d="M54.6,53.4v2.4c-0.2,0-0.4,0-0.6,0c-1.5,0-2.4,0.8-2.4,2.5v4.3h-2.7v-9.1h2.5v1.2
				C52.1,53.9,53.2,53.4,54.6,53.4z"/>
		</g>
	</g>
	<g id="Group_12" transform="translate(48.955 226.139)">
		<path id="Icon_awesome-hand-rock" class="st0" d="M37.6,5c-2,0-3.6,1.5-3.6,3.5c0,0,0,0,0,0.1h-0.6V6.3c0-2-1.5-3.6-3.5-3.6
			s-3.6,1.5-3.6,3.5c0,0,0,0,0,0.1v2.4h-0.6V5.1c0-2-1.5-3.6-3.5-3.6S18.6,3,18.6,5c0,0,0,0,0,0.1v3.6H18V6.3c0-2-1.5-3.6-3.5-3.6
			s-3.6,1.5-3.6,3.5c0,0,0,0,0,0.1v10.1l-0.6-0.5v-3.6c0-2-1.5-3.6-3.5-3.6s-3.6,1.5-3.6,3.5c0,0,0,0,0,0.1v4.9c0,2,0.9,4,2.4,5.3
			l8.3,7.4c0.8,0.7,1.2,1.6,1.2,2.7v0.5c0,1,0.8,1.8,1.8,1.8l0,0h17.8c1,0,1.8-0.8,1.8-1.8l0,0v-0.2c0-0.9,0.2-1.9,0.6-2.8l3.6-8.6
			c0.4-0.9,0.6-1.8,0.6-2.8v-10C41.1,6.7,39.6,5.1,37.6,5L37.6,5z"/>
		<g class="st1">
			<path class="st0" d="M9.5,42.6v2.3c-0.2,0-0.4,0-0.6,0c-1.4,0-2.3,0.8-2.3,2.4v4.1H4.2v-8.6h2.4v1.1C7.2,43.1,8.2,42.6,9.5,42.6z
				"/>
			<path class="st0" d="M10.3,47.1c0-2.6,2-4.4,4.7-4.4c2.7,0,4.7,1.8,4.7,4.4s-2,4.4-4.7,4.4C12.3,51.5,10.3,49.6,10.3,47.1z
				 M17.2,47.1c0-1.5-0.9-2.4-2.2-2.4s-2.2,0.9-2.2,2.4s1,2.4,2.2,2.4S17.2,48.5,17.2,47.1z"/>
			<path class="st0" d="M20.8,47.1c0-2.6,2-4.4,4.8-4.4c1.8,0,3.2,0.8,3.9,2.2l-1.9,1c-0.5-0.8-1.2-1.2-1.9-1.2
				c-1.3,0-2.3,0.9-2.3,2.4s1,2.4,2.3,2.4c0.8,0,1.5-0.4,1.9-1.2l1.9,1.1c-0.6,1.4-2,2.2-3.9,2.2C22.8,51.5,20.8,49.6,20.8,47.1z"/>
			<path class="st0" d="M34.5,48l-1.2,1.2v2.2h-2.5V39.5h2.5v6.7l3.6-3.5h3l-3.6,3.6l3.9,5h-3L34.5,48z"/>
		</g>
	</g>
	<g id="Group_11" transform="translate(40.672 332.209)">
		<path id="Icon_awesome-hand-peace" class="st0" d="M46.1,17.5c-1.6,0-3,1.3-3,3l0,0h-0.6v-2.4c0-1.6-1.3-3-3-3s-3,1.3-3,3v2.4H36
			V5.1c0-2-1.6-3.6-3.6-3.6s-3.6,1.6-3.6,3.6v15.4h-1L22.7,7.3c-0.7-1.8-2.8-2.7-4.6-2s-2.7,2.8-2,4.6L21.6,24l-2.3,1.8
			c-1.1,0.9-1.4,2.5-0.7,3.8l4.7,8.3c0.5,0.9,1.5,1.5,2.6,1.5h17.8c1.4,0,2.6-0.9,2.9-2.3l2.4-10c0.1-0.2,0.1-0.4,0.1-0.7v-5.9
			C49,18.8,47.7,17.5,46.1,17.5L46.1,17.5z"/>
		<g class="st1">
			<path class="st0" d="M3.7,55.4l0.9-1.9c0.8,0.5,2.1,0.9,3.2,0.9c1.2,0,1.7-0.3,1.7-0.8c0-1.5-5.5,0-5.5-3.6c0-1.7,1.6-3,4.2-3
				c1.3,0,2.7,0.3,3.5,0.8l-0.9,1.9C9.9,49.2,9,49,8.1,49c-1.2,0-1.7,0.4-1.7,0.8c0,1.6,5.5,0.1,5.5,3.7c0,1.7-1.6,2.9-4.3,2.9
				C6.1,56.4,4.5,56,3.7,55.4z"/>
			<path class="st0" d="M13.3,44.4c0-0.8,0.7-1.5,1.6-1.5s1.6,0.6,1.6,1.4c0,0.9-0.7,1.5-1.6,1.5S13.3,45.2,13.3,44.4z M13.6,47.1
				h2.7v9.1h-2.7V47.1z"/>
			<path class="st0" d="M18,51.7c0-2.8,2.1-4.7,5.1-4.7c1.9,0,3.4,0.8,4.1,2.3l-2.1,1.1c-0.5-0.9-1.2-1.3-2.1-1.3
				c-1.3,0-2.4,0.9-2.4,2.5s1.1,2.5,2.4,2.5c0.8,0,1.6-0.4,2.1-1.3l2.1,1.1c-0.7,1.5-2.2,2.3-4.1,2.3C20.1,56.4,18,54.5,18,51.7z"/>
			<path class="st0" d="M27.9,51.7c0-2.8,2.1-4.7,5.1-4.7c1.9,0,3.4,0.8,4.1,2.3l-2.1,1.1c-0.5-0.9-1.2-1.3-2.1-1.3
				c-1.3,0-2.4,0.9-2.4,2.5s1.1,2.5,2.4,2.5c0.8,0,1.6-0.4,2.1-1.3l2.1,1.1c-0.7,1.5-2.2,2.3-4.1,2.3C30.1,56.4,27.9,54.5,27.9,51.7
				z"/>
			<path class="st0" d="M37.9,51.7c0-2.8,2.1-4.7,5-4.7c2.9,0,5,2,5,4.7s-2.1,4.7-5,4.7C40,56.4,37.9,54.5,37.9,51.7z M45.2,51.7
				c0-1.6-1-2.5-2.3-2.5c-1.3,0-2.3,1-2.3,2.5c0,1.6,1,2.5,2.3,2.5C44.2,54.3,45.2,53.3,45.2,51.7z"/>
			<path class="st0" d="M55.4,47v2.4c-0.2,0-0.4,0-0.6,0c-1.5,0-2.4,0.8-2.4,2.5v4.3h-2.7v-9.1h2.5v1.2C52.9,47.5,54,47,55.4,47z"/>
			<path class="st0" d="M56.1,55.4l0.9-1.9c0.8,0.5,2.1,0.9,3.2,0.9c1.2,0,1.7-0.3,1.7-0.8c0-1.5-5.5,0-5.5-3.6c0-1.7,1.6-3,4.2-3
				c1.3,0,2.7,0.3,3.5,0.8l-0.9,1.9c-0.9-0.5-1.8-0.7-2.6-0.7c-1.2,0-1.7,0.4-1.7,0.8c0,1.6,5.5,0.1,5.5,3.7c0,1.7-1.6,2.9-4.3,2.9
				C58.5,56.4,56.9,56,56.1,55.4z"/>
		</g>
	</g>
	<path id="Icon_awesome-hand-rock-2" class="st0" d="M366.2,159c-1.4,0-2.5,1.1-2.5,2.4l0,0h-0.4v-1.6c0-1.4-1.1-2.5-2.4-2.5
		c-1.4,0-2.5,1.1-2.5,2.4l0,0v1.6H358V159c0-1.4-1.1-2.5-2.4-2.5c-1.4,0-2.5,1.1-2.5,2.4l0,0v2.5h-0.4v-1.6c0-1.4-1.1-2.5-2.4-2.5
		c-1.4,0-2.5,1.1-2.5,2.4l0,0v7l-0.4-0.4v-2.5c0-1.4-1.1-2.5-2.4-2.5c-1.4,0-2.5,1.1-2.5,2.4l0,0v3.4c0,1.4,0.6,2.7,1.7,3.7l5.7,5.1
		c0.5,0.5,0.8,1.1,0.8,1.8v0.3c0,0.7,0.5,1.2,1.2,1.2l0,0h12.3c0.7,0,1.2-0.5,1.2-1.2l0,0v-0.1c0-0.7,0.1-1.3,0.4-1.9l2.5-6
		c0.3-0.6,0.4-1.3,0.4-1.9v-6.9C368.6,160.1,367.5,159,366.2,159z"/>
	<g id="hammer" transform="translate(286.303 151.771)">
		<path id="Path_8" class="st0" d="M31.8,11.2c-0.3-0.3-0.9-0.3-1.3,0l0,0c-0.3,0.3-0.9,0.3-1.3,0c-0.3-0.3-0.3-0.9,0-1.3l0,0l-5,5
			c0.3-0.3,0.9-0.3,1.3,0c0.3,0.3,0.3,0.9,0,1.3c-0.3,0.3-0.3,0.9,0,1.3l0,0l1.3,1.3c0.3,0.3,0.9,0.3,1.3,0l0,0l5-5
			c0.3-0.3,0.3-0.9,0-1.3l0,0L31.8,11.2z"/>
		<path id="Path_9" class="st0" d="M19.9,9.3l3.8,3.8L28,8.7c0.3-0.3,0.3-0.9,0-1.3l0,0l-2.5-2.5C22.2,1.6,16.8-0.2,13,3.7
			C12.7,4,12.7,4.6,13,5c0.2,0.2,0.4,0.3,0.6,0.3c2.7,0,5.4,1,7.4,2.8c0.1,0.1,0.1,0.2,0,0.2L19.9,9.3z"/>
		<path id="Path_10" class="st0" d="M3.8,29.2c1,1,2.7,1,3.8,0l14.8-14.8l-3.8-3.8L3.8,25.4C2.7,26.5,2.7,28.1,3.8,29.2L3.8,29.2z"
			/>
	</g>
	<g id="Ellipse_2" transform="translate(288 107)">
		<ellipse class="st2" cx="16" cy="14" rx="13" ry="13.5"/>
		<ellipse class="st3" cx="16" cy="14" rx="11" ry="11.5"/>
	</g>
	<path id="Icon_awesome-hand-rock-3" class="st0" d="M366.2,159c-1.4,0-2.5,1.1-2.5,2.4l0,0h-0.4v-1.6c0-1.4-1.1-2.5-2.4-2.5
		c-1.4,0-2.5,1.1-2.5,2.4l0,0v1.6H358V159c0-1.4-1.1-2.5-2.4-2.5c-1.4,0-2.5,1.1-2.5,2.4l0,0v2.5h-0.4v-1.6c0-1.4-1.1-2.5-2.4-2.5
		c-1.4,0-2.5,1.1-2.5,2.4l0,0v7l-0.4-0.4v-2.5c0-1.4-1.1-2.5-2.4-2.5c-1.4,0-2.5,1.1-2.5,2.4l0,0v3.4c0,1.4,0.6,2.7,1.7,3.7l5.7,5.1
		c0.5,0.5,0.8,1.1,0.8,1.8v0.3c0,0.7,0.5,1.2,1.2,1.2l0,0h12.3c0.7,0,1.2-0.5,1.2-1.2l0,0v-0.1c0-0.7,0.1-1.3,0.4-1.9l2.5-6
		c0.3-0.6,0.4-1.3,0.4-1.9v-6.9C368.6,160.1,367.5,159,366.2,159z"/>
	<g id="hammer-2" transform="translate(286.303 151.771)">
		<path id="Path_8-2" class="st0" d="M31.8,11.2c-0.3-0.3-0.9-0.3-1.3,0l0,0c-0.3,0.3-0.9,0.3-1.3,0c-0.3-0.3-0.3-0.9,0-1.3l0,0
			l-5,5c0.3-0.3,0.9-0.3,1.3,0c0.3,0.3,0.3,0.9,0,1.3c-0.3,0.3-0.3,0.9,0,1.3l0,0l1.3,1.3c0.3,0.3,0.9,0.3,1.3,0l0,0l5-5
			c0.3-0.3,0.3-0.9,0-1.3l0,0L31.8,11.2z"/>
		<path id="Path_9-2" class="st0" d="M19.9,9.3l3.8,3.8L28,8.7c0.3-0.3,0.3-0.9,0-1.3l0,0l-2.5-2.5C22.2,1.6,16.8-0.2,13,3.7
			C12.7,4,12.7,4.6,13,5c0.2,0.2,0.4,0.3,0.6,0.3c2.7,0,5.4,1,7.4,2.8c0.1,0.1,0.1,0.2,0,0.2L19.9,9.3z"/>
		<path id="Path_10-2" class="st0" d="M3.8,29.2c1,1,2.7,1,3.8,0l14.8-14.8l-3.8-3.8L3.8,25.4C2.7,26.5,2.7,28.1,3.8,29.2L3.8,29.2z
			"/>
	</g>
	<path id="Icon_metro-cross" class="st4" d="M152.2,127.3L152.2,127.3l-6-6l6-6l0,0c0.2-0.2,0.2-0.6,0-0.9l-2.8-2.8
		c-0.2-0.2-0.6-0.2-0.9,0l0,0l-6,6l-6-6l0,0c-0.2-0.2-0.6-0.2-0.9,0l-2.9,2.8c-0.2,0.2-0.2,0.6,0,0.9l0,0l6,6l-6,6l0,0
		c-0.2,0.2-0.2,0.6,0,0.9l2.9,2.9c0.2,0.2,0.6,0.2,0.9,0l0,0l6-6l6,6l0,0c0.2,0.2,0.6,0.2,0.9,0l2.8-2.9
		C152.4,127.9,152.4,127.5,152.2,127.3L152.2,127.3z"/>
	<path id="Icon_awesome-hand-peace-2" class="st0" d="M152.2,163.8c-1.2,0-2.1,1-2.1,2.1h-0.4v-1.7c0-1.2-1-2.1-2.1-2.1
		c-1.2,0-2.1,1-2.1,2.1v1.7h-0.4v-11.2c0-1.4-1.2-2.6-2.6-2.5c-1.4,0-2.5,1.1-2.5,2.5v11.2h-1l-3.7-9.5c-0.5-1.3-2-2-3.3-1.5
		s-2,2-1.5,3.3l4,10.2l-1.7,1.3c-0.8,0.7-1,1.8-0.5,2.7l3.4,6c0.4,0.7,1.1,1.1,1.9,1.1h12.9c1,0,1.9-0.7,2.1-1.7l1.7-7.3
		c0-0.2,0.1-0.3,0.1-0.5v-4.3C154.3,164.7,153.3,163.8,152.2,163.8L152.2,163.8z"/>
	<g id="gloves" transform="translate(177.439 150.682)">
		<g id="Group_4" transform="translate(0)">
			<g id="Group_3">
				<path id="Path_1" class="st0" d="M13.8,26.1c-0.1-0.2-0.1-0.4-0.2-0.6c-0.9-2.6-1.8-5.1-4.6-5.8c-0.9-0.2-1.8-0.2-2.7,0l0.3,0.8
					c0.3,0.8,0.7,1.5,1.1,2.1l3.4,4.5L13.8,26.1z"/>
				<path id="Path_2" class="st0" d="M9.3,18.7c3.3,0.9,4.4,3.9,5.3,6.5c0.1,0.2,0.1,0.4,0.2,0.6l5.5-2l-0.9-2.3c0-0.1,0-0.1,0-0.2
					v-0.1c0,0,0,0,0-0.1l3.5-7.6c0.4-0.8,0.1-1.8-0.7-2.2c-0.8-0.4-1.8-0.1-2.2,0.7c0,0,0,0.1-0.1,0.1L19,14.6
					c-0.2,0.4-0.6,0.6-1,0.6s-0.8-0.3-1-0.7L12.9,3.1c-0.2-0.6-0.8-0.8-1.4-0.6c0,0,0,0-0.1,0c-0.5,0.3-0.7,0.9-0.5,1.4L13,9.7
					l0.6,1.6c0,0.1,0,0.1,0,0.2c0,0.3-0.3,0.5-0.6,0.5c-0.2,0-0.4-0.2-0.5-0.4L9.1,2.2C9,1.9,8.8,1.7,8.6,1.6C8.3,1.5,8,1.5,7.7,1.6
					C7.2,1.8,6.9,2.4,7.1,2.9l3.5,9.5c0.1,0.3,0,0.6-0.3,0.7l0,0c-0.1,0-0.1,0-0.2,0l0,0c0,0,0,0-0.1,0H9.9c0,0,0,0-0.1,0
					c0,0-0.1,0-0.1-0.1l0,0c0,0-0.1-0.1-0.1-0.2L6.8,5.3C6.6,4.7,6,4.4,5.4,4.6C4.9,4.8,4.6,5.4,4.8,6l1.3,3.5l2,5.6
					c0.1,0.3,0,0.6-0.3,0.7c-0.1,0-0.1,0-0.2,0l0,0l0,0H7.5c0,0,0,0-0.1,0c0,0-0.1,0-0.1-0.1l0,0c0,0-0.1-0.1-0.1-0.2l-2-5.6
					c-0.4-0.6-1-0.8-1.5-0.6c0,0,0,0-0.1,0c-0.5,0.3-0.7,0.9-0.5,1.4l2.9,8C7.1,18.4,8.2,18.4,9.3,18.7z"/>
				<path id="Path_3" class="st0" d="M19.2,11.6c0-0.1,0.1-0.2,0.2-0.3V4.7c0-0.6-0.5-1.1-1.1-1.1s-1.1,0.5-1.1,1.1v7l0.9,2.4
					L19.2,11.6z"/>
				<path id="Path_4" class="st0" d="M22.6,10.3V2.6c0-0.6-0.5-1.1-1.1-1.1s-1,0.5-1.1,1.1v7.8C21.1,10,21.9,10,22.6,10.3z"/>
				<path id="Path_5" class="st0" d="M26.4,28.1h-2.5c-0.2,0.5-0.5,0.8-1,1l-0.3,0.1h2.2c0.6,0,1.1,0.5,1.1,1.1l0,0v0.5
					c0,0.3-0.2,0.5-0.5,0.5s-0.5-0.2-0.5-0.5l0,0v-0.5h-5.2L15.1,32h11.3c0.3,0,0.5-0.2,0.5-0.5l0,0v-2.7
					C27,28.4,26.7,28.1,26.4,28.1L26.4,28.1z"/>
				<path id="Path_6" class="st0" d="M32,15.8L32,15.8c-0.6-0.6-1.7-0.6-2.3,0l-2,2c-0.4,0.4-1.1,0.4-1.5,0
					c-0.2-0.2-0.3-0.5-0.3-0.8V4.7c0-0.6-0.5-1.1-1.1-1.1h-0.1c-0.6,0.1-1,0.6-1,1.2v6.3c0.7,0.8,0.8,1.9,0.4,2.8l-3.4,7.4l0.8,2.2
					c0.7,0,1.3,0.4,1.5,1.1l0.9,2.5l0,0h2v-2.7c0-0.1,0-0.1,0-0.2S26,24.1,26,24l0,0l6-5.8C32.7,17.5,32.7,16.5,32,15.8z"/>
				<path id="Path_7" class="st0" d="M22.8,27.8c0.1-0.1,0.1-0.3,0-0.4L22,24.9c-0.1-0.2-0.3-0.4-0.5-0.4c-0.1,0-0.1,0-0.2,0
					l-10.1,3.7l-0.5,0.2L12,32l10.6-3.9C22.7,28.1,22.8,28,22.8,27.8z M21.4,28L21.4,28c-0.3,0.1-0.6,0-0.7-0.3l0,0l-0.2-0.5
					L12.9,30c-0.3,0.1-0.6,0-0.7-0.3c-0.1-0.3,0-0.6,0.3-0.7l0,0l7.6-2.8c0.6-0.2,1.2,0.1,1.4,0.6l0.2,0.5
					C21.8,27.6,21.6,27.9,21.4,28L21.4,28L21.4,28z"/>
			</g>
		</g>
	</g>
	<path id="Icon_metro-cross-2" class="st4" d="M206.6,127.3L206.6,127.3l-6-6l6-6l0,0c0.2-0.2,0.2-0.6,0-0.9l-2.8-2.8
		c-0.2-0.2-0.6-0.2-0.9,0l0,0l-6,6l-6-6l0,0c-0.2-0.2-0.6-0.2-0.9,0l-2.9,2.8c-0.2,0.2-0.2,0.6,0,0.9l0,0l6,6l-6,6l0,0
		c-0.2,0.2-0.2,0.6,0,0.9l2.9,2.9c0.2,0.2,0.6,0.2,0.9,0l0,0l6-6l6,6l0,0c0.2,0.2,0.6,0.2,0.9,0l2.8-2.9
		C206.8,127.9,206.8,127.5,206.6,127.3L206.6,127.3z"/>
	<g id="handgun" transform="translate(233.157 156.289)">
		<path id="Path_11" class="st0" d="M35.1,7V4.6H35V2.3h-0.1V1.5H34v0.8c0,0-22.4,0.2-26.4,0C7,2.3,3.6,2.6,7,7.9
			c0.9,1.6,0.7,3.6-0.6,5c-2.1,2.6-3.1,7.9-3.3,9.5H3v0.9h9.7v-1.8c-4.2,0.8,2.9-9,2.6-7.4c0.2,0.1,0.5,0.1,0.7,0.1h2.5
			c1.6,0,3.6-1.7,3.6-3.2c0-0.7-0.2-1.3-0.6-1.8H34l0.4-1.5H35L35.1,7h-0.2H35.1L35.1,7z M18.6,12.9H16c-0.2,0-0.4,0-0.5-0.1
			c0.1-0.9,0.3-1.6,0.3-2.3c0.2,0.8,0.7,1.4,1.4,1.8c0.1,0,0.1,0,0.2,0c0.3,0,0.5-0.2,0.5-0.5c0-0.2-0.1-0.4-0.3-0.5
			c-0.8-0.3-1-1.6-1-2.2H19c1,0.3,1.6,1.3,1.3,2.2C20.1,12.3,19.4,12.9,18.6,12.9L18.6,12.9z M31.5,7.7H19L21.2,7h10.3V7.7z"/>
	</g>
	<path id="Icon_metro-cross-3" class="st4" d="M261.9,127.3L261.9,127.3l-6-6l6-6l0,0c0.2-0.2,0.2-0.6,0-0.9l-2.9-2.8
		c-0.2-0.2-0.6-0.2-0.9,0l0,0l-6,6l-6-6l0,0c-0.2-0.2-0.6-0.2-0.9,0l-2.9,2.8c-0.2,0.2-0.2,0.6,0,0.9l0,0l6,6l-6,6l0,0
		c-0.2,0.2-0.2,0.6,0,0.9l2.9,2.9c0.2,0.2,0.6,0.2,0.9,0l0,0l6-6l6,6l0,0c0.2,0.2,0.6,0.2,0.9,0l2.9-2.9
		C262.1,127.9,262.1,127.5,261.9,127.3L261.9,127.3z"/>
	<line id="Line_4" class="st5" x1="119.4" y1="143.4" x2="384.7" y2="143.4"/>
	<line id="Line_2" class="st5" x1="172.3" y1="101" x2="172.3" y2="184.6"/>
	<line id="Line_2-2" class="st5" x1="327.9" y1="101" x2="327.9" y2="184.6"/>
	<path id="Icon_metro-cross-4" class="st4" d="M152.2,127.3L152.2,127.3l-6-6l6-6l0,0c0.2-0.2,0.2-0.6,0-0.9l-2.8-2.8
		c-0.2-0.2-0.6-0.2-0.9,0l0,0l-6,6l-6-6l0,0c-0.2-0.2-0.6-0.2-0.9,0l-2.9,2.8c-0.2,0.2-0.2,0.6,0,0.9l0,0l6,6l-6,6l0,0
		c-0.2,0.2-0.2,0.6,0,0.9l2.9,2.9c0.2,0.2,0.6,0.2,0.9,0l0,0l6-6l6,6l0,0c0.2,0.2,0.6,0.2,0.9,0l2.8-2.9
		C152.4,127.9,152.4,127.5,152.2,127.3L152.2,127.3z"/>
	<path id="Icon_awesome-hand-peace-3" class="st0" d="M152.2,163.8c-1.2,0-2.1,1-2.1,2.1h-0.4v-1.7c0-1.2-1-2.1-2.1-2.1
		c-1.2,0-2.1,1-2.1,2.1v1.7h-0.4v-11.2c0-1.4-1.2-2.6-2.6-2.5c-1.4,0-2.5,1.1-2.5,2.5v11.2h-1l-3.7-9.5c-0.5-1.3-2-2-3.3-1.5
		s-2,2-1.5,3.3l4,10.2l-1.7,1.3c-0.8,0.7-1,1.8-0.5,2.7l3.4,6c0.4,0.7,1.1,1.1,1.9,1.1h12.9c1,0,1.9-0.7,2.1-1.7l1.7-7.3
		c0-0.2,0.1-0.3,0.1-0.5v-4.3C154.3,164.7,153.3,163.8,152.2,163.8L152.2,163.8z"/>
	<g id="gloves-2" transform="translate(177.439 150.682)">
		<g id="Group_4-2" transform="translate(0)">
			<g id="Group_3-2">
				<path id="Path_1-2" class="st0" d="M13.8,26.1c-0.1-0.2-0.1-0.4-0.2-0.6c-0.9-2.6-1.8-5.1-4.6-5.8c-0.9-0.2-1.8-0.2-2.7,0
					l0.3,0.8c0.3,0.8,0.7,1.5,1.1,2.1l3.4,4.5L13.8,26.1z"/>
				<path id="Path_2-2" class="st0" d="M9.3,18.7c3.3,0.9,4.4,3.9,5.3,6.5c0.1,0.2,0.1,0.4,0.2,0.6l5.5-2l-0.9-2.3
					c0-0.1,0-0.1,0-0.2v-0.1c0,0,0,0,0-0.1l3.5-7.6c0.4-0.8,0.1-1.8-0.7-2.2c-0.8-0.4-1.8-0.1-2.2,0.7c0,0,0,0.1-0.1,0.1L19,14.6
					c-0.2,0.4-0.6,0.6-1,0.6s-0.8-0.3-1-0.7L12.9,3.1c-0.2-0.6-0.8-0.8-1.4-0.6c0,0,0,0-0.1,0c-0.5,0.3-0.7,0.9-0.5,1.4L13,9.7
					l0.6,1.6c0,0.1,0,0.1,0,0.2c0,0.3-0.3,0.5-0.6,0.5c-0.2,0-0.4-0.2-0.5-0.4L9.1,2.2C9,1.9,8.8,1.7,8.6,1.6C8.3,1.5,8,1.5,7.7,1.6
					C7.2,1.8,6.9,2.4,7.1,2.9l3.5,9.5c0.1,0.3,0,0.6-0.3,0.7l0,0c-0.1,0-0.1,0-0.2,0l0,0c0,0,0,0-0.1,0H9.9c0,0,0,0-0.1,0
					c0,0-0.1,0-0.1-0.1l0,0c0,0-0.1-0.1-0.1-0.2L6.8,5.3C6.6,4.7,6,4.4,5.4,4.6C4.9,4.8,4.6,5.4,4.8,6l1.3,3.5l2,5.6
					c0.1,0.3,0,0.6-0.3,0.7c-0.1,0-0.1,0-0.2,0l0,0l0,0H7.5c0,0,0,0-0.1,0c0,0-0.1,0-0.1-0.1l0,0c0,0-0.1-0.1-0.1-0.2l-2-5.6
					c-0.4-0.6-1-0.8-1.5-0.6c0,0,0,0-0.1,0c-0.5,0.3-0.7,0.9-0.5,1.4l2.9,8C7.1,18.4,8.2,18.4,9.3,18.7z"/>
				<path id="Path_3-2" class="st0" d="M19.2,11.6c0-0.1,0.1-0.2,0.2-0.3V4.7c0-0.6-0.5-1.1-1.1-1.1s-1.1,0.5-1.1,1.1v7l0.9,2.4
					L19.2,11.6z"/>
				<path id="Path_4-2" class="st0" d="M22.6,10.3V2.6c0-0.6-0.5-1.1-1.1-1.1s-1,0.5-1.1,1.1v7.8C21.1,10,21.9,10,22.6,10.3z"/>
				<path id="Path_5-2" class="st0" d="M26.4,28.1h-2.5c-0.2,0.5-0.5,0.8-1,1l-0.3,0.1h2.2c0.6,0,1.1,0.5,1.1,1.1l0,0v0.5
					c0,0.3-0.2,0.5-0.5,0.5s-0.5-0.2-0.5-0.5l0,0v-0.5h-5.2L15.1,32h11.3c0.3,0,0.5-0.2,0.5-0.5l0,0v-2.7
					C27,28.4,26.7,28.1,26.4,28.1L26.4,28.1z"/>
				<path id="Path_6-2" class="st0" d="M32,15.8L32,15.8c-0.6-0.6-1.7-0.6-2.3,0l-2,2c-0.4,0.4-1.1,0.4-1.5,0
					c-0.2-0.2-0.3-0.5-0.3-0.8V4.7c0-0.6-0.5-1.1-1.1-1.1h-0.1c-0.6,0.1-1,0.6-1,1.2v6.3c0.7,0.8,0.8,1.9,0.4,2.8l-3.4,7.4l0.8,2.2
					c0.7,0,1.3,0.4,1.5,1.1l0.9,2.5l0,0h2v-2.7c0-0.1,0-0.1,0-0.2S26,24.1,26,24l0,0l6-5.8C32.7,17.5,32.7,16.5,32,15.8z"/>
				<path id="Path_7-2" class="st0" d="M22.8,27.8c0.1-0.1,0.1-0.3,0-0.4L22,24.9c-0.1-0.2-0.3-0.4-0.5-0.4c-0.1,0-0.1,0-0.2,0
					l-10.1,3.7l-0.5,0.2L12,32l10.6-3.9C22.7,28.1,22.8,28,22.8,27.8z M21.4,28L21.4,28c-0.3,0.1-0.6,0-0.7-0.3l0,0l-0.2-0.5
					L12.9,30c-0.3,0.1-0.6,0-0.7-0.3c-0.1-0.3,0-0.6,0.3-0.7l0,0l7.6-2.8c0.6-0.2,1.2,0.1,1.4,0.6l0.2,0.5
					C21.8,27.6,21.6,27.9,21.4,28L21.4,28L21.4,28z"/>
			</g>
		</g>
	</g>
	<path id="Icon_metro-cross-5" class="st4" d="M206.6,127.3L206.6,127.3l-6-6l6-6l0,0c0.2-0.2,0.2-0.6,0-0.9l-2.8-2.8
		c-0.2-0.2-0.6-0.2-0.9,0l0,0l-6,6l-6-6l0,0c-0.2-0.2-0.6-0.2-0.9,0l-2.9,2.8c-0.2,0.2-0.2,0.6,0,0.9l0,0l6,6l-6,6l0,0
		c-0.2,0.2-0.2,0.6,0,0.9l2.9,2.9c0.2,0.2,0.6,0.2,0.9,0l0,0l6-6l6,6l0,0c0.2,0.2,0.6,0.2,0.9,0l2.8-2.9
		C206.8,127.9,206.8,127.5,206.6,127.3L206.6,127.3z"/>
	<g id="handgun-2" transform="translate(233.157 156.289)">
		<path id="Path_11-2" class="st0" d="M35.1,7V4.6H35V2.3h-0.1V1.5H34v0.8c0,0-22.4,0.2-26.4,0C7,2.3,3.6,2.6,7,7.9
			c0.9,1.6,0.7,3.6-0.6,5c-2.1,2.6-3.1,7.9-3.3,9.5H3v0.9h9.7v-1.8c-4.2,0.8,2.9-9,2.6-7.4c0.2,0.1,0.5,0.1,0.7,0.1h2.5
			c1.6,0,3.6-1.7,3.6-3.2c0-0.7-0.2-1.3-0.6-1.8H34l0.4-1.5H35L35.1,7h-0.2H35.1L35.1,7z M18.6,12.9H16c-0.2,0-0.4,0-0.5-0.1
			c0.1-0.9,0.3-1.6,0.3-2.3c0.2,0.8,0.7,1.4,1.4,1.8c0.1,0,0.1,0,0.2,0c0.3,0,0.5-0.2,0.5-0.5c0-0.2-0.1-0.4-0.3-0.5
			c-0.8-0.3-1-1.6-1-2.2H19c1,0.3,1.6,1.3,1.3,2.2C20.1,12.3,19.4,12.9,18.6,12.9L18.6,12.9z M31.5,7.7H19L21.2,7h10.3V7.7z"/>
	</g>
	<path id="Icon_awesome-hand-paper-2" class="st0" d="M368.1,376.9c-1.3,0-2.3,1-2.3,2.3l0,0v5h-0.5v-10.1c0-1.3-1-2.3-2.3-2.3l0,0
		c-1.2,0-2.2,1-2.2,2.3v10.1h-0.5v-12.3c0-1.3-1-2.3-2.3-2.3l0,0c-1.2,0-2.2,1-2.2,2.3v12.4h-0.5v-10c0-1.3-1-2.3-2.3-2.3l0,0
		c-1.2,0-2.2,1-2.2,2.3v13.5l-1.8-2.5c-0.7-1-2.2-1.3-3.2-0.5c-1,0.7-1.3,2.2-0.5,3.2l7.2,9.9c0.5,0.7,1.3,1.1,2.2,1.1H366
		c1.3,0,2.4-0.9,2.7-2.1l1.5-6.5c0.2-0.8,0.3-1.7,0.3-2.5v-8.6C370.3,377.9,369.3,376.9,368.1,376.9z"/>
	<path id="Icon_awesome-hand-rock-4" class="st0" d="M152.7,377.1c-1.4,0-2.5,1.1-2.5,2.4l0,0h-0.4V378c0-1.4-1.1-2.5-2.4-2.5
		c-1.4,0-2.5,1.1-2.5,2.4l0,0v1.6h-0.4v-2.4c0-1.4-1.1-2.5-2.4-2.5c-1.4,0-2.5,1.1-2.5,2.4l0,0v2.5h-0.4V378c0-1.4-1.1-2.5-2.4-2.5
		c-1.4,0-2.5,1.1-2.5,2.4l0,0v7l-0.4-0.4V382c0-1.4-1.1-2.5-2.4-2.5c-1.4,0-2.5,1.1-2.5,2.4l0,0v3.4c0,1.4,0.6,2.7,1.7,3.7l5.7,5.1
		c0.5,0.5,0.8,1.1,0.8,1.8v0.3c0,0.7,0.5,1.2,1.2,1.2l0,0h12.3c0.7,0,1.2-0.5,1.2-1.2l0,0v-0.1c0-0.7,0.1-1.3,0.4-1.9l2.5-6
		c0.3-0.6,0.4-1.3,0.4-1.9v-6.9C155.2,378.3,154.1,377.2,152.7,377.1z"/>
	<line id="Line_3" class="st5" x1="119.4" y1="362" x2="384.7" y2="362"/>
	<line id="Line_2-3" class="st5" x1="172.3" y1="319.6" x2="172.3" y2="403.7"/>
	<line id="Line_2-4" class="st5" x1="327.9" y1="319.6" x2="327.9" y2="403.7"/>
	<path id="Icon_metro-cross-6" class="st4" d="M152.2,345.9L152.2,345.9l-6-6l6-6l0,0c0.2-0.2,0.2-0.6,0-0.9l-2.8-2.8
		c-0.2-0.2-0.6-0.2-0.9,0l0,0l-6,6l-6-6l0,0c-0.2-0.2-0.6-0.2-0.9,0l-2.9,2.9c-0.2,0.2-0.2,0.6,0,0.9l0,0l6,6l-6,6l0,0
		c-0.2,0.2-0.2,0.6,0,0.9l2.9,2.9c0.2,0.2,0.6,0.2,0.9,0l0,0l6-6l6,6l0,0c0.2,0.2,0.6,0.2,0.9,0l2.8-2.9
		C152.4,346.5,152.4,346.1,152.2,345.9L152.2,345.9z"/>
	<g id="Ellipse_3" transform="translate(342 327)">
		<ellipse class="st2" cx="13.5" cy="11.5" rx="13.5" ry="13"/>
		<ellipse class="st3" cx="13.5" cy="11.5" rx="11.5" ry="11"/>
	</g>
	<g id="gloves-3" transform="translate(286.303 368.41)">
		<g id="Group_4-3" transform="translate(0)">
			<g id="Group_3-3">
				<path id="Path_1-3" class="st0" d="M13.8,26.1c-0.1-0.2-0.1-0.4-0.2-0.6c-0.9-2.6-1.8-5.1-4.6-5.8c-0.9-0.2-1.8-0.2-2.7,0
					l0.3,0.8c0.3,0.8,0.7,1.5,1.1,2.1l3.4,4.5L13.8,26.1z"/>
				<path id="Path_2-3" class="st0" d="M9.3,18.7c3.3,0.9,4.4,3.9,5.3,6.5c0.1,0.2,0.1,0.4,0.2,0.6l5.5-2l-0.9-2.3
					c0-0.1,0-0.1,0-0.2v-0.1c0,0,0,0,0-0.1l3.5-7.6c0.4-0.8,0.1-1.8-0.7-2.2c-0.8-0.4-1.8-0.1-2.2,0.7c0,0,0,0.1-0.1,0.1L19,14.6
					c-0.2,0.4-0.6,0.6-1,0.6s-0.8-0.3-1-0.7L12.9,3.1c-0.2-0.6-0.8-0.8-1.4-0.6c0,0,0,0-0.1,0c-0.5,0.3-0.7,0.9-0.5,1.4L13,9.7
					l0.6,1.6c0,0.1,0,0.1,0,0.2c0,0.3-0.3,0.5-0.6,0.5c-0.2,0-0.4-0.2-0.5-0.4L9.1,2.2C9,1.9,8.8,1.7,8.6,1.6C8.3,1.5,8,1.5,7.7,1.6
					C7.2,1.8,6.9,2.4,7.1,2.9l3.5,9.5c0.1,0.3,0,0.6-0.3,0.7l0,0c-0.1,0-0.1,0-0.2,0l0,0c0,0,0,0-0.1,0H9.9c0,0,0,0-0.1,0
					c0,0-0.1,0-0.1-0.1l0,0c0,0-0.1-0.1-0.1-0.2L6.8,5.3C6.6,4.7,6,4.4,5.4,4.6C4.9,4.8,4.6,5.4,4.8,6l1.3,3.5l2,5.6
					c0.1,0.3,0,0.6-0.3,0.7c-0.1,0-0.1,0-0.2,0l0,0l0,0H7.5c0,0,0,0-0.1,0c0,0-0.1,0-0.1-0.1l0,0c0,0-0.1-0.1-0.1-0.2l-2-5.6
					c-0.4-0.6-1-0.8-1.5-0.6c0,0,0,0-0.1,0c-0.5,0.3-0.7,0.9-0.5,1.4l2.9,8C7.1,18.4,8.2,18.4,9.3,18.7z"/>
				<path id="Path_3-3" class="st0" d="M19.2,11.6c0-0.1,0.1-0.2,0.2-0.3V4.7c0-0.6-0.5-1.1-1.1-1.1s-1.1,0.5-1.1,1.1v7l0.9,2.4
					L19.2,11.6z"/>
				<path id="Path_4-3" class="st0" d="M22.6,10.3V2.6c0-0.6-0.5-1.1-1.1-1.1s-1,0.5-1.1,1.1v7.8C21.1,10,21.9,10,22.6,10.3z"/>
				<path id="Path_5-3" class="st0" d="M26.4,28.1h-2.5c-0.2,0.5-0.5,0.8-1,1l-0.3,0.1h2.2c0.6,0,1.1,0.5,1.1,1.1l0,0v0.5
					c0,0.3-0.2,0.5-0.5,0.5s-0.5-0.2-0.5-0.5l0,0v-0.5h-5.2L15.1,32h11.3c0.3,0,0.5-0.2,0.5-0.5l0,0v-2.7
					C27,28.4,26.7,28.1,26.4,28.1L26.4,28.1z"/>
				<path id="Path_6-3" class="st0" d="M32,15.8L32,15.8c-0.6-0.6-1.7-0.6-2.3,0l-2,2c-0.4,0.4-1.1,0.4-1.5,0
					c-0.2-0.2-0.3-0.5-0.3-0.8V4.7c0-0.6-0.5-1.1-1.1-1.1h-0.1c-0.6,0.1-1,0.6-1,1.2v6.3c0.7,0.8,0.8,1.9,0.4,2.8l-3.4,7.4l0.8,2.2
					c0.7,0,1.3,0.4,1.5,1.1l0.9,2.5l0,0h2v-2.7c0-0.1,0-0.1,0-0.2S26,24.1,26,24l0,0l6-5.8C32.7,17.5,32.7,16.5,32,15.8z"/>
				<path id="Path_7-3" class="st0" d="M22.8,27.8c0.1-0.1,0.1-0.3,0-0.4L22,24.9c-0.1-0.2-0.3-0.4-0.5-0.4c-0.1,0-0.1,0-0.2,0
					l-10.1,3.7l-0.5,0.2L12,32l10.6-3.9C22.7,28.1,22.8,28,22.8,27.8z M21.4,28L21.4,28c-0.3,0.1-0.6,0-0.7-0.3l0,0l-0.2-0.5
					L12.9,30c-0.3,0.1-0.6,0-0.7-0.3c-0.1-0.3,0-0.6,0.3-0.7l0,0l7.6-2.8c0.6-0.2,1.2,0.1,1.4,0.6l0.2,0.5
					C21.8,27.6,21.6,27.9,21.4,28L21.4,28L21.4,28z"/>
			</g>
		</g>
	</g>
	<path id="Icon_metro-cross-7" class="st4" d="M208.6,345.9L208.6,345.9l-6-6l6-6l0,0c0.2-0.2,0.2-0.6,0-0.9l-2.8-2.8
		c-0.2-0.2-0.6-0.2-0.9,0l0,0l-6,6l-6-6l0,0c-0.2-0.2-0.6-0.2-0.9,0l-2.9,2.9c-0.2,0.2-0.2,0.6,0,0.9l0,0l6,6l-6,6l0,0
		c-0.2,0.2-0.2,0.6,0,0.9l2.9,2.9c0.2,0.2,0.6,0.2,0.9,0l0,0l6-6l6,6l0,0c0.2,0.2,0.6,0.2,0.9,0l2.8-2.9
		C208.8,346.5,208.8,346.1,208.6,345.9L208.6,345.9z"/>
	<g id="hammer-3" transform="translate(178.725 369.071)">
		<path id="Path_8-3" class="st0" d="M31.8,11.2c-0.3-0.3-0.9-0.3-1.3,0l0,0c-0.3,0.3-0.9,0.3-1.3,0c-0.3-0.3-0.3-0.9,0-1.3l0,0
			l-5,5c0.3-0.3,0.9-0.3,1.3,0c0.3,0.3,0.3,0.9,0,1.3c-0.3,0.3-0.3,0.9,0,1.3l0,0l1.3,1.3c0.3,0.3,0.9,0.3,1.3,0l0,0l5-5
			c0.3-0.3,0.3-0.9,0-1.3l0,0L31.8,11.2z"/>
		<path id="Path_9-3" class="st0" d="M19.9,9.3l3.8,3.8L28,8.7c0.3-0.3,0.3-0.9,0-1.3l0,0l-2.5-2.5C22.2,1.6,16.8-0.2,13,3.7
			C12.7,4,12.7,4.6,13,5c0.2,0.2,0.4,0.3,0.6,0.3c2.7,0,5.4,1,7.4,2.8c0.1,0.1,0.1,0.2,0,0.2L19.9,9.3z"/>
		<path id="Path_10-3" class="st0" d="M3.8,29.2c1,1,2.7,1,3.8,0l14.8-14.8l-3.8-3.8L3.8,25.4C2.7,26.5,2.7,28.1,3.8,29.2L3.8,29.2z
			"/>
	</g>
	<g id="handgun-3" transform="translate(233.157 374.875)">
		<path id="Path_11-3" class="st0" d="M35.1,7V4.6H35V2.3h-0.1V1.5H34v0.8c0,0-22.4,0.2-26.4,0C7,2.3,3.6,2.6,7,7.9
			c0.9,1.6,0.7,3.6-0.6,5c-2.1,2.6-3.1,7.9-3.3,9.5H3v0.9h9.7v-1.8c-4.2,0.8,2.9-9,2.6-7.4c0.2,0.1,0.5,0.1,0.7,0.1h2.5
			c1.6,0,3.6-1.7,3.6-3.2c0-0.7-0.2-1.3-0.6-1.8H34l0.4-1.5H35L35.1,7h-0.2H35.1L35.1,7z M18.6,12.9H16c-0.2,0-0.4,0-0.5-0.1
			c0.1-0.9,0.3-1.6,0.3-2.3c0.2,0.8,0.7,1.4,1.4,1.8c0.1,0,0.1,0,0.2,0c0.3,0,0.5-0.2,0.5-0.5c0-0.2-0.1-0.4-0.3-0.5
			c-0.8-0.3-1-1.6-1-2.2H19c1,0.3,1.6,1.3,1.3,2.2C20.1,12.3,19.4,12.9,18.6,12.9L18.6,12.9z M31.5,7.7H19L21.2,7h10.3V7.7z"/>
	</g>
	<g id="Ellipse_4" transform="translate(288 325)">
		<circle class="st2" cx="16" cy="14.5" r="13"/>
		<circle class="st3" cx="16" cy="14.5" r="11"/>
	</g>
	<path id="Icon_metro-cross-8" class="st4" d="M262.9,345.9L262.9,345.9l-6-6l6-6l0,0c0.2-0.2,0.2-0.6,0-0.9l-2.9-2.8
		c-0.2-0.2-0.6-0.2-0.9,0l0,0l-6,6l-6-6l0,0c-0.2-0.2-0.6-0.2-0.9,0l-2.9,2.9c-0.2,0.2-0.2,0.6,0,0.9l0,0l6,6l-6,6l0,0
		c-0.2,0.2-0.2,0.6,0,0.9l2.9,2.9c0.2,0.2,0.6,0.2,0.9,0l0,0l6-6l6,6l0,0c0.2,0.2,0.6,0.2,0.9,0l2.9-2.9
		C263.1,346.5,263.1,346.1,262.9,345.9L262.9,345.9z"/>
	<g id="Ellipse_3-2" transform="translate(341 216)">
		<ellipse class="st2" cx="16.5" cy="14.5" rx="13.5" ry="13"/>
		<ellipse class="st3" cx="16.5" cy="14.5" rx="11.5" ry="11"/>
	</g>
	<path id="Icon_awesome-hand-peace-4" class="st0" d="M367.2,273.6c-1.2,0-2.1,1-2.1,2.1h-0.4V274c0-1.2-1-2.1-2.1-2.1
		s-2.1,1-2.1,2.1v1.7h-0.4v-11.2c0-1.4-1.2-2.6-2.6-2.5c-1.4,0-2.5,1.1-2.5,2.5v11.2h-1l-3.7-9.5c-0.5-1.3-2-2-3.3-1.5s-2,2-1.5,3.3
		l4,10.2l-1.7,1.3c-0.8,0.7-1,1.8-0.5,2.7l3.4,6c0.4,0.7,1.1,1.1,1.9,1.1h12.9c1,0,1.9-0.7,2.1-1.7l1.7-7.3c0-0.2,0.1-0.3,0.1-0.5
		v-4.3C369.3,274.6,368.4,273.6,367.2,273.6L367.2,273.6z"/>
	<g id="handgun-4" transform="translate(285.446 264.296)">
		<path id="Path_11-4" class="st0" d="M35.1,7V4.6H35V2.3h-0.1V1.5H34v0.8c0,0-22.4,0.2-26.4,0C7,2.3,3.6,2.6,7,7.9
			c0.9,1.6,0.7,3.6-0.6,5c-2.1,2.6-3.1,7.9-3.3,9.5H3v0.9h9.7v-1.8c-4.2,0.8,2.9-9,2.6-7.4c0.2,0.1,0.5,0.1,0.7,0.1h2.5
			c1.6,0,3.6-1.7,3.6-3.2c0-0.7-0.2-1.3-0.6-1.8H34l0.4-1.5H35L35.1,7h-0.2H35.1L35.1,7z M18.6,12.9H16c-0.2,0-0.4,0-0.5-0.1
			c0.1-0.9,0.3-1.6,0.3-2.3c0.2,0.8,0.7,1.4,1.4,1.8c0.1,0,0.1,0,0.2,0c0.3,0,0.5-0.2,0.5-0.5c0-0.2-0.1-0.4-0.3-0.5
			c-0.8-0.3-1-1.6-1-2.2H19c1,0.3,1.6,1.3,1.3,2.2C20.1,12.3,19.4,12.9,18.6,12.9L18.6,12.9z M31.5,7.7H19L21.2,7h10.3V7.7z"/>
	</g>
	<g id="Ellipse_4-2" transform="translate(288 216)">
		<circle class="st2" cx="16" cy="14.5" r="13"/>
		<circle class="st3" cx="16" cy="14.5" r="11"/>
	</g>
	<line id="Line_3-2" class="st5" x1="119.4" y1="252.7" x2="384.7" y2="252.7"/>
	<line id="Line_2-5" class="st5" x1="172.3" y1="210.3" x2="172.7" y2="296.4"/>
	<path id="Icon_metro-cross-9" class="st4" d="M152.2,236.6L152.2,236.6l-6-6l6-6l0,0c0.2-0.2,0.2-0.6,0-0.9l-2.8-2.9
		c-0.2-0.2-0.6-0.2-0.9,0l0,0l-6,6l-6-6l0,0c-0.2-0.2-0.6-0.2-0.9,0l-2.9,2.9c-0.2,0.2-0.2,0.6,0,0.9l0,0l6,6l-6,6l0,0
		c-0.2,0.2-0.2,0.6,0,0.9l2.9,2.8c0.2,0.2,0.6,0.2,0.9,0l0,0l6-6l6,6l0,0c0.2,0.2,0.6,0.2,0.9,0l2.8-2.8
		C152.4,237.2,152.4,236.8,152.2,236.6L152.2,236.6z"/>
	<g id="gloves-4" transform="translate(177.439 259.974)">
		<g id="Group_4-4" transform="translate(0)">
			<g id="Group_3-4">
				<path id="Path_1-4" class="st0" d="M13.8,26.1c-0.1-0.2-0.1-0.4-0.2-0.6c-0.9-2.6-1.8-5.1-4.6-5.8c-0.9-0.2-1.8-0.2-2.7,0
					l0.3,0.8c0.3,0.8,0.7,1.5,1.1,2.1l3.4,4.5L13.8,26.1z"/>
				<path id="Path_2-4" class="st0" d="M9.3,18.7c3.3,0.9,4.4,3.9,5.3,6.5c0.1,0.2,0.1,0.4,0.2,0.6l5.5-2l-0.9-2.3
					c0-0.1,0-0.1,0-0.2v-0.1c0,0,0,0,0-0.1l3.5-7.6c0.4-0.8,0.1-1.8-0.7-2.2c-0.8-0.4-1.8-0.1-2.2,0.7c0,0,0,0.1-0.1,0.1L19,14.6
					c-0.2,0.4-0.6,0.6-1,0.6s-0.8-0.3-1-0.7L12.9,3.1c-0.2-0.6-0.8-0.8-1.4-0.6c0,0,0,0-0.1,0c-0.5,0.3-0.7,0.9-0.5,1.4L13,9.7
					l0.6,1.6c0,0.1,0,0.1,0,0.2c0,0.3-0.3,0.5-0.6,0.5c-0.2,0-0.4-0.2-0.5-0.4L9.1,2.2C9,1.9,8.8,1.7,8.6,1.6C8.3,1.5,8,1.5,7.7,1.6
					C7.2,1.8,6.9,2.4,7.1,2.9l3.5,9.5c0.1,0.3,0,0.6-0.3,0.7l0,0c-0.1,0-0.1,0-0.2,0l0,0c0,0,0,0-0.1,0H9.9c0,0,0,0-0.1,0
					c0,0-0.1,0-0.1-0.1l0,0c0,0-0.1-0.1-0.1-0.2L6.8,5.3C6.6,4.7,6,4.4,5.4,4.6C4.9,4.8,4.6,5.4,4.8,6l1.3,3.5l2,5.6
					c0.1,0.3,0,0.6-0.3,0.7c-0.1,0-0.1,0-0.2,0l0,0l0,0H7.5c0,0,0,0-0.1,0c0,0-0.1,0-0.1-0.1l0,0c0,0-0.1-0.1-0.1-0.2l-2-5.6
					c-0.4-0.6-1-0.8-1.5-0.6c0,0,0,0-0.1,0c-0.5,0.3-0.7,0.9-0.5,1.4l2.9,8C7.1,18.4,8.2,18.4,9.3,18.7z"/>
				<path id="Path_3-4" class="st0" d="M19.2,11.6c0-0.1,0.1-0.2,0.2-0.3V4.7c0-0.6-0.5-1.1-1.1-1.1s-1.1,0.5-1.1,1.1v7l0.9,2.4
					L19.2,11.6z"/>
				<path id="Path_4-4" class="st0" d="M22.6,10.3V2.6c0-0.6-0.5-1.1-1.1-1.1s-1,0.5-1.1,1.1v7.8C21.1,10,21.9,10,22.6,10.3z"/>
				<path id="Path_5-4" class="st0" d="M26.4,28.1h-2.5c-0.2,0.5-0.5,0.8-1,1l-0.3,0.1h2.2c0.6,0,1.1,0.5,1.1,1.1l0,0v0.5
					c0,0.3-0.2,0.5-0.5,0.5s-0.5-0.2-0.5-0.5l0,0v-0.5h-5.2L15.1,32h11.3c0.3,0,0.5-0.2,0.5-0.5l0,0v-2.7
					C27,28.4,26.7,28.1,26.4,28.1L26.4,28.1z"/>
				<path id="Path_6-4" class="st0" d="M32,15.8L32,15.8c-0.6-0.6-1.7-0.6-2.3,0l-2,2c-0.4,0.4-1.1,0.4-1.5,0
					c-0.2-0.2-0.3-0.5-0.3-0.8V4.7c0-0.6-0.5-1.1-1.1-1.1h-0.1c-0.6,0.1-1,0.6-1,1.2v6.3c0.7,0.8,0.8,1.9,0.4,2.8l-3.4,7.4l0.8,2.2
					c0.7,0,1.3,0.4,1.5,1.1l0.9,2.5l0,0h2v-2.7c0-0.1,0-0.1,0-0.2S26,24.1,26,24l0,0l6-5.8C32.7,17.5,32.7,16.5,32,15.8z"/>
				<path id="Path_7-4" class="st0" d="M22.8,27.8c0.1-0.1,0.1-0.3,0-0.4L22,24.9c-0.1-0.2-0.3-0.4-0.5-0.4c-0.1,0-0.1,0-0.2,0
					l-10.1,3.7l-0.5,0.2L12,32l10.6-3.9C22.7,28.1,22.8,28,22.8,27.8z M21.4,28L21.4,28c-0.3,0.1-0.6,0-0.7-0.3l0,0l-0.2-0.5
					L12.9,30c-0.3,0.1-0.6,0-0.7-0.3c-0.1-0.3,0-0.6,0.3-0.7l0,0l7.6-2.8c0.6-0.2,1.2,0.1,1.4,0.6l0.2,0.5
					C21.8,27.6,21.6,27.9,21.4,28L21.4,28L21.4,28z"/>
			</g>
		</g>
	</g>
	<path id="Icon_metro-cross-10" class="st4" d="M208.6,236.6L208.6,236.6l-6-6l6-6l0,0c0.2-0.2,0.2-0.6,0-0.9l-2.8-2.9
		c-0.2-0.2-0.6-0.2-0.9,0l0,0l-6,6l-6-6l0,0c-0.2-0.2-0.6-0.2-0.9,0l-2.9,2.9c-0.2,0.2-0.2,0.6,0,0.9l0,0l6,6l-6,6l0,0
		c-0.2,0.2-0.2,0.6,0,0.9l2.9,2.8c0.2,0.2,0.6,0.2,0.9,0l0,0l6-6l6,6l0,0c0.2,0.2,0.6,0.2,0.9,0l2.8-2.8
		C208.8,237.2,208.8,236.8,208.6,236.6L208.6,236.6z"/>
	<g id="hammer-4" transform="translate(231.014 259.349)">
		<path id="Path_8-4" class="st0" d="M31.8,11.2c-0.3-0.3-0.9-0.3-1.3,0l0,0c-0.3,0.3-0.9,0.3-1.3,0c-0.3-0.3-0.3-0.9,0-1.3l0,0
			l-5,5c0.3-0.3,0.9-0.3,1.3,0c0.3,0.3,0.3,0.9,0,1.3c-0.3,0.3-0.3,0.9,0,1.3l0,0l1.3,1.3c0.3,0.3,0.9,0.3,1.3,0l0,0l5-5
			c0.3-0.3,0.3-0.9,0-1.3l0,0L31.8,11.2z"/>
		<path id="Path_9-4" class="st0" d="M19.9,9.3l3.8,3.8L28,8.7c0.3-0.3,0.3-0.9,0-1.3l0,0l-2.5-2.5C22.2,1.6,16.8-0.2,13,3.7
			C12.7,4,12.7,4.6,13,5c0.2,0.2,0.4,0.3,0.6,0.3c2.7,0,5.4,1,7.4,2.8c0.1,0.1,0.1,0.2,0,0.2L19.9,9.3z"/>
		<path id="Path_10-4" class="st0" d="M3.8,29.2c1,1,2.7,1,3.8,0l14.8-14.8l-3.8-3.8L3.8,25.4C2.7,26.5,2.7,28.1,3.8,29.2L3.8,29.2z
			"/>
	</g>
	<path id="Icon_metro-cross-11" class="st4" d="M261.9,236.6L261.9,236.6l-6-6l6-6l0,0c0.2-0.2,0.2-0.6,0-0.9l-2.9-2.9
		c-0.2-0.2-0.6-0.2-0.9,0l0,0l-6,6l-6-6l0,0c-0.2-0.2-0.6-0.2-0.9,0l-2.9,2.9c-0.2,0.2-0.2,0.6,0,0.9l0,0l6,6l-6,6l0,0
		c-0.2,0.2-0.2,0.6,0,0.9l2.9,2.8c0.2,0.2,0.6,0.2,0.9,0l0,0l6-6l6,6l0,0c0.2,0.2,0.6,0.2,0.9,0l2.9-2.8
		C262.1,237.2,262.1,236.8,261.9,236.6L261.9,236.6z"/>
	<path id="Icon_awesome-hand-paper-3" class="st0" d="M150.3,270.1c-1.3,0-2.3,1-2.3,2.3l0,0v5h-0.5v-10.1c0-1.3-1-2.3-2.3-2.3l0,0
		c-1.2,0-2.2,1-2.2,2.3v10.1h-0.5v-12.3c0-1.3-1-2.3-2.3-2.3l0,0c-1.2,0-2.2,1-2.2,2.3v12.4h-0.5v-10c0-1.3-1-2.3-2.3-2.3l0,0
		c-1.2,0-2.2,1-2.2,2.3V281l-1.8-2.5c-0.7-1-2.2-1.3-3.2-0.5c-1,0.7-1.3,2.2-0.5,3.2l7.2,9.9c0.5,0.7,1.3,1.1,2.2,1.1h11.3
		c1.3,0,2.4-0.9,2.7-2.1l1.5-6.5c0.2-0.8,0.3-1.7,0.3-2.5v-8.6C152.6,271.2,151.6,270.2,150.3,270.1z"/>
	<g class="st1">
		<path class="st0" d="M59.7,486.4v7.6c0,3.4-1.8,5-5.1,5c-1.7,0-3.4-0.4-4.5-1.3l1.1-1.9c0.8,0.6,2.1,1,3.2,1
			c1.9,0,2.7-0.8,2.7-2.5v-0.4c-0.7,0.8-1.7,1.1-2.9,1.1c-2.5,0-4.6-1.8-4.6-4.4s2-4.4,4.6-4.4c1.3,0,2.3,0.4,3,1.3v-1.2H59.7z
			 M57,490.6c0-1.3-1-2.2-2.4-2.2c-1.4,0-2.4,0.9-2.4,2.2s1,2.2,2.4,2.2C56,492.9,57,492,57,490.6z"/>
		<path class="st0" d="M71.3,486.4v9.1h-2.5v-1.1c-0.7,0.8-1.7,1.2-2.8,1.2c-2.3,0-3.9-1.3-3.9-4.1v-5.2h2.7v4.8
			c0,1.5,0.7,2.2,1.9,2.2c1.2,0,2.1-0.8,2.1-2.5v-4.5H71.3z"/>
		<path class="st0" d="M83.2,490.3v5.2h-2.7v-4.8c0-1.5-0.7-2.2-1.9-2.2c-1.3,0-2.2,0.8-2.2,2.5v4.5h-2.7v-9.1h2.5v1.1
			c0.7-0.8,1.8-1.2,3-1.2C81.5,486.2,83.2,487.5,83.2,490.3z"/>
	</g>
	<path id="Icon_awesome-hand-paper-4" class="st0" d="M313.2,486.6c-1.3,0-2.3,1-2.3,2.3l0,0v5h-0.5v-10.1c0-1.3-1-2.3-2.3-2.3l0,0
		c-1.2,0-2.2,1-2.2,2.3v10.1h-0.5v-12.3c0-1.3-1-2.3-2.3-2.3l0,0c-1.2,0-2.2,1-2.2,2.3V494h-0.5v-10c0-1.3-1-2.3-2.3-2.3l0,0
		c-1.2,0-2.2,1-2.2,2.3v13.5l-1.8-2.5c-0.7-1-2.2-1.3-3.2-0.5c-1,0.7-1.3,2.2-0.5,3.2l7.2,9.9c0.5,0.7,1.3,1.1,2.2,1.1H311
		c1.3,0,2.4-0.9,2.7-2.1l1.5-6.5c0.2-0.8,0.3-1.7,0.3-2.5V489C315.5,487.6,314.5,486.6,313.2,486.6z"/>
	<path id="Icon_awesome-hand-rock-5" class="st0" d="M149.7,486c-1.4,0-2.5,1.1-2.5,2.4l0,0h-0.4v-1.6c0-1.4-1.1-2.5-2.4-2.5
		c-1.4,0-2.5,1.1-2.5,2.4l0,0v1.6h-0.4V486c0-1.4-1.1-2.5-2.4-2.5c-1.4,0-2.5,1.1-2.5,2.4l0,0v2.5h-0.4v-1.6c0-1.4-1.1-2.5-2.4-2.5
		c-1.4,0-2.5,1.1-2.5,2.4l0,0v7l-0.4-0.4v-2.5c0-1.4-1.1-2.5-2.4-2.5c-1.4,0-2.5,1.1-2.5,2.4l0,0v3.4c0,1.4,0.6,2.7,1.7,3.7l5.7,5.1
		c0.5,0.5,0.8,1.1,0.8,1.8v0.3c0,0.7,0.5,1.2,1.2,1.2l0,0h12.3c0.7,0,1.2-0.5,1.2-1.2l0,0v-0.1c0-0.7,0.1-1.3,0.4-1.9l2.5-6
		c0.3-0.6,0.4-1.3,0.4-1.9v-6.9C152.2,487.1,151.1,486,149.7,486z"/>
	<line id="Line_3-3" class="st5" x1="119.4" y1="471.3" x2="384.7" y2="471.3"/>
	<line id="Line_2-6" class="st5" x1="172.3" y1="428.9" x2="172.3" y2="515.2"/>
	<line id="Line_2-7" class="st5" x1="327.9" y1="428.9" x2="327.9" y2="515.2"/>
	<path id="Icon_metro-cross-12" class="st4" d="M152.2,455.2L152.2,455.2l-6-6l6-6l0,0c0.2-0.2,0.2-0.6,0-0.9l-2.8-2.8
		c-0.2-0.2-0.6-0.2-0.9,0l0,0l-6,6l-6-6l0,0c-0.2-0.2-0.6-0.2-0.9,0l-2.9,2.9c-0.2,0.2-0.2,0.6,0,0.9l0,0l6,6l-6,6l0,0
		c-0.2,0.2-0.2,0.6,0,0.9l2.9,2.9c0.2,0.2,0.6,0.2,0.9,0l0,0l6-6l6,6l0,0c0.2,0.2,0.6,0.2,0.9,0l2.8-2.9
		C152.4,455.8,152.4,455.4,152.2,455.2L152.2,455.2z"/>
	<g id="Ellipse_3-3" transform="translate(342 434)">
		<ellipse class="st2" cx="13.5" cy="14.5" rx="13.5" ry="14"/>
		<ellipse class="st3" cx="13.5" cy="14.5" rx="11.5" ry="12"/>
	</g>
	<g id="gloves-5" transform="translate(233.157 478.56)">
		<g id="Group_4-5" transform="translate(0)">
			<g id="Group_3-5">
				<path id="Path_1-5" class="st0" d="M13.8,26.1c-0.1-0.2-0.1-0.4-0.2-0.6c-0.9-2.6-1.8-5.1-4.6-5.8c-0.9-0.2-1.8-0.2-2.7,0
					l0.3,0.8c0.3,0.8,0.7,1.5,1.1,2.1l3.4,4.5L13.8,26.1z"/>
				<path id="Path_2-5" class="st0" d="M9.3,18.7c3.3,0.9,4.4,3.9,5.3,6.5c0.1,0.2,0.1,0.4,0.2,0.6l5.5-2l-0.9-2.3
					c0-0.1,0-0.1,0-0.2v-0.1c0,0,0,0,0-0.1l3.5-7.6c0.4-0.8,0.1-1.8-0.7-2.2c-0.8-0.4-1.8-0.1-2.2,0.7c0,0,0,0.1-0.1,0.1L19,14.6
					c-0.2,0.4-0.6,0.6-1,0.6s-0.8-0.3-1-0.7L12.9,3.1c-0.2-0.6-0.8-0.8-1.4-0.6c0,0,0,0-0.1,0c-0.5,0.3-0.7,0.9-0.5,1.4L13,9.7
					l0.6,1.6c0,0.1,0,0.1,0,0.2c0,0.3-0.3,0.5-0.6,0.5c-0.2,0-0.4-0.2-0.5-0.4L9.1,2.2C9,1.9,8.8,1.7,8.6,1.6C8.3,1.5,8,1.5,7.7,1.6
					C7.2,1.8,6.9,2.4,7.1,2.9l3.5,9.5c0.1,0.3,0,0.6-0.3,0.7l0,0c-0.1,0-0.1,0-0.2,0l0,0c0,0,0,0-0.1,0H9.9c0,0,0,0-0.1,0
					c0,0-0.1,0-0.1-0.1l0,0c0,0-0.1-0.1-0.1-0.2L6.8,5.3C6.6,4.7,6,4.4,5.4,4.6C4.9,4.8,4.6,5.4,4.8,6l1.3,3.5l2,5.6
					c0.1,0.3,0,0.6-0.3,0.7c-0.1,0-0.1,0-0.2,0l0,0l0,0H7.5c0,0,0,0-0.1,0c0,0-0.1,0-0.1-0.1l0,0c0,0-0.1-0.1-0.1-0.2l-2-5.6
					c-0.4-0.6-1-0.8-1.5-0.6c0,0,0,0-0.1,0c-0.5,0.3-0.7,0.9-0.5,1.4l2.9,8C7.1,18.4,8.2,18.4,9.3,18.7z"/>
				<path id="Path_3-5" class="st0" d="M19.2,11.6c0-0.1,0.1-0.2,0.2-0.3V4.7c0-0.6-0.5-1.1-1.1-1.1s-1.1,0.5-1.1,1.1v7l0.9,2.4
					L19.2,11.6z"/>
				<path id="Path_4-5" class="st0" d="M22.6,10.3V2.6c0-0.6-0.5-1.1-1.1-1.1s-1,0.5-1.1,1.1v7.8C21.1,10,21.9,10,22.6,10.3z"/>
				<path id="Path_5-5" class="st0" d="M26.4,28.1h-2.5c-0.2,0.5-0.5,0.8-1,1l-0.3,0.1h2.2c0.6,0,1.1,0.5,1.1,1.1l0,0v0.5
					c0,0.3-0.2,0.5-0.5,0.5s-0.5-0.2-0.5-0.5l0,0v-0.5h-5.2L15.1,32h11.3c0.3,0,0.5-0.2,0.5-0.5l0,0v-2.7
					C27,28.4,26.7,28.1,26.4,28.1L26.4,28.1z"/>
				<path id="Path_6-5" class="st0" d="M32,15.8L32,15.8c-0.6-0.6-1.7-0.6-2.3,0l-2,2c-0.4,0.4-1.1,0.4-1.5,0
					c-0.2-0.2-0.3-0.5-0.3-0.8V4.7c0-0.6-0.5-1.1-1.1-1.1h-0.1c-0.6,0.1-1,0.6-1,1.2v6.3c0.7,0.8,0.8,1.9,0.4,2.8l-3.4,7.4l0.8,2.2
					c0.7,0,1.3,0.4,1.5,1.1l0.9,2.5l0,0h2v-2.7c0-0.1,0-0.1,0-0.2S26,24.1,26,24l0,0l6-5.8C32.7,17.5,32.7,16.5,32,15.8z"/>
				<path id="Path_7-5" class="st0" d="M22.8,27.8c0.1-0.1,0.1-0.3,0-0.4L22,24.9c-0.1-0.2-0.3-0.4-0.5-0.4c-0.1,0-0.1,0-0.2,0
					l-10.1,3.7l-0.5,0.2L12,32l10.6-3.9C22.7,28.1,22.8,28,22.8,27.8z M21.4,28L21.4,28c-0.3,0.1-0.6,0-0.7-0.3l0,0l-0.2-0.5
					L12.9,30c-0.3,0.1-0.6,0-0.7-0.3c-0.1-0.3,0-0.6,0.3-0.7l0,0l7.6-2.8c0.6-0.2,1.2,0.1,1.4,0.6l0.2,0.5
					C21.8,27.6,21.6,27.9,21.4,28L21.4,28L21.4,28z"/>
			</g>
		</g>
	</g>
	<path id="Icon_metro-cross-13" class="st4" d="M208.6,455.2L208.6,455.2l-6-6l6-6l0,0c0.2-0.2,0.2-0.6,0-0.9l-2.8-2.8
		c-0.2-0.2-0.6-0.2-0.9,0l0,0l-6,6l-6-6l0,0c-0.2-0.2-0.6-0.2-0.9,0l-2.9,2.9c-0.2,0.2-0.2,0.6,0,0.9l0,0l6,6l-6,6l0,0
		c-0.2,0.2-0.2,0.6,0,0.9l2.9,2.9c0.2,0.2,0.6,0.2,0.9,0l0,0l6-6l6,6l0,0c0.2,0.2,0.6,0.2,0.9,0l2.8-2.9
		C208.8,455.8,208.8,455.4,208.6,455.2L208.6,455.2z"/>
	<g id="hammer-5" transform="translate(178.724 478.363)">
		<path id="Path_8-5" class="st0" d="M31.8,11.2c-0.3-0.3-0.9-0.3-1.3,0l0,0c-0.3,0.3-0.9,0.3-1.3,0c-0.3-0.3-0.3-0.9,0-1.3l0,0
			l-5,5c0.3-0.3,0.9-0.3,1.3,0c0.3,0.3,0.3,0.9,0,1.3c-0.3,0.3-0.3,0.9,0,1.3l0,0l1.3,1.3c0.3,0.3,0.9,0.3,1.3,0l0,0l5-5
			c0.3-0.3,0.3-0.9,0-1.3l0,0L31.8,11.2z"/>
		<path id="Path_9-5" class="st0" d="M19.9,9.3l3.8,3.8L28,8.7c0.3-0.3,0.3-0.9,0-1.3l0,0l-2.5-2.5C22.2,1.6,16.8-0.2,13,3.7
			C12.7,4,12.7,4.6,13,5c0.2,0.2,0.4,0.3,0.6,0.3c2.7,0,5.4,1,7.4,2.8c0.1,0.1,0.1,0.2,0,0.2L19.9,9.3z"/>
		<path id="Path_10-5" class="st0" d="M3.8,29.2c1,1,2.7,1,3.8,0l14.8-14.8l-3.8-3.8L3.8,25.4C2.7,26.5,2.7,28.1,3.8,29.2L3.8,29.2z
			"/>
	</g>
	<g id="Ellipse_4-3" transform="translate(286 434)">
		<ellipse class="st2" cx="18" cy="14.5" rx="14" ry="14"/>
		<ellipse class="st3" cx="18" cy="14.5" rx="11.8" ry="12"/>
	</g>
	<g id="handgun-5" transform="translate(45.43 440.729)">
		<path id="Path_11-5" class="st0" d="M51.2,9.7V6.1H51V2.7h-0.2V1.5h-1.4v1.2c0,0-33.7,0.2-39.6,0c-0.9,0-6,0.5-0.9,8.4
			c1.4,2.4,1,5.5-0.9,7.5c-3.2,3.9-4.6,11.8-5,14.2h0v1.4h14.6v-2.7c-6.3,1.2,4.4-13.5,3.9-11c0.3,0.1,0.7,0.1,1.1,0.1h3.8
			c2.4,0,5.5-2.5,5.5-4.9c0-1-0.3-1.9-1-2.7h18.8l0.6-2.2h0.8v-1H51V9.7H51.2z M26.4,18.6h-3.8c-0.3,0-0.5,0-0.8-0.1
			c0.2-1.3,0.4-2.5,0.5-3.4c0.3,1.2,1.1,2.1,2.2,2.6c0.1,0,0.2,0,0.3,0c0.4,0,0.7-0.3,0.7-0.7c0-0.3-0.2-0.6-0.5-0.7
			c-1.3-0.5-1.5-2.4-1.6-3.3h3.7c1.5,0.4,2.4,1.9,2,3.4C28.8,17.7,27.7,18.6,26.4,18.6L26.4,18.6z M45.9,10.9H27.1l3.3-1.1h15.5
			V10.9z"/>
	</g>
	<g class="st1">
		<path class="st0" d="M34.6,606.3v5.2h-2.7v-4.8c0-1.5-0.7-2.2-1.9-2.2c-1.3,0-2.2,0.8-2.2,2.5v4.5h-2.7v-12.6h2.7v4.4
			c0.7-0.7,1.7-1.1,2.9-1.1C32.9,602.2,34.6,603.5,34.6,606.3z"/>
		<path class="st0" d="M45.1,606.3v5.2h-2.5v-1.1c-0.5,0.8-1.4,1.3-2.8,1.3c-2.1,0-3.4-1.2-3.4-2.8c0-1.6,1.1-2.7,3.9-2.7h2.1
			c0-1.1-0.7-1.8-2.1-1.8c-1,0-2,0.3-2.6,0.8l-1-1.9c1-0.7,2.5-1.1,3.9-1.1C43.4,602.2,45.1,603.5,45.1,606.3z M42.4,608.6v-0.9
			h-1.8c-1.2,0-1.6,0.5-1.6,1.1c0,0.7,0.6,1.1,1.5,1.1C41.3,609.9,42.1,609.4,42.4,608.6z"/>
		<path class="st0" d="M62.9,606.3v5.2h-2.7v-4.8c0-1.5-0.7-2.2-1.7-2.2c-1.2,0-2,0.8-2,2.4v4.6h-2.7v-4.8c0-1.5-0.6-2.2-1.7-2.2
			c-1.2,0-2,0.8-2,2.4v4.6h-2.7v-9.1H50v1.1c0.7-0.8,1.7-1.2,2.9-1.2c1.3,0,2.4,0.5,3,1.5c0.7-0.9,1.9-1.5,3.3-1.5
			C61.3,602.2,62.9,603.5,62.9,606.3z"/>
		<path class="st0" d="M80.7,606.3v5.2h-2.7v-4.8c0-1.5-0.7-2.2-1.7-2.2c-1.2,0-2,0.8-2,2.4v4.6h-2.7v-4.8c0-1.5-0.6-2.2-1.7-2.2
			c-1.2,0-2,0.8-2,2.4v4.6h-2.7v-9.1h2.5v1.1c0.7-0.8,1.7-1.2,2.9-1.2c1.3,0,2.4,0.5,3,1.5c0.7-0.9,1.9-1.5,3.3-1.5
			C79.2,602.2,80.7,603.5,80.7,606.3z"/>
		<path class="st0" d="M92.1,607.7h-6.9c0.3,1.1,1.2,1.8,2.6,1.8c1,0,1.7-0.3,2.3-0.9l1.4,1.5c-0.8,1-2.1,1.5-3.8,1.5
			c-3.2,0-5.2-2-5.2-4.7c0-2.7,2.1-4.7,4.9-4.7c2.7,0,4.8,1.8,4.8,4.7C92.2,607.2,92.2,607.5,92.1,607.7z M85.2,606.1h4.5
			c-0.2-1.2-1.1-1.9-2.2-1.9C86.2,604.2,85.4,605,85.2,606.1z"/>
		<path class="st0" d="M99.6,602.2v2.4c-0.2,0-0.4,0-0.6,0c-1.5,0-2.4,0.8-2.4,2.5v4.3H94v-9.1h2.5v1.2
			C97.1,602.7,98.2,602.2,99.6,602.2z"/>
	</g>
	<path id="Icon_awesome-hand-paper-5" class="st0" d="M149.9,596.7c-1.3,0-2.3,1-2.3,2.3l0,0v5h-0.5v-10c0-1.3-1-2.3-2.3-2.3l0,0
		c-1.2,0-2.2,1-2.2,2.3v10.1h-0.5v-12.3c0-1.3-1-2.3-2.3-2.3l0,0c-1.2,0-2.2,1-2.2,2.3v12.4H137v-10c0-1.3-1-2.3-2.3-2.3l0,0
		c-1.2,0-2.2,1-2.2,2.3v13.5l-1.8-2.5c-0.7-1-2.2-1.3-3.2-0.5c-1,0.7-1.3,2.2-0.5,3.2l7.2,9.9c0.5,0.7,1.3,1.1,2.2,1.1h11.3
		c1.3,0,2.4-0.9,2.7-2.1l1.5-6.5c0.2-0.8,0.3-1.7,0.3-2.5V599C152.2,597.8,151.2,596.8,149.9,596.7z"/>
	<path id="Icon_awesome-hand-rock-6" class="st0" d="M366.7,596.1c-1.4,0-2.5,1.1-2.5,2.4l0,0h-0.4V597c0-1.4-1.1-2.5-2.4-2.5
		c-1.4,0-2.5,1.1-2.5,2.4l0,0v1.6h-0.4v-2.4c0-1.4-1.1-2.5-2.4-2.5c-1.4,0-2.5,1.1-2.5,2.4l0,0v2.5h-0.4V597c0-1.4-1.1-2.5-2.4-2.5
		c-1.4,0-2.5,1.1-2.5,2.4l0,0v7l-0.4-0.4V601c0-1.4-1.1-2.5-2.4-2.5c-1.4,0-2.5,1.1-2.5,2.4l0,0v3.4c0,1.4,0.6,2.7,1.7,3.7l5.7,5.1
		c0.5,0.5,0.8,1.1,0.8,1.8v0.3c0,0.7,0.5,1.2,1.2,1.2l0,0h12.3c0.7,0,1.2-0.5,1.2-1.2l0,0V615c0-0.7,0.1-1.3,0.4-1.9l2.5-6
		c0.3-0.6,0.4-1.3,0.4-1.9v-6.9C369.2,597.3,368.1,596.2,366.7,596.1z"/>
	<line id="Line_3-4" class="st5" x1="119.4" y1="581" x2="384.7" y2="581"/>
	<line id="Line_2-8" class="st5" x1="172.3" y1="538.6" x2="172.7" y2="622.5"/>
	<line id="Line_2-9" class="st5" x1="327.9" y1="538.6" x2="328.3" y2="622.5"/>
	<path id="Icon_metro-cross-14" class="st4" d="M152.2,564.9L152.2,564.9l-6-6l6-6l0,0c0.2-0.2,0.2-0.6,0-0.9l-2.8-2.9
		c-0.2-0.2-0.6-0.2-0.9,0l0,0l-6,6l-6-6l0,0c-0.2-0.2-0.6-0.2-0.9,0l-2.9,2.9c-0.2,0.2-0.2,0.6,0,0.9l0,0l6,6l-6,6l0,0
		c-0.2,0.2-0.2,0.6,0,0.9l2.9,2.9c0.2,0.2,0.6,0.2,0.9,0l0,0l6-6l6,6l0,0c0.2,0.2,0.6,0.2,0.9,0l2.8-2.8
		C152.4,565.5,152.4,565.1,152.2,564.9L152.2,564.9z"/>
	<g id="Ellipse_3-4" transform="translate(340 544)">
		<circle class="st2" cx="15.5" cy="15" r="13.5"/>
		<circle class="st3" cx="15.5" cy="15" r="11.5"/>
	</g>
	<g id="gloves-6" transform="translate(180.01 588.281)">
		<g id="Group_4-6" transform="translate(0)">
			<g id="Group_3-6">
				<path id="Path_1-6" class="st0" d="M13.8,26.1c-0.1-0.2-0.1-0.4-0.2-0.6c-0.9-2.6-1.8-5.1-4.6-5.8c-0.9-0.2-1.8-0.2-2.7,0
					l0.3,0.8c0.3,0.8,0.7,1.5,1.1,2.1l3.4,4.5L13.8,26.1z"/>
				<path id="Path_2-6" class="st0" d="M9.3,18.7c3.3,0.9,4.4,3.9,5.3,6.5c0.1,0.2,0.1,0.4,0.2,0.6l5.5-2l-0.9-2.3
					c0-0.1,0-0.1,0-0.2v-0.1c0,0,0,0,0-0.1l3.5-7.6c0.4-0.8,0.1-1.8-0.7-2.2c-0.8-0.4-1.8-0.1-2.2,0.7c0,0,0,0.1-0.1,0.1L19,14.6
					c-0.2,0.4-0.6,0.6-1,0.6s-0.8-0.3-1-0.7L12.9,3.1c-0.2-0.6-0.8-0.8-1.4-0.6c0,0,0,0-0.1,0c-0.5,0.3-0.7,0.9-0.5,1.4L13,9.7
					l0.6,1.6c0,0.1,0,0.1,0,0.2c0,0.3-0.3,0.5-0.6,0.5c-0.2,0-0.4-0.2-0.5-0.4L9.1,2.2C9,1.9,8.8,1.7,8.6,1.6C8.3,1.5,8,1.5,7.7,1.6
					C7.2,1.8,6.9,2.4,7.1,2.9l3.5,9.5c0.1,0.3,0,0.6-0.3,0.7l0,0c-0.1,0-0.1,0-0.2,0l0,0c0,0,0,0-0.1,0H9.9c0,0,0,0-0.1,0
					c0,0-0.1,0-0.1-0.1l0,0c0,0-0.1-0.1-0.1-0.2L6.8,5.3C6.6,4.7,6,4.4,5.4,4.6C4.9,4.8,4.6,5.4,4.8,6l1.3,3.5l2,5.6
					c0.1,0.3,0,0.6-0.3,0.7c-0.1,0-0.1,0-0.2,0l0,0l0,0H7.5c0,0,0,0-0.1,0c0,0-0.1,0-0.1-0.1l0,0c0,0-0.1-0.1-0.1-0.2l-2-5.6
					c-0.4-0.6-1-0.8-1.5-0.6c0,0,0,0-0.1,0c-0.5,0.3-0.7,0.9-0.5,1.4l2.9,8C7.1,18.4,8.2,18.4,9.3,18.7z"/>
				<path id="Path_3-6" class="st0" d="M19.2,11.6c0-0.1,0.1-0.2,0.2-0.3V4.7c0-0.6-0.5-1.1-1.1-1.1s-1.1,0.5-1.1,1.1v7l0.9,2.4
					L19.2,11.6z"/>
				<path id="Path_4-6" class="st0" d="M22.6,10.3V2.6c0-0.6-0.5-1.1-1.1-1.1s-1,0.5-1.1,1.1v7.8C21.1,10,21.9,10,22.6,10.3z"/>
				<path id="Path_5-6" class="st0" d="M26.4,28.1h-2.5c-0.2,0.5-0.5,0.8-1,1l-0.3,0.1h2.2c0.6,0,1.1,0.5,1.1,1.1l0,0v0.5
					c0,0.3-0.2,0.5-0.5,0.5s-0.5-0.2-0.5-0.5l0,0v-0.5h-5.2L15.1,32h11.3c0.3,0,0.5-0.2,0.5-0.5l0,0v-2.7
					C27,28.4,26.7,28.1,26.4,28.1L26.4,28.1z"/>
				<path id="Path_6-6" class="st0" d="M32,15.8L32,15.8c-0.6-0.6-1.7-0.6-2.3,0l-2,2c-0.4,0.4-1.1,0.4-1.5,0
					c-0.2-0.2-0.3-0.5-0.3-0.8V4.7c0-0.6-0.5-1.1-1.1-1.1h-0.1c-0.6,0.1-1,0.6-1,1.2v6.3c0.7,0.8,0.8,1.9,0.4,2.8l-3.4,7.4l0.8,2.2
					c0.7,0,1.3,0.4,1.5,1.1l0.9,2.5l0,0h2v-2.7c0-0.1,0-0.1,0-0.2S26,24.1,26,24l0,0l6-5.8C32.7,17.5,32.7,16.5,32,15.8z"/>
				<path id="Path_7-6" class="st0" d="M22.8,27.8c0.1-0.1,0.1-0.3,0-0.4L22,24.9c-0.1-0.2-0.3-0.4-0.5-0.4c-0.1,0-0.1,0-0.2,0
					l-10.1,3.7l-0.5,0.2L12,32l10.6-3.9C22.7,28.1,22.8,28,22.8,27.8z M21.4,28L21.4,28c-0.3,0.1-0.6,0-0.7-0.3l0,0l-0.2-0.5
					L12.9,30c-0.3,0.1-0.6,0-0.7-0.3c-0.1-0.3,0-0.6,0.3-0.7l0,0l7.6-2.8c0.6-0.2,1.2,0.1,1.4,0.6l0.2,0.5
					C21.8,27.6,21.6,27.9,21.4,28L21.4,28L21.4,28z"/>
			</g>
		</g>
	</g>
	<path id="Icon_metro-cross-15" class="st4" d="M208.6,564.9L208.6,564.9l-6-6l6-6l0,0c0.2-0.2,0.2-0.6,0-0.9l-2.8-2.9
		c-0.2-0.2-0.6-0.2-0.9,0l0,0l-6,6l-6-6l0,0c-0.2-0.2-0.6-0.2-0.9,0l-2.9,2.9c-0.2,0.2-0.2,0.6,0,0.9l0,0l6,6l-6,6l0,0
		c-0.2,0.2-0.2,0.6,0,0.9l2.9,2.9c0.2,0.2,0.6,0.2,0.9,0l0,0l6-6l6,6l0,0c0.2,0.2,0.6,0.2,0.9,0l2.8-2.8
		C208.8,565.5,208.8,565.1,208.6,564.9L208.6,564.9z"/>
	<g id="handgun-6" transform="translate(233.157 593.889)">
		<path id="Path_11-6" class="st0" d="M35.1,7V4.6H35V2.3h-0.1V1.5H34v0.8c0,0-22.4,0.2-26.4,0C7,2.3,3.6,2.6,7,7.9
			c0.9,1.6,0.7,3.6-0.6,5c-2.1,2.6-3.1,7.9-3.3,9.5H3v0.9h9.7v-1.8c-4.2,0.8,2.9-9,2.6-7.4c0.2,0.1,0.5,0.1,0.7,0.1h2.5
			c1.6,0,3.6-1.7,3.6-3.2c0-0.7-0.2-1.3-0.6-1.8H34l0.4-1.5H35L35.1,7h-0.2H35.1L35.1,7z M18.6,12.9H16c-0.2,0-0.4,0-0.5-0.1
			c0.1-0.9,0.3-1.6,0.3-2.3c0.2,0.8,0.7,1.4,1.4,1.8c0.1,0,0.1,0,0.2,0c0.3,0,0.5-0.2,0.5-0.5c0-0.2-0.1-0.4-0.3-0.5
			c-0.8-0.3-1-1.6-1-2.2H19c1,0.3,1.6,1.3,1.3,2.2C20.1,12.3,19.4,12.9,18.6,12.9L18.6,12.9z M31.5,7.7H19L21.2,7h10.3V7.7z"/>
	</g>
	<g id="Ellipse_4-4" transform="translate(288 544)">
		<ellipse class="st2" cx="16" cy="15" rx="13" ry="13.5"/>
		<ellipse class="st3" cx="16" cy="15" rx="11" ry="11.5"/>
	</g>
	<g class="st1">
		<path class="st0" d="M46,710.9v7.2c0,3.2-1.7,4.7-4.8,4.7c-1.6,0-3.2-0.4-4.2-1.2l1-1.8c0.7,0.6,1.9,1,3,1c1.8,0,2.5-0.8,2.5-2.4
			V718c-0.7,0.7-1.6,1.1-2.7,1.1c-2.4,0-4.3-1.6-4.3-4.2c0-2.5,1.9-4.2,4.3-4.2c1.2,0,2.2,0.4,2.8,1.2v-1.1H46z M43.6,714.9
			c0-1.3-0.9-2.1-2.3-2.1s-2.3,0.8-2.3,2.1s1,2.1,2.3,2.1S43.6,716.2,43.6,714.9z"/>
		<path class="st0" d="M48.4,707.6h2.5v11.9h-2.5V707.6z"/>
		<path class="st0" d="M52.5,715.2c0-2.6,2-4.4,4.7-4.4s4.7,1.8,4.7,4.4s-2,4.4-4.7,4.4S52.5,717.8,52.5,715.2z M59.5,715.2
			c0-1.5-0.9-2.4-2.2-2.4c-1.2,0-2.2,0.9-2.2,2.4s1,2.4,2.2,2.4C58.5,717.6,59.5,716.7,59.5,715.2z"/>
		<path class="st0" d="M72,710.9l-3.6,8.6h-2.6l-3.6-8.6h2.6l2.4,5.9l2.5-5.9H72z"/>
		<path class="st0" d="M81.1,715.9h-6.5c0.2,1.1,1.2,1.7,2.5,1.7c0.9,0,1.6-0.3,2.2-0.8l1.3,1.4c-0.8,0.9-2,1.4-3.6,1.4
			c-3,0-4.9-1.9-4.9-4.4c0-2.6,2-4.4,4.6-4.4c2.5,0,4.5,1.7,4.5,4.5C81.2,715.4,81.1,715.7,81.1,715.9z M74.6,714.4h4.2
			c-0.2-1.1-1-1.8-2.1-1.8C75.6,712.6,74.8,713.3,74.6,714.4z"/>
		<path class="st0" d="M82,718.7l0.8-1.8c0.8,0.5,1.9,0.8,3,0.8c1.2,0,1.6-0.3,1.6-0.8c0-1.4-5.2,0-5.2-3.4c0-1.6,1.5-2.8,4-2.8
			c1.2,0,2.5,0.3,3.3,0.8l-0.8,1.8c-0.8-0.5-1.7-0.6-2.5-0.6c-1.1,0-1.6,0.4-1.6,0.8c0,1.5,5.2,0,5.2,3.4c0,1.6-1.5,2.7-4.1,2.7
			C84.3,719.6,82.8,719.2,82,718.7z"/>
	</g>
	<path id="Icon_awesome-hand-paper-6" class="st0" d="M366.1,707.4c-1.3,0-2.3,1-2.3,2.3l0,0v5h-0.5v-10.1c0-1.3-1-2.3-2.3-2.3l0,0
		c-1.2,0-2.2,1-2.2,2.3v10.1h-0.5v-12.3c0-1.3-1-2.3-2.3-2.3l0,0c-1.2,0-2.2,1-2.2,2.3v12.4h-0.5v-10c0-1.3-1-2.3-2.3-2.3l0,0
		c-1.2,0-2.2,1-2.2,2.3v13.5l-1.8-2.5c-0.7-1-2.2-1.3-3.2-0.5c-1,0.7-1.3,2.2-0.5,3.2l7.2,9.9c0.5,0.7,1.3,1.1,2.2,1.1H364
		c1.3,0,2.4-0.9,2.7-2.1l1.5-6.5c0.2-0.8,0.3-1.7,0.3-2.5v-8.6C368.3,708.5,367.3,707.5,366.1,707.4z"/>
	<path id="Icon_awesome-hand-rock-7" class="st0" d="M313,706.3c-1.4,0-2.5,1.1-2.5,2.4l0,0h-0.4v-1.6c0-1.4-1.1-2.5-2.4-2.5
		c-1.4,0-2.5,1.1-2.5,2.4l0,0v1.6h-0.4v-2.4c0-1.4-1.1-2.5-2.4-2.5c-1.4,0-2.5,1.1-2.5,2.4l0,0v2.5h-0.4V707c0-1.4-1.1-2.5-2.4-2.5
		c-1.4,0-2.5,1.1-2.5,2.4l0,0v7l-0.4-0.4V711c0-1.4-1.1-2.5-2.4-2.5c-1.4,0-2.5,1.1-2.5,2.4l0,0v3.4c0,1.4,0.6,2.7,1.7,3.7l5.7,5.1
		c0.5,0.5,0.8,1.1,0.8,1.8v0.3c0,0.7,0.5,1.2,1.2,1.2l0,0H311c0.7,0,1.2-0.5,1.2-1.2l0,0V725c0-0.7,0.1-1.3,0.4-1.9l2.5-6
		c0.3-0.6,0.4-1.3,0.4-1.9v-6.9C315.5,707.4,314.4,706.3,313,706.3z"/>
	<line id="Line_3-5" class="st5" x1="119.4" y1="691.2" x2="384.7" y2="691.2"/>
	<line id="Line_2-10" class="st5" x1="172.3" y1="648.7" x2="172.3" y2="742.2"/>
	<line id="Line_2-11" class="st5" x1="327.9" y1="648.7" x2="327.9" y2="742.2"/>
	<path id="Icon_metro-cross-16" class="st4" d="M152.2,675L152.2,675l-6-6l6-6l0,0c0.2-0.2,0.2-0.6,0-0.9l-2.8-2.9
		c-0.2-0.2-0.6-0.2-0.9,0l0,0l-6,6l-6-6l0,0c-0.2-0.2-0.6-0.2-0.9,0l-2.9,2.9c-0.2,0.2-0.2,0.6,0,0.9l0,0l6,6l-6,6l0,0
		c-0.2,0.2-0.2,0.6,0,0.9l2.9,2.9c0.2,0.2,0.6,0.2,0.9,0l0,0l6-6l6,6l0,0c0.2,0.2,0.6,0.2,0.9,0l2.8-2.8
		C152.4,675.7,152.4,675.3,152.2,675L152.2,675z"/>
	<g id="Ellipse_3-5" transform="translate(342 655)">
		<circle class="st2" cx="14.5" cy="13" r="13.5"/>
		<circle class="st3" cx="14.5" cy="13" r="11.5"/>
	</g>
	<path id="Icon_metro-cross-17" class="st4" d="M208.6,675L208.6,675l-6-6l6-6l0,0c0.2-0.2,0.2-0.6,0-0.9l-2.8-2.9
		c-0.2-0.2-0.6-0.2-0.9,0l0,0l-6,6l-6-6l0,0c-0.2-0.2-0.6-0.2-0.9,0l-2.9,2.9c-0.2,0.2-0.2,0.6,0,0.9l0,0l6,6l-6,6l0,0
		c-0.2,0.2-0.2,0.6,0,0.9l2.9,2.9c0.2,0.2,0.6,0.2,0.9,0l0,0l6-6l6,6l0,0c0.2,0.2,0.6,0.2,0.9,0l2.8-2.8
		C208.8,675.7,208.8,675.3,208.6,675L208.6,675z"/>
	<g id="hammer-7" transform="translate(231.442 699.092)">
		<path id="Path_8-6" class="st0" d="M33.8,12.2c-0.3-0.3-0.9-0.3-1.3,0l0,0c-0.3,0.3-0.9,0.3-1.3,0c-0.3-0.3-0.3-0.9,0-1.3l0,0
			l-5,5c0.3-0.3,0.9-0.3,1.3,0c0.3,0.3,0.3,0.9,0,1.3c-0.3,0.3-0.3,0.9,0,1.3l0,0l1.3,1.3c0.3,0.3,0.9,0.3,1.3,0l0,0l5-5
			c0.3-0.3,0.3-0.9,0-1.3l0,0L33.8,12.2z"/>
		<path id="Path_9-6" class="st0" d="M21.9,10.3l3.8,3.8L30,9.7c0.3-0.3,0.3-0.9,0-1.3l0,0l-2.5-2.5C24.2,2.6,18.8,0.8,15,4.7
			C14.7,5,14.7,5.6,15,6c0.2,0.2,0.4,0.3,0.6,0.3c2.7,0,5.4,1,7.4,2.8c0.1,0.1,0.1,0.2,0,0.2L21.9,10.3z"/>
		<path id="Path_10-6" class="st0" d="M5.8,30.2c1,1,2.7,1,3.8,0l14.8-14.8l-3.8-3.8L5.8,26.4C4.7,27.5,4.7,29.1,5.8,30.2L5.8,30.2z
			"/>
	</g>
	<g id="handgun-7" transform="translate(178.724 704.039)">
		<path id="Path_11-7" class="st0" d="M35.1,7V4.6H35V2.3h-0.1V1.5H34v0.8c0,0-22.4,0.2-26.4,0C7,2.3,3.6,2.6,7,7.9
			c0.9,1.6,0.7,3.6-0.6,5c-2.1,2.6-3.1,7.9-3.3,9.5H3v0.9h9.7v-1.8c-4.2,0.8,2.9-9,2.6-7.4c0.2,0.1,0.5,0.1,0.7,0.1h2.5
			c1.6,0,3.6-1.7,3.6-3.2c0-0.7-0.2-1.3-0.6-1.8H34l0.4-1.5H35L35.1,7h-0.2H35.1L35.1,7z M18.6,12.9H16c-0.2,0-0.4,0-0.5-0.1
			c0.1-0.9,0.3-1.6,0.3-2.3c0.2,0.8,0.7,1.4,1.4,1.8c0.1,0,0.1,0,0.2,0c0.3,0,0.5-0.2,0.5-0.5c0-0.2-0.1-0.4-0.3-0.5
			c-0.8-0.3-1-1.6-1-2.2H19c1,0.3,1.6,1.3,1.3,2.2C20.1,12.3,19.4,12.9,18.6,12.9L18.6,12.9z M31.5,7.7H19L21.2,7h10.3V7.7z"/>
	</g>
	<g id="Path_50" transform="translate(288 654)">
		<path class="st2" d="M16,1.5C23.3,1.6,29.1,7.7,29,15c0.1,7.3-5.7,13.4-13,13.5C8.7,28.4,2.9,22.3,3,15C2.9,7.7,8.7,1.6,16,1.5z"
			/>
		<path class="st6" d="M16,5.5c-5,0-9,4.3-9,9.5s4,9.5,9,9.5s9-4.3,9-9.5S21,5.5,16,5.5 M16,1.5c7.2,0,13,6,13,13.5
			s-5.8,13.5-13,13.5S3,22.5,3,15S8.8,1.5,16,1.5z"/>
	</g>
	<g id="Ellipse_7" transform="translate(237 434)">
		<ellipse class="st2" cx="16.5" cy="14.5" rx="13.5" ry="13"/>
		<ellipse class="st3" cx="16.5" cy="14.5" rx="11.5" ry="11"/>
	</g>
	<path id="Icon_awesome-hand-peace-5" class="st0" d="M369,492.1c-1.2,0-2.1,1-2.1,2.1h-0.4v-1.7c0-1.2-1-2.1-2.1-2.1
		s-2.1,1-2.1,2.1v1.7h-0.4V483c0-1.4-1.2-2.6-2.6-2.5c-1.4,0-2.5,1.1-2.5,2.5v11.2h-0.7l-3.7-9.5c-0.5-1.3-2-2-3.3-1.5s-2,2-1.5,3.3
		l4,10.2l-1.7,1.3c-0.8,0.7-1,1.8-0.5,2.7l3.4,6c0.4,0.7,1.1,1.1,1.9,1.1h12.9c1,0,1.9-0.7,2.1-1.7l1.7-7.3c0-0.2,0.1-0.3,0.1-0.5
		V494C371.2,493,370.2,492.1,369,492.1L369,492.1z"/>
	<g id="Ellipse_8" transform="translate(237 545)">
		<circle class="st2" cx="16" cy="14.5" r="13"/>
		<circle class="st3" cx="16" cy="14.5" r="11"/>
	</g>
	<g id="hammer-8" transform="translate(46.287 543.939)">
		<path id="Path_8-7" class="st0" d="M47,16.4c-0.5-0.5-1.4-0.5-1.9,0l0,0c-0.5,0.5-1.4,0.5-1.9,0s-0.5-1.4,0-1.9l0,0l-7.7,7.7
			c0.5-0.5,1.4-0.5,1.9,0s0.5,1.4,0,1.9s-0.5,1.4,0,1.9l0,0l1.9,1.9c0.5,0.5,1.4,0.5,1.9,0l0,0l7.7-7.7c0.5-0.5,0.5-1.4,0-1.9l0,0
			L47,16.4z"/>
		<path id="Path_9-7" class="st0" d="M28.7,13.5l5.8,5.8l6.7-6.7c0.5-0.5,0.5-1.4,0-1.9l0,0l-3.8-3.8C32.3,1.8,24.1-0.9,18.2,5
			c-0.5,0.5-0.5,1.4,0,1.9c0.3,0.3,0.6,0.4,1,0.4c4.2,0,8.2,1.5,11.3,4.2c0.1,0.1,0.1,0.2,0,0.3L28.7,13.5z"/>
		<path id="Path_10-7" class="st0" d="M4.2,43.8c1.6,1.6,4.2,1.6,5.8,0l22.6-22.6l-5.8-5.8L4.2,38C2.6,39.6,2.6,42.2,4.2,43.8z"/>
	</g>
	<g id="gloves-8" transform="translate(38.144 647.772)">
		<g id="Group_4-7" transform="translate(0)">
			<g id="Group_3-7">
				<path id="Path_1-7" class="st0" d="M20.9,42.3c-0.1-0.3-0.2-0.6-0.3-1c-1.5-4.3-2.9-8.4-7.6-9.6c-1.5-0.4-3-0.4-4.5,0L9,33
					c0.5,1.3,1.1,2.4,1.9,3.5l5.6,7.4L20.9,42.3z"/>
				<path id="Path_2-7" class="st0" d="M13.5,30c5.5,1.4,7.3,6.4,8.8,10.8c0.1,0.3,0.2,0.6,0.3,0.9l9.2-3.3l-1.4-3.9
					c0-0.1-0.1-0.2-0.1-0.4c0-0.1,0-0.2,0.1-0.2v-0.1l5.8-12.5c0.6-1.3,0-2.9-1.3-3.5s-2.9,0-3.5,1.3l-1.9,4.1c-0.3,0.7-1,1.1-1.7,1
					c-0.7,0-1.4-0.5-1.6-1.2L19.3,4.1C19,3.2,18,2.7,17.1,3H17c-0.9,0.4-1.2,1.5-0.9,2.4l3.5,9.7l1,2.7c0,0.1,0.1,0.2,0.1,0.4
					c0,0.5-0.4,0.9-0.9,0.9c-0.4,0-0.7-0.3-0.8-0.6L13.1,2.7c-0.2-0.4-0.5-0.8-0.9-1s-0.9-0.2-1.4-0.1C9.9,1.9,9.5,3,9.8,3.9
					l5.7,15.8c0.2,0.5-0.1,1-0.5,1.2l0,0c-0.1,0-0.2,0.1-0.3,0.1l0,0h-0.1c-0.1,0-0.2,0-0.2-0.1h-0.1c-0.1,0-0.1-0.1-0.2-0.1
					c0,0,0,0-0.1-0.1s-0.1-0.2-0.2-0.3L9.3,7.7C9,6.8,7.9,6.3,7,6.7C6.1,7,5.6,8,6,8.9l2.1,5.9l3.3,9.2c0.2,0.5-0.1,1-0.5,1.2
					c-0.1,0-0.2,0.1-0.3,0.1l0,0c0,0,0,0-0.1,0s-0.2,0-0.2-0.1h-0.1C10.1,25.1,10,25,10,25s0,0-0.1-0.1s-0.1-0.2-0.2-0.3l-3.3-9.2
					c-0.3-0.9-1.4-1.4-2.3-1H4c-0.9,0.4-1.2,1.5-0.9,2.4L8,30C9.8,29.5,11.7,29.5,13.5,30z"/>
				<path id="Path_3-7" class="st0" d="M29.8,18.3c0.1-0.2,0.2-0.3,0.3-0.5v-11c0-1-0.9-1.8-1.8-1.8c-1,0-1.7,0.8-1.8,1.8v11.6
					l1.4,4L29.8,18.3z"/>
				<path id="Path_4-7" class="st0" d="M35.5,16V3.3c0-1-0.8-1.8-1.8-1.8s-1.8,0.8-1.8,1.8v12.9C33,15.6,34.3,15.5,35.5,16z"/>
				<path id="Path_5-7" class="st0" d="M41.8,45.6h-4.2c-0.3,0.8-0.9,1.4-1.6,1.6l-0.5,0.2h3.6c1,0,1.8,0.8,1.8,1.8v0.9
					c0,0.5-0.4,0.9-0.9,0.9s-0.9-0.4-0.9-0.9v-0.9h-8.5L23.1,52h18.7c0.5,0,0.9-0.4,0.9-0.9v-4.5C42.7,46,42.3,45.6,41.8,45.6z"/>
				<path id="Path_6-7" class="st0" d="M51.1,25.2L51.1,25.2c-1.1-1.1-2.8-1-3.8,0L44,28.5c-0.7,0.7-1.8,0.7-2.5,0
					c-0.3-0.3-0.5-0.8-0.5-1.3V6.8c0-1-0.8-1.8-1.8-1.8h-0.1c-1,0.1-1.7,1-1.7,1.9v10.4c1.1,1.3,1.3,3.1,0.6,4.7l-5.7,12.2l1.3,3.7
					c1.1,0,2.1,0.7,2.5,1.8l1.5,4.1l0,0h3.3v-4.4c0-0.1,0-0.2,0.1-0.3c0-0.1,0.1-0.2,0.2-0.3l0,0l10-9.7
					C52.1,28,52.1,26.3,51.1,25.2z"/>
				<path id="Path_7-7" class="st0" d="M35.9,45.1c0.1-0.2,0.1-0.5,0-0.7l-1.5-4.1c-0.1-0.4-0.5-0.6-0.8-0.6c-0.1,0-0.2,0-0.3,0.1
					l-16.7,6.1l-0.8,0.3l2.1,5.8l17.5-6.4C35.6,45.5,35.8,45.3,35.9,45.1z M33.4,45.4L33.4,45.4c-0.5,0.2-1-0.1-1.2-0.5l0,0L32,44
					l-12.5,4.6c-0.5,0.2-1-0.1-1.2-0.5c-0.2-0.5,0.1-1,0.5-1.2l12.5-4.6c0.9-0.3,2,0.1,2.3,1.1l0.3,0.8
					C34.1,44.7,33.9,45.2,33.4,45.4L33.4,45.4z"/>
			</g>
		</g>
	</g>
	<path id="Icon_awesome-hand-peace-6" class="st0" d="M150.9,713.2c-1.2,0-2.1,1-2.1,2.1h-0.4v-1.7c0-1.2-1-2.1-2.1-2.1
		s-2.1,1-2.1,2.1v1.7h-0.4v-11.2c0-1.4-1.2-2.6-2.6-2.5c-1.4,0-2.5,1.1-2.5,2.5v11.2H138l-3.7-9.5c-0.5-1.3-2-2-3.3-1.5
		s-2,2-1.5,3.3l4,10.2l-1.7,1.3c-0.8,0.7-1,1.8-0.5,2.7l3.4,6c0.4,0.7,1.1,1.1,1.9,1.1h12.9c1,0,1.9-0.7,2.1-1.7l1.7-7.3
		c0-0.2,0.1-0.3,0.1-0.5v-4.3C153,714.2,152.1,713.2,150.9,713.2L150.9,713.2z"/>
	<path id="Icon_awesome-hand-peace-7" class="st0" d="M313.7,603.1c-1.2,0-2.1,1-2.1,2.1h-0.4v-1.7c0-1.2-1-2.1-2.1-2.1
		s-2.1,1-2.1,2.1v1.7h-0.4V594c0-1.4-1.2-2.6-2.6-2.5c-1.4,0-2.5,1.1-2.5,2.5v11.2h-0.7l-3.7-9.5c-0.5-1.3-2-2-3.3-1.5s-2,2-1.5,3.3
		l4,10.2l-1.7,1.3c-0.8,0.7-1,1.8-0.5,2.7l3.4,6c0.4,0.7,1.1,1.1,1.9,1.1H312c1,0,1.9-0.7,2.1-1.7l1.7-7.3c0-0.2,0.1-0.3,0.1-0.5
		V605C315.9,604.1,314.9,603.1,313.7,603.1L313.7,603.1z"/>
	<g id="Group_29" transform="translate(224.105 99.5)">
		<line id="Line_20" class="st5" x1="3" y1="2.7" x2="3" y2="86.3"/>
		<line id="Line_21" class="st5" x1="55.3" y1="1.5" x2="55.3" y2="85.1"/>
	</g>
	<g id="Group_30" transform="translate(224.105 208.793)">
		<line id="Line_20-2" class="st5" x1="3" y1="2.7" x2="3" y2="85.3"/>
		<line id="Line_21-2" class="st5" x1="55.3" y1="1.5" x2="55.3" y2="84.1"/>
		<line id="Line_33" class="st5" x1="105.3" y1="2.5" x2="105.3" y2="85.1"/>
	</g>
	<g id="Group_31" transform="translate(224.105 318.085)">
		<line id="Line_20-3" class="st5" x1="3" y1="2.7" x2="3" y2="84.3"/>
		<line id="Line_21-3" class="st5" x1="55.3" y1="1.5" x2="55.3" y2="83"/>
	</g>
	<g id="Group_32" transform="translate(224.105 427.378)">
		<line id="Line_20-4" class="st5" x1="3" y1="2.7" x2="3" y2="83.3"/>
		<line id="Line_21-4" class="st5" x1="55.3" y1="1.5" x2="55.3" y2="82"/>
	</g>
	<g id="Group_33" transform="translate(224.105 537.099)">
		<line id="Line_20-5" class="st5" x1="3" y1="2.7" x2="3" y2="85.4"/>
		<line id="Line_21-5" class="st5" x1="55.3" y1="1.5" x2="55.3" y2="84.1"/>
	</g>
	<g id="Group_34" transform="translate(224.105 647.249)">
		<line id="Line_20-6" class="st5" x1="3" y1="2.7" x2="3" y2="95"/>
		<line id="Line_21-6" class="st5" x1="55.3" y1="1.5" x2="55.3" y2="93.7"/>
	</g>
	<g id="Path_50_1_" transform="translate(288 654)">
		<path class="st2" d="M-35,1.5c7.3,0.1,13.1,6.2,13,13.5c0.1,7.3-5.7,13.4-13,13.5c-7.3-0.1-13.1-6.2-13-13.5
			C-48.1,7.7-42.3,1.6-35,1.5z"/>
		<path class="st6" d="M-35,5.5c-5,0-9,4.3-9,9.5s4,9.5,9,9.5s9-4.3,9-9.5S-30,5.5-35,5.5 M-35,1.5c7.2,0,13,6,13,13.5
			s-5.8,13.5-13,13.5s-13-6-13-13.5S-42.2,1.5-35,1.5z"/>
	</g>
	<g id="Ellipse_2_1_" transform="translate(288 107)">
		<ellipse class="st2" cx="67" cy="14" rx="13" ry="13.5"/>
		<ellipse class="st3" cx="67" cy="14" rx="11" ry="11.5"/>
	</g>
</g>
</svg>
