<?xml version="1.0" encoding="utf-8"?>
<!-- Generator: Adobe Illustrator 23.0.1, SVG Export Plug-In . SVG Version: 6.00 Build 0)  -->
<svg version="1.1" id="Layer_1" xmlns="http://www.w3.org/2000/svg" xmlns:xlink="http://www.w3.org/1999/xlink" x="0px" y="0px"
	 viewBox="0 0 150 55" style="enable-background:new 0 0 150 55;" xml:space="preserve">
<style type="text/css">
	.st0{fill:#5C5C5C;}
	.st1{fill:none;stroke:#707070;stroke-width:2;}
</style>
<g id="Group_37" transform="translate(-7250.902 -865.315)">
	<path id="Path_23" class="st0" d="M7313.8,890.1c-0.2-0.2-0.5-0.2-0.7,0l0,0c-0.2,0.2-0.5,0.2-0.7,0c-0.2-0.2-0.2-0.5,0-0.7
		l-3.1,3.1c0.2-0.2,0.5-0.2,0.7,0s0.2,0.5,0,0.7c-0.2,0.2-0.2,0.5,0,0.7l0,0l0.7,0.7c0.2,0.2,0.5,0.2,0.7,0l0,0l3.1-3.1
		c0.2-0.2,0.2-0.5,0-0.7l0,0L7313.8,890.1z"/>
	<path id="Path_24" class="st0" d="M7306.6,888.9l2.3,2.3l2.7-2.7c0.2-0.2,0.2-0.5,0-0.7l0,0l-1.5-1.5c-2.1-2.1-5.3-3.1-7.6-0.7
		c-0.2,0.2-0.2,0.5,0,0.7c0.1,0.1,0.2,0.2,0.4,0.2c1.7,0,3.3,0.6,4.5,1.7v0.1L7306.6,888.9z"/>
	<path id="Path_25" class="st0" d="M7296.8,901c0.6,0.6,1.7,0.6,2.3,0l9-9l-2.3-2.3l-9,9C7296.2,899.4,7296.2,900.4,7296.8,901
		L7296.8,901z"/>
	<g id="Group_18" transform="translate(7250.902 881.916)">
		<g id="Group_3">
			<path id="Path_1" class="st0" d="M7.6,16.5c0-0.1-0.1-0.2-0.1-0.3c-0.5-1.5-1-3.1-2.8-3.5c-0.5-0.1-1.1-0.1-1.7,0l0.2,0.4
				C3.5,13.5,3.7,14,4,14.4L6.1,17L7.6,16.5z"/>
			<path id="Path_2" class="st0" d="M4.8,12c2.1,0.5,2.7,2.4,3.2,3.9c0,0.1,0.1,0.2,0.1,0.3l3.4-1.2l-0.4-1.3v-0.1v-0.1l0,0l2.2-4.6
				c0.2-0.5,0-1-0.5-1.3c-0.5-0.2-1,0-1.3,0.5l-0.7,1.5c-0.1,0.2-0.3,0.4-0.6,0.4S9.6,9.7,9.5,9.5L6.9,2.6C6.8,2.3,6.4,2.1,6.1,2.2
				l0,0C5.8,2.4,5.6,2.7,5.8,3l1.3,3.5l0.4,1v0.1C7.5,7.9,7.3,8,7.2,8S7,7.9,6.9,7.8L4.8,2C4.7,1.8,4.6,1.7,4.5,1.6
				C4.3,1.5,4.2,1.5,4,1.6C3.7,1.7,3.5,2.1,3.6,2.4l2.1,5.8c0.1,0.2,0,0.3-0.2,0.4H5.3l0,0l0,0H5.2l0,0c0,0,0,0-0.1,0l0,0
				c0,0,0-0.1-0.1-0.1L3.4,3.8C3.3,3.5,2.9,3.3,2.5,3.4S2,3.9,2.1,4.2l0.7,2.2l1.2,3.4c0.1,0.2,0,0.4-0.2,0.4H3.8l0,0l0,0H3.7l0,0
				c0,0,0,0-0.1,0l0,0c0,0,0-0.1-0.1-0.1L2.2,6.7C2.1,6.4,1.7,6.2,1.4,6.3l0,0C1.1,6.4,0.9,6.8,1,7.1L2.8,12
				C3.5,11.9,4.2,11.9,4.8,12z"/>
			<path id="Path_3" class="st0" d="M10.8,7.8c0-0.1,0.1-0.1,0.1-0.2v-4c0-0.4-0.3-0.6-0.7-0.6c-0.3,0-0.6,0.3-0.6,0.6v4.2l0.5,1.4
				L10.8,7.8z"/>
			<path id="Path_4" class="st0" d="M13,6.9V2.3c0-0.4-0.3-0.6-0.6-0.6c-0.4,0-0.6,0.3-0.6,0.6V7C12,6.7,12.6,6.7,13,6.9z"/>
			<path id="Path_5" class="st0" d="M15.2,17.8h-1.5c-0.1,0.3-0.3,0.5-0.6,0.6l-0.2,0.1h1.3c0.4,0,0.6,0.3,0.6,0.6v0.3
				c0,0.2-0.2,0.3-0.3,0.3c-0.2,0-0.3-0.1-0.3-0.3v-0.3h-3.1l-2.8,1h6.9c0.2,0,0.3-0.1,0.3-0.3v-1.7C15.6,18,15.5,17.8,15.2,17.8z"
				/>
			<path id="Path_6" class="st0" d="M18.7,10.2L18.7,10.2c-0.4-0.4-1-0.4-1.4,0L16,11.5c-0.2,0.3-0.7,0.3-0.9,0
				c-0.1-0.1-0.2-0.3-0.2-0.5V3.4c0-0.4-0.3-0.6-0.6-0.6l0,0c-0.3,0-0.6,0.3-0.6,0.7v3.8c0.4,0.5,0.5,1.1,0.2,1.8l-2.1,4.4l0.5,1.3
				c0.4,0,0.8,0.3,0.9,0.6l0.5,1.5l0,0h1.2v-1.7v-0.1c0,0,0-0.1,0.1-0.1l0,0l3.6-3.5C19.1,11.3,19.1,10.6,18.7,10.2z"/>
			<path id="Path_7" class="st0" d="M13.1,17.6c0-0.1,0-0.2,0-0.2l-0.5-1.5c0-0.1-0.2-0.2-0.3-0.2h-0.1L6,17.9L5.6,18l0.8,2.2
				l6.4-2.4C13,17.8,13.1,17.7,13.1,17.6z M12.2,17.7L12.2,17.7c-0.2,0.1-0.3,0-0.4-0.2l-0.1-0.3L7,18.8c-0.2,0.1-0.4,0-0.4-0.2
				c-0.1-0.2,0-0.4,0.2-0.4l0,0l4.6-1.7c0.3-0.1,0.7,0.1,0.8,0.4l0.1,0.3C12.5,17.5,12.4,17.7,12.2,17.7L12.2,17.7z"/>
		</g>
	</g>
	<path id="Path_26" class="st0" d="M7294,890.2v-1.4h-0.1v-1.3h-0.1v-0.5h-0.5v0.5c0,0-13.6,0.1-16.1,0c-0.4,0-2.5,0.2-0.3,3.4
		c0.5,1,0.4,2.2-0.3,3.1c-1.2,1.5-1.9,4.7-2,5.8l0,0v0.6h5.9v-1.1c-2.6,0.5,1.8-5.5,1.5-4.4c0.1,0,0.3,0.1,0.4,0.1h1.5
		c0.9,0,2.2-1,2.2-2c0-0.4-0.1-0.8-0.4-1.1h7.6l0.2-0.9h0.3L7294,890.2L7294,890.2L7294,890.2L7294,890.2z M7283.9,893.8h-1.5
		c-0.1,0-0.2,0-0.3,0c0.1-0.5,0.2-1,0.2-1.3c0.1,0.5,0.4,0.8,0.9,1h0.1c0.2,0,0.3-0.1,0.3-0.3c0-0.1-0.1-0.2-0.2-0.3
		c-0.5-0.2-0.6-0.9-0.6-1.3h1.4c0.6,0.1,0.9,0.7,0.8,1.3S7284.4,893.8,7283.9,893.8z M7291.9,890.7h-7.6l1.3-0.4h6.3V890.7z"/>
	<path id="Path_27" class="st0" d="M7313.8,890.1c-0.2-0.2-0.5-0.2-0.7,0l0,0c-0.2,0.2-0.5,0.2-0.7,0c-0.2-0.2-0.2-0.5,0-0.7
		l-3.1,3.1c0.2-0.2,0.5-0.2,0.7,0s0.2,0.5,0,0.7c-0.2,0.2-0.2,0.5,0,0.7l0,0l0.7,0.7c0.2,0.2,0.5,0.2,0.7,0l0,0l3.1-3.1
		c0.2-0.2,0.2-0.5,0-0.7l0,0L7313.8,890.1z"/>
	<path id="Path_28" class="st0" d="M7296.8,901c0.6,0.6,1.7,0.6,2.3,0l9-9l-2.3-2.3l-9,9C7296.2,899.4,7296.2,900.4,7296.8,901
		L7296.8,901z"/>
	<g id="Group_19" transform="translate(7250.902 881.916)">
		<g id="Group_3-2">
			<path id="Path_1-2" class="st0" d="M7.6,16.5c0-0.1-0.1-0.2-0.1-0.3c-0.5-1.5-1-3.1-2.8-3.5c-0.5-0.1-1.1-0.1-1.7,0l0.2,0.4
				C3.5,13.5,3.7,14,4,14.4L6.1,17L7.6,16.5z"/>
			<path id="Path_2-2" class="st0" d="M4.8,12c2.1,0.5,2.7,2.4,3.2,3.9c0,0.1,0.1,0.2,0.1,0.3l3.4-1.2l-0.4-1.3v-0.1v-0.1l0,0
				l2.2-4.6c0.2-0.5,0-1-0.5-1.3c-0.5-0.2-1,0-1.3,0.5l-0.7,1.5c-0.1,0.2-0.3,0.4-0.6,0.4S9.6,9.7,9.5,9.5L6.9,2.6
				C6.8,2.3,6.4,2.1,6.1,2.2l0,0C5.8,2.4,5.6,2.7,5.8,3l1.3,3.5l0.4,1v0.1C7.5,7.9,7.3,8,7.2,8S7,7.9,6.9,7.8L4.8,2
				C4.7,1.8,4.6,1.7,4.5,1.6C4.3,1.5,4.2,1.5,4,1.6C3.7,1.7,3.5,2.1,3.6,2.4l2.1,5.8c0.1,0.2,0,0.3-0.2,0.4H5.3l0,0l0,0H5.2l0,0
				c0,0,0,0-0.1,0l0,0c0,0,0-0.1-0.1-0.1L3.4,3.8C3.3,3.5,2.9,3.3,2.5,3.4S2,3.9,2.1,4.2l0.7,2.2l1.2,3.4c0.1,0.2,0,0.4-0.2,0.4H3.8
				l0,0l0,0H3.7l0,0c0,0,0,0-0.1,0l0,0c0,0,0-0.1-0.1-0.1L2.2,6.7C2.1,6.4,1.7,6.2,1.4,6.3l0,0C1.1,6.4,0.9,6.8,1,7.1L2.8,12
				C3.5,11.9,4.2,11.9,4.8,12z"/>
			<path id="Path_3-2" class="st0" d="M10.8,7.8c0-0.1,0.1-0.1,0.1-0.2v-4c0-0.4-0.3-0.6-0.7-0.6c-0.3,0-0.6,0.3-0.6,0.6v4.2
				l0.5,1.4L10.8,7.8z"/>
			<path id="Path_4-2" class="st0" d="M13,6.9V2.3c0-0.4-0.3-0.6-0.6-0.6c-0.4,0-0.6,0.3-0.6,0.6V7C12,6.7,12.6,6.7,13,6.9z"/>
			<path id="Path_5-2" class="st0" d="M15.2,17.8h-1.5c-0.1,0.3-0.3,0.5-0.6,0.6l-0.2,0.1h1.3c0.4,0,0.6,0.3,0.6,0.6v0.3
				c0,0.2-0.2,0.3-0.3,0.3c-0.2,0-0.3-0.1-0.3-0.3v-0.3h-3.1l-2.8,1h6.9c0.2,0,0.3-0.1,0.3-0.3v-1.7C15.6,18,15.5,17.8,15.2,17.8z"
				/>
			<path id="Path_6-2" class="st0" d="M18.7,10.2L18.7,10.2c-0.4-0.4-1-0.4-1.4,0L16,11.5c-0.2,0.3-0.7,0.3-0.9,0
				c-0.1-0.1-0.2-0.3-0.2-0.5V3.4c0-0.4-0.3-0.6-0.6-0.6l0,0c-0.3,0-0.6,0.3-0.6,0.7v3.8c0.4,0.5,0.5,1.1,0.2,1.8l-2.1,4.4l0.5,1.3
				c0.4,0,0.8,0.3,0.9,0.6l0.5,1.5l0,0h1.2v-1.7v-0.1c0,0,0-0.1,0.1-0.1l0,0l3.6-3.5C19.1,11.3,19.1,10.6,18.7,10.2z"/>
			<path id="Path_7-2" class="st0" d="M13.1,17.6c0-0.1,0-0.2,0-0.2l-0.5-1.5c0-0.1-0.2-0.2-0.3-0.2h-0.1L6,17.9L5.6,18l0.8,2.2
				l6.4-2.4C13,17.8,13.1,17.7,13.1,17.6z M12.2,17.7L12.2,17.7c-0.2,0.1-0.3,0-0.4-0.2l-0.1-0.3L7,18.8c-0.2,0.1-0.4,0-0.4-0.2
				c-0.1-0.2,0-0.4,0.2-0.4l0,0l4.6-1.7c0.3-0.1,0.7,0.1,0.8,0.4l0.1,0.3C12.5,17.5,12.4,17.7,12.2,17.7L12.2,17.7z"/>
		</g>
	</g>
	<path id="Path_29" class="st0" d="M7294,890.2v-1.4h-0.1v-1.3h-0.1v-0.5h-0.5v0.5c0,0-13.6,0.1-16.1,0c-0.4,0-2.5,0.2-0.3,3.4
		c0.5,1,0.4,2.2-0.3,3.1c-1.2,1.5-1.9,4.7-2,5.8l0,0v0.6h5.9v-1.1c-2.6,0.5,1.8-5.5,1.5-4.4c0.1,0,0.3,0.1,0.4,0.1h1.5
		c0.9,0,2.2-1,2.2-2c0-0.4-0.1-0.8-0.4-1.1h7.6l0.2-0.9h0.3L7294,890.2L7294,890.2L7294,890.2L7294,890.2z M7283.9,893.8h-1.5
		c-0.1,0-0.2,0-0.3,0c0.1-0.5,0.2-1,0.2-1.3c0.1,0.5,0.4,0.8,0.9,1h0.1c0.2,0,0.3-0.1,0.3-0.3c0-0.1-0.1-0.2-0.2-0.3
		c-0.5-0.2-0.6-0.9-0.6-1.3h1.4c0.6,0.1,0.9,0.7,0.8,1.3S7284.4,893.8,7283.9,893.8z M7291.9,890.7h-7.6l1.3-0.4h6.3V890.7z"/>
</g>
<line id="Line_27" class="st1" x1="74.9" y1="10" x2="74.9" y2="45"/>
<g id="Group_38" transform="translate(-7069.902 -865.315)">
	<path id="Path_23-2" class="st0" d="M7217.7,890.1c-0.2-0.2-0.5-0.2-0.7,0l0,0c-0.2,0.2-0.5,0.2-0.7,0c-0.2-0.2-0.2-0.5,0-0.7
		l-3.1,3.1c0.2-0.2,0.5-0.2,0.7,0s0.2,0.5,0,0.7c-0.2,0.2-0.2,0.5,0,0.7l0,0l0.7,0.7c0.2,0.2,0.5,0.2,0.7,0l0,0l3.1-3.1
		c0.2-0.2,0.2-0.5,0-0.7l0,0L7217.7,890.1z"/>
	<path id="Path_24-2" class="st0" d="M7210.5,888.9l2.3,2.3l2.7-2.7c0.2-0.2,0.2-0.5,0-0.7l0,0l-1.5-1.5c-2.1-2.1-5.3-3.1-7.6-0.7
		c-0.2,0.2-0.2,0.5,0,0.7c0.1,0.1,0.2,0.2,0.4,0.2c1.7,0,3.3,0.6,4.5,1.7v0.1L7210.5,888.9z"/>
	<path id="Path_25-2" class="st0" d="M7200.7,901c0.6,0.6,1.7,0.6,2.3,0l9-9l-2.3-2.3l-9,9C7200,899.4,7200,900.4,7200.7,901
		L7200.7,901z"/>
	<g id="Group_18-2" transform="translate(7250.902 881.916)">
		<g id="Group_3-3">
			<path id="Path_1-3" class="st0" d="M-88.5,16.5c0-0.1-0.1-0.2-0.1-0.3c-0.5-1.5-1-3.1-2.8-3.5c-0.5-0.1-1.1-0.1-1.7,0l0.2,0.4
				c0.2,0.4,0.4,0.9,0.7,1.2l2.1,2.7L-88.5,16.5z"/>
			<path id="Path_2-3" class="st0" d="M-91.3,12c2.1,0.5,2.7,2.4,3.2,3.9c0,0.1,0.1,0.2,0.1,0.3l3.4-1.2l-0.5-1.4v-0.1v-0.1l0,0
				l2.2-4.6c0.2-0.5,0-1-0.5-1.3c-0.5-0.2-1,0-1.3,0.5l-0.7,1.5c-0.1,0.2-0.3,0.4-0.6,0.4c-0.3,0-0.5-0.2-0.6-0.4l-2.6-6.9
				c-0.1-0.3-0.5-0.5-0.8-0.4l0,0c-0.3,0.2-0.4,0.5-0.3,0.8l1.3,3.5l0.4,1v0.1c0,0.2-0.2,0.3-0.3,0.3s-0.2-0.1-0.3-0.2l-2.1-5.8
				c-0.1-0.2-0.2-0.3-0.3-0.4c-0.2-0.1-0.3-0.1-0.5,0c-0.3,0.1-0.5,0.5-0.4,0.8l2.1,5.8c0.1,0.2,0,0.3-0.2,0.4h-0.1l0,0l0,0H-91l0,0
				c0,0,0,0-0.1,0l0,0c0,0,0-0.1-0.1-0.1l-1.7-4.6c-0.1-0.3-0.5-0.5-0.8-0.4c-0.3,0.1-0.5,0.5-0.4,0.8l0.8,2.2l1.2,3.4
				c0.1,0.2,0,0.4-0.2,0.4h-0.1l0,0l0,0h-0.1l0,0c0,0,0,0-0.1,0l0,0c0,0,0-0.1-0.1-0.1l-1.2-3.4c-0.1-0.3-0.5-0.5-0.8-0.4l0,0
				C-95,6.4-95.2,6.7-95,7l1.8,4.9C-92.7,11.9-92,11.9-91.3,12z"/>
			<path id="Path_3-3" class="st0" d="M-85.3,7.8c0-0.1,0.1-0.1,0.1-0.2v-4c0-0.4-0.3-0.6-0.7-0.6c-0.3,0-0.6,0.3-0.6,0.6v4.2
				l0.5,1.4L-85.3,7.8z"/>
			<path id="Path_4-3" class="st0" d="M-83.2,6.9V2.3c0-0.4-0.3-0.6-0.6-0.6c-0.4,0-0.6,0.3-0.6,0.6V7C-84.1,6.7-83.7,6.7-83.2,6.9z
				"/>
			<path id="Path_5-3" class="st0" d="M-80.9,17.8h-1.5c-0.1,0.3-0.3,0.5-0.6,0.6l-0.2,0.1h1.3c0.4,0,0.6,0.3,0.6,0.6v0.3
				c0,0.2-0.2,0.3-0.3,0.3c-0.2,0-0.3-0.1-0.3-0.3v-0.3H-85l-2.8,1h6.9c0.2,0,0.3-0.1,0.3-0.3v-1.7C-80.6,18-80.7,17.8-80.9,17.8z"
				/>
			<path id="Path_6-3" class="st0" d="M-77.5,10.2L-77.5,10.2c-0.4-0.4-1-0.4-1.4,0l-1.2,1.2c-0.2,0.3-0.7,0.3-0.9,0
				c-0.1-0.1-0.2-0.3-0.2-0.5V3.4c0-0.4-0.3-0.6-0.6-0.6l0,0c-0.3,0-0.6,0.3-0.6,0.7v3.8c0.4,0.5,0.5,1.1,0.2,1.8l-2.1,4.4l0.5,1.3
				c0.4,0,0.8,0.3,0.9,0.6l0.5,1.5l0,0h1.2v-1.7v-0.1c0,0,0-0.1,0.1-0.1l0,0l3.6-3.5C-77.1,11.3-77.1,10.6-77.5,10.2z"/>
			<path id="Path_7-3" class="st0" d="M-83.1,17.6c0-0.1,0-0.2,0-0.2l-0.5-1.5c0-0.1-0.2-0.2-0.3-0.2H-84l-6.2,2.3l-0.3,0.1l0.8,2.2
				l6.4-2.4C-83.2,17.8-83.1,17.7-83.1,17.6z M-84,17.7L-84,17.7c-0.2,0.1-0.3,0-0.4-0.2l-0.1-0.3l-4.6,1.7c-0.2,0.1-0.4,0-0.4-0.2
				c-0.1-0.2,0-0.4,0.2-0.4l0,0l4.6-1.7c0.3-0.1,0.7,0.1,0.8,0.4l0.1,0.3C-83.7,17.5-83.8,17.7-84,17.7L-84,17.7z"/>
		</g>
	</g>
	<path id="Path_26-2" class="st0" d="M7197.9,890.2v-1.4h-0.1v-1.3h-0.1v-0.5h-0.5v0.5c0,0-13.6,0.1-16.1,0c-0.4,0-2.5,0.2-0.3,3.4
		c0.5,1,0.4,2.2-0.3,3.1c-1.2,1.5-1.9,4.7-2,5.8l0,0v0.6h5.9v-1.1c-2.6,0.5,1.8-5.5,1.5-4.4c0.1,0,0.3,0.1,0.4,0.1h1.5
		c0.9,0,2.2-1,2.2-2c0-0.4-0.1-0.8-0.4-1.1h7.6l0.2-0.9h0.3L7197.9,890.2L7197.9,890.2L7197.9,890.2L7197.9,890.2z M7187.8,893.8
		h-1.5c-0.1,0-0.2,0-0.3,0c0.1-0.5,0.2-1,0.2-1.3c0.1,0.5,0.4,0.8,0.9,1h0.1c0.2,0,0.3-0.1,0.3-0.3c0-0.1-0.1-0.2-0.2-0.3
		c-0.5-0.2-0.6-0.9-0.6-1.3h1.4c0.6,0.1,0.9,0.7,0.8,1.3S7188.3,893.8,7187.8,893.8z M7195.7,890.7h-7.6l1.3-0.4h6.3V890.7z"/>
	<path id="Path_27-2" class="st0" d="M7217.7,890.1c-0.2-0.2-0.5-0.2-0.7,0l0,0c-0.2,0.2-0.5,0.2-0.7,0c-0.2-0.2-0.2-0.5,0-0.7
		l-3.1,3.1c0.2-0.2,0.5-0.2,0.7,0s0.2,0.5,0,0.7c-0.2,0.2-0.2,0.5,0,0.7l0,0l0.7,0.7c0.2,0.2,0.5,0.2,0.7,0l0,0l3.1-3.1
		c0.2-0.2,0.2-0.5,0-0.7l0,0L7217.7,890.1z"/>
	<path id="Path_28-2" class="st0" d="M7200.7,901c0.6,0.6,1.7,0.6,2.3,0l9-9l-2.3-2.3l-9,9C7200,899.4,7200,900.4,7200.7,901
		L7200.7,901z"/>
	<g id="Group_19-2" transform="translate(7250.902 881.916)">
		<g id="Group_3-4">
			<path id="Path_1-4" class="st0" d="M-88.5,16.5c0-0.1-0.1-0.2-0.1-0.3c-0.5-1.5-1-3.1-2.8-3.5c-0.5-0.1-1.1-0.1-1.7,0l0.2,0.4
				c0.2,0.4,0.4,0.9,0.7,1.2l2.1,2.7L-88.5,16.5z"/>
			<path id="Path_2-4" class="st0" d="M-91.3,12c2.1,0.5,2.7,2.4,3.2,3.9c0,0.1,0.1,0.2,0.1,0.3l3.4-1.2l-0.5-1.4v-0.1v-0.1l0,0
				l2.2-4.6c0.2-0.5,0-1-0.5-1.3c-0.5-0.2-1,0-1.3,0.5l-0.7,1.5c-0.1,0.2-0.3,0.4-0.6,0.4c-0.3,0-0.5-0.2-0.6-0.4l-2.6-6.9
				c-0.1-0.3-0.5-0.5-0.8-0.4l0,0c-0.3,0.2-0.4,0.5-0.3,0.8l1.3,3.5l0.4,1v0.1c0,0.2-0.2,0.3-0.3,0.3s-0.2-0.1-0.3-0.2l-2.1-5.8
				c-0.1-0.2-0.2-0.3-0.3-0.4c-0.2-0.1-0.3-0.1-0.5,0c-0.3,0.1-0.5,0.5-0.4,0.8l2.1,5.8c0.1,0.2,0,0.3-0.2,0.4h-0.1l0,0l0,0H-91l0,0
				c0,0,0,0-0.1,0l0,0c0,0,0-0.1-0.1-0.1l-1.7-4.6c-0.1-0.3-0.5-0.5-0.8-0.4c-0.3,0.1-0.5,0.5-0.4,0.8l0.8,2.2l1.2,3.4
				c0.1,0.2,0,0.4-0.2,0.4h-0.1l0,0l0,0h-0.1l0,0c0,0,0,0-0.1,0l0,0c0,0,0-0.1-0.1-0.1l-1.2-3.4c-0.1-0.3-0.5-0.5-0.8-0.4l0,0
				C-95,6.4-95.2,6.7-95,7l1.8,4.9C-92.7,11.9-92,11.9-91.3,12z"/>
			<path id="Path_3-4" class="st0" d="M-85.3,7.8c0-0.1,0.1-0.1,0.1-0.2v-4c0-0.4-0.3-0.6-0.7-0.6c-0.3,0-0.6,0.3-0.6,0.6v4.2
				l0.5,1.4L-85.3,7.8z"/>
			<path id="Path_4-4" class="st0" d="M-83.2,6.9V2.3c0-0.4-0.3-0.6-0.6-0.6c-0.4,0-0.6,0.3-0.6,0.6V7C-84.1,6.7-83.7,6.7-83.2,6.9z
				"/>
			<path id="Path_5-4" class="st0" d="M-80.9,17.8h-1.5c-0.1,0.3-0.3,0.5-0.6,0.6l-0.2,0.1h1.3c0.4,0,0.6,0.3,0.6,0.6v0.3
				c0,0.2-0.2,0.3-0.3,0.3c-0.2,0-0.3-0.1-0.3-0.3v-0.3H-85l-2.8,1h6.9c0.2,0,0.3-0.1,0.3-0.3v-1.7C-80.6,18-80.7,17.8-80.9,17.8z"
				/>
			<path id="Path_6-4" class="st0" d="M-77.5,10.2L-77.5,10.2c-0.4-0.4-1-0.4-1.4,0l-1.2,1.2c-0.2,0.3-0.7,0.3-0.9,0
				c-0.1-0.1-0.2-0.3-0.2-0.5V3.4c0-0.4-0.3-0.6-0.6-0.6l0,0c-0.3,0-0.6,0.3-0.6,0.7v3.8c0.4,0.5,0.5,1.1,0.2,1.8l-2.1,4.4l0.5,1.3
				c0.4,0,0.8,0.3,0.9,0.6l0.5,1.5l0,0h1.2v-1.7v-0.1c0,0,0-0.1,0.1-0.1l0,0l3.6-3.5C-77.1,11.3-77.1,10.6-77.5,10.2z"/>
			<path id="Path_7-4" class="st0" d="M-83.1,17.6c0-0.1,0-0.2,0-0.2l-0.5-1.5c0-0.1-0.2-0.2-0.3-0.2H-84l-6.2,2.3l-0.3,0.1l0.8,2.2
				l6.4-2.4C-83.2,17.8-83.1,17.7-83.1,17.6z M-84,17.7L-84,17.7c-0.2,0.1-0.3,0-0.4-0.2l-0.1-0.3l-4.6,1.7c-0.2,0.1-0.4,0-0.4-0.2
				c-0.1-0.2,0-0.4,0.2-0.4l0,0l4.6-1.7c0.3-0.1,0.7,0.1,0.8,0.4l0.1,0.3C-83.7,17.5-83.8,17.7-84,17.7L-84,17.7z"/>
		</g>
	</g>
	<path id="Path_29-2" class="st0" d="M7197.9,890.2v-1.4h-0.1v-1.3h-0.1v-0.5h-0.5v0.5c0,0-13.6,0.1-16.1,0c-0.4,0-2.5,0.2-0.3,3.4
		c0.5,1,0.4,2.2-0.3,3.1c-1.2,1.5-1.9,4.7-2,5.8l0,0v0.6h5.9v-1.1c-2.6,0.5,1.8-5.5,1.5-4.4c0.1,0,0.3,0.1,0.4,0.1h1.5
		c0.9,0,2.2-1,2.2-2c0-0.4-0.1-0.8-0.4-1.1h7.6l0.2-0.9h0.3L7197.9,890.2L7197.9,890.2L7197.9,890.2L7197.9,890.2z M7187.8,893.8
		h-1.5c-0.1,0-0.2,0-0.3,0c0.1-0.5,0.2-1,0.2-1.3c0.1,0.5,0.4,0.8,0.9,1h0.1c0.2,0,0.3-0.1,0.3-0.3c0-0.1-0.1-0.2-0.2-0.3
		c-0.5-0.2-0.6-0.9-0.6-1.3h1.4c0.6,0.1,0.9,0.7,0.8,1.3S7188.3,893.8,7187.8,893.8z M7195.7,890.7h-7.6l1.3-0.4h6.3V890.7z"/>
</g>
<g>
</g>
<g>
</g>
<g>
</g>
<g>
</g>
<g>
</g>
<g>
</g>
<g>
</g>
<g>
</g>
<g>
</g>
<g>
</g>
<g>
</g>
</svg>
