<?xml version="1.0" encoding="utf-8"?>
<!-- Generator: Adobe Illustrator 23.0.1, SVG Export Plug-In . SVG Version: 6.00 Build 0)  -->
<svg version="1.1" id="Layer_1" xmlns="http://www.w3.org/2000/svg" xmlns:xlink="http://www.w3.org/1999/xlink" x="0px" y="0px"
	 viewBox="0 0 36 36" style="enable-background:new 0 0 36 36;" xml:space="preserve">
<style type="text/css">
	.st0{fill:#7CEE8D;}
</style>
<path id="Icon_metro-cross" class="st0" d="M34.7,28.3L34.7,28.3L24.4,18L34.7,7.6l0,0c0.4-0.4,0.4-1.1,0-1.5l-4.9-4.9
	c-0.4-0.4-1.1-0.4-1.5,0l0,0L18,11.6L7.7,1.2l0,0c-0.4-0.4-1.1-0.4-1.5,0L1.3,6.1c-0.4,0.4-0.4,1.1,0,1.5l0,0L11.6,18L1.3,28.3l0,0
	c-0.4,0.4-0.4,1.1,0,1.5l4.9,4.9c0.4,0.4,1.1,0.4,1.5,0l0,0L18,24.4l10.3,10.3l0,0c0.4,0.4,1.1,0.4,1.5,0l4.9-4.9
	C35.1,29.4,35.1,28.7,34.7,28.3L34.7,28.3z"/>
</svg>
