<?xml version="1.0" encoding="utf-8"?>
<!-- Generator: Adobe Illustrator 23.0.1, SVG Export Plug-In . SVG Version: 6.00 Build 0)  -->
<svg version="1.1" id="Layer_1" xmlns="http://www.w3.org/2000/svg" xmlns:xlink="http://www.w3.org/1999/xlink" x="0px" y="0px"
	 viewBox="0 0 36 36" style="enable-background:new 0 0 36 36;" xml:space="preserve">
<style type="text/css">
	.st0{fill:#FCF6F5;}
</style>
<path id="Icon_awesome-hand-paper" class="st0" d="M29.9,9.8c-1.5,0-2.8,1.2-2.8,2.8c0,0,0,0,0,0v6h-0.5v-12c0-1.5-1.2-2.8-2.8-2.8
	c0,0,0,0,0,0c-1.5,0-2.7,1.2-2.7,2.7v12.1h-0.5V3.8c0-1.5-1.2-2.8-2.8-2.8c0,0,0,0,0,0c-1.5,0-2.7,1.2-2.7,2.7v14.8h-0.5v-12
	c0-1.5-1.2-2.8-2.8-2.8c0,0,0,0,0,0c-1.5,0-2.7,1.2-2.7,2.7v16.1l-2.2-3c-0.9-1.2-2.6-1.5-3.8-0.7s-1.5,2.6-0.7,3.8
	c0,0,0,0.1,0.1,0.1l8.6,11.8c0.6,0.8,1.6,1.4,2.7,1.4h13.5c1.5,0,2.8-1,3.2-2.5l1.8-7.7c0.2-1,0.3-2,0.3-3V12.5
	C32.6,11,31.4,9.8,29.9,9.8z"/>
</svg>
