<?xml version="1.0" encoding="utf-8"?>
<!-- Generator: Adobe Illustrator 23.0.1, SVG Export Plug-In . SVG Version: 6.00 Build 0)  -->
<svg version="1.1" id="Layer_1" xmlns="http://www.w3.org/2000/svg" xmlns:xlink="http://www.w3.org/1999/xlink" x="0px" y="0px"
	 viewBox="0 0 36 36" style="enable-background:new 0 0 36 36;" xml:space="preserve">
<path fill="current" id="Icon_awesome-hand-rock" class="st0" d="M31.8,6.5c-1.8,0-3.3,1.5-3.3,3.5c0,0,0,0,0,0.1h-0.5V7.8c0-1.9-1.4-3.5-3.2-3.6
	c-1.8,0-3.3,1.5-3.3,3.5c0,0,0,0,0,0.1v2.4h-0.5V6.6c0-1.9-1.4-3.5-3.2-3.6c-1.8,0-3.3,1.5-3.3,3.5c0,0,0,0,0,0.1v3.5h-0.5V7.8
	c0-1.9-1.4-3.5-3.2-3.6c-1.8,0-3.3,1.5-3.3,3.5c0,0,0,0,0,0.1v10l-0.5-0.5v-3.5c0-1.9-1.4-3.5-3.2-3.6C1.5,10,0,11.6,0,13.5
	c0,0,0,0,0,0.1v4.9c0,2,0.8,3.9,2.2,5.3l7.6,7.3c0.7,0.7,1.1,1.6,1.1,2.6v0.5c0,1,0.7,1.8,1.6,1.8c0,0,0,0,0,0H29
	c0.9,0,1.6-0.8,1.6-1.8c0,0,0,0,0,0V34c0-0.9,0.2-1.9,0.5-2.7l3.3-8.6c0.3-0.9,0.5-1.8,0.5-2.7v-9.8C35,8.2,33.6,6.6,31.8,6.5z"/>
</svg>
