<?xml version="1.0" encoding="utf-8"?>
<!-- Generator: Adobe Illustrator 23.0.1, SVG Export Plug-In . SVG Version: 6.00 Build 0)  -->
<svg version="1.1" id="Layer_1" xmlns="http://www.w3.org/2000/svg" xmlns:xlink="http://www.w3.org/1999/xlink" x="0px" y="0px"
	 viewBox="0 0 150 100" style="enable-background:new 0 0 150 100;" xml:space="preserve">
<style type="text/css">
	.st0{fill:#5C5C5C;}
	.st1{fill:#88ABE5;}
	.st2{fill:#E96161;}
	.st3{fill:none;stroke:#707070;stroke-width:2;}
	.st4{enable-background:new    ;}
</style>
<g id="Group_36" transform="translate(-7213 -485.315)">
	<path id="Icon_awesome-hand-peace" class="st0" d="M7234.2,520.7c-0.6,0-1.2,0.5-1.2,1.2l0,0h-0.2v-0.9c0-0.6-0.5-1.2-1.2-1.2
		s-1.2,0.5-1.2,1.2v0.9h-0.2v-6.1c0-0.8-0.6-1.4-1.4-1.4c-0.8,0-1.4,0.6-1.4,1.4c0,0,0,0,0,0v6.1h-0.4l-2-5.2
		c-0.3-0.7-1.1-1.1-1.8-0.8c-0.7,0.3-1.1,1.1-0.8,1.8c0,0,0,0,0,0.1l2.2,5.6l-0.9,0.7c-0.5,0.4-0.6,1-0.3,1.5l1.9,3.3
		c0.2,0.4,0.6,0.6,1,0.6h7c0.5,0,1-0.4,1.1-0.9l0.9-4c0-0.1,0-0.2,0-0.3v-2.3C7235.4,521.2,7234.8,520.7,7234.2,520.7z"/>
	<path id="Icon_awesome-hand-paper" class="st0" d="M7254.9,519.5c-0.6,0-1.1,0.5-1.2,1.1c0,0,0,0,0,0v2.5h-0.2v-5
		c0-0.6-0.5-1.1-1.1-1.1c0,0,0,0,0,0c-0.6,0-1.1,0.5-1.1,1.1v5h-0.2V517c0-0.6-0.5-1.1-1.1-1.2c0,0,0,0,0,0c-0.6,0-1.1,0.5-1.1,1.1
		v6.1h-0.2v-4.9c0-0.6-0.5-1.1-1.1-1.2c0,0,0,0,0,0c-0.6,0-1.1,0.5-1.1,1.1v6.7l-0.9-1.2c-0.4-0.5-1.1-0.6-1.6-0.2s-0.6,1.1-0.2,1.6
		l0,0l3.5,4.9c0.3,0.4,0.7,0.6,1.1,0.6h5.6c0.6,0,1.2-0.4,1.3-1l0.7-3.2c0.1-0.4,0.1-0.8,0.1-1.2v-4.2
		C7256,520,7255.5,519.5,7254.9,519.5z"/>
	<path id="Icon_awesome-hand-rock" class="st0" d="M7278.6,519.2c-0.7,0-1.4,0.6-1.4,1.3c0,0,0,0,0,0h-0.2v-0.9
		c0-0.7-0.6-1.3-1.3-1.4c-0.7,0-1.4,0.6-1.4,1.3c0,0,0,0,0,0v0.9h-0.2v-1.3c0-0.7-0.6-1.3-1.3-1.4c-0.7,0-1.4,0.6-1.4,1.3
		c0,0,0,0,0,0v1.3h-0.2v-0.9c0-0.7-0.6-1.3-1.3-1.4c-0.7,0-1.4,0.6-1.4,1.3c0,0,0,0,0,0v3.8l-0.2-0.2v-1.3c0-0.7-0.6-1.3-1.3-1.4
		c-0.7,0-1.4,0.6-1.4,1.3c0,0,0,0,0,0v1.9c0,0.8,0.3,1.5,0.9,2l3.1,2.8c0.3,0.3,0.5,0.6,0.5,1v0.2c0,0.4,0.3,0.7,0.7,0.7
		c0,0,0,0,0,0h6.7c0.4,0,0.7-0.3,0.7-0.7c0,0,0,0,0,0v-0.1c0-0.4,0.1-0.7,0.2-1l1.4-3.3c0.1-0.3,0.2-0.7,0.2-1v-3.7
		C7279.9,519.8,7279.3,519.2,7278.6,519.2z"/>
	<path id="Icon_awesome-hand-peace-2" class="st0" d="M7234.2,520.7c-0.6,0-1.2,0.5-1.2,1.2l0,0h-0.2v-0.9c0-0.6-0.5-1.2-1.2-1.2
		s-1.2,0.5-1.2,1.2v0.9h-0.2v-6.1c0-0.8-0.6-1.4-1.4-1.4c-0.8,0-1.4,0.6-1.4,1.4c0,0,0,0,0,0v6.1h-0.4l-2-5.2
		c-0.3-0.7-1.1-1.1-1.8-0.8c-0.7,0.3-1.1,1.1-0.8,1.8c0,0,0,0,0,0.1l2.2,5.6l-0.9,0.7c-0.5,0.4-0.6,1-0.3,1.5l1.9,3.3
		c0.2,0.4,0.6,0.6,1,0.6h7c0.5,0,1-0.4,1.1-0.9l0.9-4c0-0.1,0-0.2,0-0.3v-2.3C7235.4,521.2,7234.8,520.7,7234.2,520.7z"/>
	<path id="Icon_awesome-hand-paper-2" class="st1" d="M7254.9,519.5c-0.6,0-1.1,0.5-1.2,1.1c0,0,0,0,0,0v2.5h-0.2v-5
		c0-0.6-0.5-1.1-1.1-1.1c0,0,0,0,0,0c-0.6,0-1.1,0.5-1.1,1.1v5h-0.2V517c0-0.6-0.5-1.1-1.1-1.2c0,0,0,0,0,0c-0.6,0-1.1,0.5-1.1,1.1
		v6.1h-0.2v-4.9c0-0.6-0.5-1.1-1.1-1.2c0,0,0,0,0,0c-0.6,0-1.1,0.5-1.1,1.1v6.7l-0.9-1.2c-0.4-0.5-1.1-0.6-1.6-0.2s-0.6,1.1-0.2,1.6
		l0,0l3.5,4.9c0.3,0.4,0.7,0.6,1.1,0.6h5.6c0.6,0,1.2-0.4,1.3-1l0.7-3.2c0.1-0.4,0.1-0.8,0.1-1.2v-4.2
		C7256,520,7255.5,519.5,7254.9,519.5z"/>
	<path id="Icon_awesome-hand-rock-2" class="st0" d="M7278.6,519.2c-0.7,0-1.4,0.6-1.4,1.3c0,0,0,0,0,0h-0.2v-0.9
		c0-0.7-0.6-1.3-1.3-1.4c-0.7,0-1.4,0.6-1.4,1.3c0,0,0,0,0,0v0.9h-0.2v-1.3c0-0.7-0.6-1.3-1.3-1.4c-0.7,0-1.4,0.6-1.4,1.3
		c0,0,0,0,0,0v1.3h-0.2v-0.9c0-0.7-0.6-1.3-1.3-1.4c-0.7,0-1.4,0.6-1.4,1.3c0,0,0,0,0,0v3.8l-0.2-0.2v-1.3c0-0.7-0.6-1.3-1.3-1.4
		c-0.7,0-1.4,0.6-1.4,1.3c0,0,0,0,0,0v1.9c0,0.8,0.3,1.5,0.9,2l3.1,2.8c0.3,0.3,0.5,0.6,0.5,1v0.2c0,0.4,0.3,0.7,0.7,0.7
		c0,0,0,0,0,0h6.7c0.4,0,0.7-0.3,0.7-0.7c0,0,0,0,0,0v-0.1c0-0.4,0.1-0.7,0.2-1l1.4-3.3c0.1-0.3,0.2-0.7,0.2-1v-3.7
		C7279.9,519.8,7279.3,519.2,7278.6,519.2z"/>
	<path id="Icon_metro-cross" class="st2" d="M7256.8,528L7256.8,528l-4-4l4-4l0,0c0.2-0.2,0.2-0.4,0-0.6l-1.9-1.9
		c-0.2-0.2-0.4-0.2-0.6,0l0,0l-4,4l-4-4l0,0c-0.2-0.2-0.4-0.2-0.6,0l-1.9,1.9c-0.2,0.2-0.2,0.4,0,0.6l0,0l4,4l-4,4l0,0
		c-0.2,0.2-0.2,0.4,0,0.6l1.9,1.9c0.2,0.2,0.4,0.2,0.6,0l0,0l4-4l4,4l0,0c0.2,0.2,0.4,0.2,0.6,0l1.9-1.9
		C7257,528.4,7257,528.2,7256.8,528L7256.8,528z"/>
	<path id="Path_12" class="st1" d="M7277.6,560.3c-0.2-0.2-0.5-0.2-0.7,0c0,0,0,0,0,0c-0.2,0.2-0.5,0.2-0.7,0
		c-0.2-0.2-0.2-0.5,0-0.7l-2.7,2.7c0.2-0.2,0.5-0.2,0.7,0c0.2,0.2,0.2,0.5,0,0.7l0,0c-0.2,0.2-0.2,0.5,0,0.7c0,0,0,0,0,0l0.7,0.7
		c0.2,0.2,0.5,0.2,0.7,0c0,0,0,0,0,0l2.7-2.7c0.2-0.2,0.2-0.5,0-0.7c0,0,0,0,0,0L7277.6,560.3z"/>
	<path id="Path_13" class="st1" d="M7271.1,559.3l2.1,2.1l2.4-2.4c0.2-0.2,0.2-0.5,0-0.7c0,0,0,0,0,0l-1.4-1.4
		c-1.8-1.8-4.7-2.8-6.9-0.7c-0.2,0.2-0.2,0.5,0,0.7c0.1,0.1,0.2,0.1,0.3,0.1c1.5,0,2.9,0.5,4.1,1.5c0,0,0,0.1,0,0.1L7271.1,559.3z"
		/>
	<path id="Path_14" class="st1" d="M7262.3,570.1c0.6,0.6,1.5,0.6,2.1,0l8.1-8.1l-2.1-2.1l-8.1,8.1
		C7261.7,568.7,7261.7,569.6,7262.3,570.1z"/>
	<g id="Group_15" transform="translate(7231.106 617.227)">
		<g id="Group_3">
			<path id="Path_1" class="st1" d="M-3.2-49.3c0-0.1-0.1-0.2-0.1-0.3c-0.5-1.4-1-2.8-2.5-3.2c-0.5-0.1-1-0.1-1.5,0l0.2,0.4
				c0.2,0.4,0.4,0.8,0.6,1.2l1.8,2.4L-3.2-49.3z"/>
			<path id="Path_2" class="st1" d="M-5.7-53.4c1.8,0.5,2.4,2.1,2.9,3.6c0,0.1,0.1,0.2,0.1,0.3l3-1.1l-0.5-1.3c0,0,0-0.1,0-0.1
				c0,0,0-0.1,0-0.1c0,0,0,0,0,0l1.9-4.1c0.2-0.4,0-1-0.4-1.2s-1,0-1.2,0.4l0,0l-0.6,1.4c-0.1,0.2-0.3,0.4-0.6,0.3
				c-0.2,0-0.4-0.2-0.5-0.4L-3.7-62c-0.1-0.3-0.4-0.5-0.8-0.3c0,0,0,0,0,0c-0.3,0.1-0.4,0.5-0.3,0.8l1.2,3.2l0.3,0.9
				c0,0,0,0.1,0,0.1c0,0.2-0.1,0.3-0.3,0.3c-0.1,0-0.2-0.1-0.3-0.2l-1.9-5.2c-0.1-0.1-0.2-0.3-0.3-0.3c-0.1-0.1-0.3-0.1-0.4,0
				C-6.8-62.7-7-62.3-6.9-62l1.9,5.2c0.1,0.2,0,0.3-0.2,0.4c0,0,0,0,0,0c0,0-0.1,0-0.1,0h0c0,0,0,0,0,0c0,0-0.1,0-0.1,0c0,0,0,0,0,0
				c0,0,0,0-0.1,0c0,0,0,0,0,0c0,0,0-0.1-0.1-0.1l-1.5-4.1c-0.1-0.3-0.4-0.5-0.8-0.3c-0.3,0.1-0.5,0.4-0.3,0.7l0.7,1.9l1.1,3
				c0.1,0.2,0,0.3-0.2,0.4c0,0-0.1,0-0.1,0h0c0,0,0,0,0,0c0,0-0.1,0-0.1,0c0,0,0,0,0,0c0,0,0,0-0.1,0c0,0,0,0,0,0c0,0,0-0.1-0.1-0.1
				l-1.1-3c-0.1-0.3-0.4-0.5-0.8-0.3c0,0,0,0,0,0c-0.3,0.1-0.4,0.5-0.3,0.8l1.6,4.4C-6.9-53.6-6.3-53.6-5.7-53.4z"/>
			<path id="Path_3" class="st1" d="M-0.3-57.3c0-0.1,0.1-0.1,0.1-0.1v-3.6c0-0.3-0.3-0.6-0.6-0.6c-0.3,0-0.6,0.3-0.6,0.6v3.8
				l0.5,1.3L-0.3-57.3z"/>
			<path id="Path_4" class="st1" d="M1.6-58v-4.2c0-0.3-0.3-0.6-0.6-0.6s-0.6,0.3-0.6,0.6v4.2C0.8-58.2,1.2-58.2,1.6-58z"/>
			<path id="Path_5" class="st1" d="M3.7-48.2H2.3C2.2-48,2-47.8,1.8-47.7l-0.2,0.1h1.2c0.3,0,0.6,0.3,0.6,0.6v0.3
				c0,0.2-0.1,0.3-0.3,0.3c-0.2,0-0.3-0.1-0.3-0.3V-47H0l-2.5,0.9h6.2c0.2,0,0.3-0.1,0.3-0.3v-1.5C4-48.1,3.8-48.2,3.7-48.2z"/>
			<path id="Path_6" class="st1" d="M6.7-55L6.7-55c-0.4-0.3-0.9-0.3-1.3,0l-1.1,1.1c-0.2,0.2-0.6,0.2-0.8,0
				c-0.1-0.1-0.2-0.3-0.2-0.4v-6.7c0-0.3-0.3-0.6-0.6-0.6c0,0,0,0,0,0c-0.3,0-0.6,0.3-0.6,0.6v3.4c0.4,0.4,0.4,1,0.2,1.5l-1.9,4
				L1-50.8c0.4,0,0.7,0.2,0.8,0.6l0.5,1.4c0,0,0,0,0,0h1.1v-1.5c0,0,0-0.1,0-0.1c0,0,0-0.1,0.1-0.1l0,0l3.3-3.2
				C7.1-54.1,7.1-54.6,6.7-55z"/>
			<path id="Path_7" class="st1" d="M1.7-48.4c0-0.1,0-0.2,0-0.2L1.2-50c0-0.1-0.2-0.2-0.3-0.2c0,0-0.1,0-0.1,0l-5.5,2l-0.3,0.1
				l0.7,1.9l5.8-2.1C1.6-48.3,1.7-48.3,1.7-48.4z M0.9-48.3L0.9-48.3c-0.2,0.1-0.3,0-0.4-0.2l-0.1-0.3l-4.1,1.5
				c-0.2,0.1-0.3,0-0.4-0.2c-0.1-0.2,0-0.3,0.2-0.4c0,0,0,0,0,0l4.1-1.5c0.3-0.1,0.6,0,0.8,0.4l0.1,0.3C1.1-48.6,1.1-48.4,0.9-48.3
				C0.9-48.3,0.9-48.3,0.9-48.3L0.9-48.3z"/>
		</g>
	</g>
	<path id="Path_15" class="st1" d="M7259.8,560.5v-1.3h-0.1v-1.2h-0.1v-0.4h-0.5v0.4c0,0-12.3,0.1-14.4,0c-0.3,0-2.2,0.2-0.3,3.1
		c0.5,0.9,0.4,2-0.3,2.7c-1.2,1.4-1.7,4.3-1.8,5.2h0v0.5h5.3v-1c-2.3,0.4,1.6-4.9,1.4-4c0.1,0,0.3,0.1,0.4,0.1h1.4
		c0.9,0,2-0.9,2-1.8c0-0.4-0.1-0.7-0.3-1h6.9l0.2-0.8h0.3L7259.8,560.5L7259.8,560.5L7259.8,560.5L7259.8,560.5z M7250.7,563.7h-1.4
		c-0.1,0-0.2,0-0.3,0c0.1-0.5,0.1-0.9,0.2-1.2c0.1,0.4,0.4,0.8,0.8,1c0,0,0.1,0,0.1,0c0.1,0,0.3-0.1,0.3-0.3c0-0.1-0.1-0.2-0.2-0.2
		c-0.5-0.2-0.6-0.9-0.6-1.2h1.3c0.5,0.1,0.9,0.7,0.7,1.2C7251.6,563.4,7251.2,563.7,7250.7,563.7L7250.7,563.7z M7257.8,560.9h-6.8
		l1.2-0.4h5.6V560.9z"/>
	<line id="Line_5" class="st3" x1="7249.1" y1="534.2" x2="7233.2" y2="552.4"/>
	<line id="Line_6" class="st3" x1="7249.6" y1="553.3" x2="7249.6" y2="532.9"/>
	<line id="Line_7" class="st3" x1="7249.8" y1="533.9" x2="7265.9" y2="552.7"/>
	<path id="Path_20" class="st1" d="M7277.6,560.3c-0.2-0.2-0.5-0.2-0.7,0c0,0,0,0,0,0c-0.2,0.2-0.5,0.2-0.7,0
		c-0.2-0.2-0.2-0.5,0-0.7l-2.7,2.7c0.2-0.2,0.5-0.2,0.7,0c0.2,0.2,0.2,0.5,0,0.7l0,0c-0.2,0.2-0.2,0.5,0,0.7c0,0,0,0,0,0l0.7,0.7
		c0.2,0.2,0.5,0.2,0.7,0c0,0,0,0,0,0l2.7-2.7c0.2-0.2,0.2-0.5,0-0.7c0,0,0,0,0,0L7277.6,560.3z"/>
	<path id="Path_21" class="st1" d="M7262.3,570.1c0.6,0.6,1.5,0.6,2.1,0l8.1-8.1l-2.1-2.1l-8.1,8.1
		C7261.7,568.7,7261.7,569.6,7262.3,570.1z"/>
	<g id="Group_17" transform="translate(7231.106 617.227)">
		<g id="Group_3-2">
			<path id="Path_1-2" class="st1" d="M-3.2-49.3c0-0.1-0.1-0.2-0.1-0.3c-0.5-1.4-1-2.8-2.5-3.2c-0.5-0.1-1-0.1-1.5,0l0.2,0.4
				c0.2,0.4,0.4,0.8,0.6,1.2l1.8,2.4L-3.2-49.3z"/>
			<path id="Path_2-2" class="st1" d="M-5.7-53.4c1.8,0.5,2.4,2.1,2.9,3.6c0,0.1,0.1,0.2,0.1,0.3l3-1.1l-0.5-1.3c0,0,0-0.1,0-0.1
				c0,0,0-0.1,0-0.1c0,0,0,0,0,0l1.9-4.1c0.2-0.4,0-1-0.4-1.2s-1,0-1.2,0.4l0,0l-0.6,1.4c-0.1,0.2-0.3,0.4-0.6,0.3
				c-0.2,0-0.4-0.2-0.5-0.4L-3.7-62c-0.1-0.3-0.4-0.5-0.8-0.3c0,0,0,0,0,0c-0.3,0.1-0.4,0.5-0.3,0.8l1.2,3.2l0.3,0.9
				c0,0,0,0.1,0,0.1c0,0.2-0.1,0.3-0.3,0.3c-0.1,0-0.2-0.1-0.3-0.2l-1.9-5.2c-0.1-0.1-0.2-0.3-0.3-0.3c-0.1-0.1-0.3-0.1-0.4,0
				C-6.8-62.7-7-62.3-6.9-62l1.9,5.2c0.1,0.2,0,0.3-0.2,0.4c0,0,0,0,0,0c0,0-0.1,0-0.1,0h0c0,0,0,0,0,0c0,0-0.1,0-0.1,0c0,0,0,0,0,0
				c0,0,0,0-0.1,0c0,0,0,0,0,0c0,0,0-0.1-0.1-0.1l-1.5-4.1c-0.1-0.3-0.4-0.5-0.8-0.3c-0.3,0.1-0.5,0.4-0.3,0.7l0.7,1.9l1.1,3
				c0.1,0.2,0,0.3-0.2,0.4c0,0-0.1,0-0.1,0h0c0,0,0,0,0,0c0,0-0.1,0-0.1,0c0,0,0,0,0,0c0,0,0,0-0.1,0c0,0,0,0,0,0c0,0,0-0.1-0.1-0.1
				l-1.1-3c-0.1-0.3-0.4-0.5-0.8-0.3c0,0,0,0,0,0c-0.3,0.1-0.4,0.5-0.3,0.8l1.6,4.4C-6.9-53.6-6.3-53.6-5.7-53.4z"/>
			<path id="Path_3-2" class="st1" d="M-0.3-57.3c0-0.1,0.1-0.1,0.1-0.1v-3.6c0-0.3-0.3-0.6-0.6-0.6c-0.3,0-0.6,0.3-0.6,0.6v3.8
				l0.5,1.3L-0.3-57.3z"/>
			<path id="Path_4-2" class="st1" d="M1.6-58v-4.2c0-0.3-0.3-0.6-0.6-0.6s-0.6,0.3-0.6,0.6v4.2C0.8-58.2,1.2-58.2,1.6-58z"/>
			<path id="Path_5-2" class="st1" d="M3.7-48.2H2.3C2.2-48,2-47.8,1.8-47.7l-0.2,0.1h1.2c0.3,0,0.6,0.3,0.6,0.6v0.3
				c0,0.2-0.1,0.3-0.3,0.3c-0.2,0-0.3-0.1-0.3-0.3V-47H0l-2.5,0.9h6.2c0.2,0,0.3-0.1,0.3-0.3v-1.5C4-48.1,3.8-48.2,3.7-48.2z"/>
			<path id="Path_6-2" class="st1" d="M6.7-55L6.7-55c-0.4-0.3-0.9-0.3-1.3,0l-1.1,1.1c-0.2,0.2-0.6,0.2-0.8,0
				c-0.1-0.1-0.2-0.3-0.2-0.4v-6.7c0-0.3-0.3-0.6-0.6-0.6c0,0,0,0,0,0c-0.3,0-0.6,0.3-0.6,0.6v3.4c0.4,0.4,0.4,1,0.2,1.5l-1.9,4
				L1-50.8c0.4,0,0.7,0.2,0.8,0.6l0.5,1.4c0,0,0,0,0,0h1.1v-1.5c0,0,0-0.1,0-0.1c0,0,0-0.1,0.1-0.1l0,0l3.3-3.2
				C7.1-54.1,7.1-54.6,6.7-55z"/>
			<path id="Path_7-2" class="st1" d="M1.7-48.4c0-0.1,0-0.2,0-0.2L1.2-50c0-0.1-0.2-0.2-0.3-0.2c0,0-0.1,0-0.1,0l-5.5,2l-0.3,0.1
				l0.7,1.9l5.8-2.1C1.6-48.3,1.7-48.3,1.7-48.4z M0.9-48.3L0.9-48.3c-0.2,0.1-0.3,0-0.4-0.2l-0.1-0.3l-4.1,1.5
				c-0.2,0.1-0.3,0-0.4-0.2c-0.1-0.2,0-0.3,0.2-0.4c0,0,0,0,0,0l4.1-1.5c0.3-0.1,0.6,0,0.8,0.4l0.1,0.3C1.1-48.6,1.1-48.4,0.9-48.3
				C0.9-48.3,0.9-48.3,0.9-48.3L0.9-48.3z"/>
		</g>
	</g>
	<path id="Path_22" class="st1" d="M7259.8,560.5v-1.3h-0.1v-1.2h-0.1v-0.4h-0.5v0.4c0,0-12.3,0.1-14.4,0c-0.3,0-2.2,0.2-0.3,3.1
		c0.5,0.9,0.4,2-0.3,2.7c-1.2,1.4-1.7,4.3-1.8,5.2h0v0.5h5.3v-1c-2.3,0.4,1.6-4.9,1.4-4c0.1,0,0.3,0.1,0.4,0.1h1.4
		c0.9,0,2-0.9,2-1.8c0-0.4-0.1-0.7-0.3-1h6.9l0.2-0.8h0.3L7259.8,560.5L7259.8,560.5L7259.8,560.5L7259.8,560.5z M7250.7,563.7h-1.4
		c-0.1,0-0.2,0-0.3,0c0.1-0.5,0.1-0.9,0.2-1.2c0.1,0.4,0.4,0.8,0.8,1c0,0,0.1,0,0.1,0c0.1,0,0.3-0.1,0.3-0.3c0-0.1-0.1-0.2-0.2-0.2
		c-0.5-0.2-0.6-0.9-0.6-1.2h1.3c0.5,0.1,0.9,0.7,0.7,1.2C7251.6,563.4,7251.2,563.7,7250.7,563.7L7250.7,563.7z M7257.8,560.9h-6.8
		l1.2-0.4h5.6V560.9z"/>
	<g class="st4">
		<path class="st0" d="M7218.3,505.8c0,1.1-0.8,1.8-1.8,1.8c-0.5,0-0.9-0.2-1.1-0.5v0.4h-1v-4.9h1v1.7c0.3-0.3,0.6-0.4,1.1-0.4
			C7217.6,504,7218.3,504.7,7218.3,505.8z M7217.3,505.8c0-0.6-0.4-1-0.9-1c-0.5,0-0.9,0.4-0.9,1c0,0.6,0.4,1,0.9,1
			C7216.9,506.8,7217.3,506.5,7217.3,505.8z"/>
		<path class="st0" d="M7222.1,505.6v2h-1v-0.4c-0.2,0.3-0.6,0.5-1.1,0.5c-0.8,0-1.3-0.5-1.3-1.1c0-0.6,0.4-1.1,1.5-1.1h0.8
			c0-0.4-0.3-0.7-0.8-0.7c-0.4,0-0.8,0.1-1,0.3l-0.4-0.7c0.4-0.3,1-0.4,1.5-0.4C7221.5,504,7222.1,504.5,7222.1,505.6z
			 M7221.1,506.5v-0.4h-0.7c-0.5,0-0.6,0.2-0.6,0.4c0,0.3,0.2,0.4,0.6,0.4C7220.7,507,7221,506.8,7221.1,506.5z"/>
		<path class="st0" d="M7226.7,505.6v2h-1v-1.9c0-0.6-0.3-0.8-0.7-0.8c-0.5,0-0.9,0.3-0.9,1v1.8h-1v-3.6h1v0.4
			c0.3-0.3,0.7-0.5,1.2-0.5C7226,504,7226.7,504.5,7226.7,505.6z"/>
		<path class="st0" d="M7231.2,505.6v2h-1v-1.9c0-0.6-0.3-0.8-0.7-0.8c-0.5,0-0.9,0.3-0.9,1v1.8h-1v-3.6h1v0.4
			c0.3-0.3,0.7-0.5,1.2-0.5C7230.6,504,7231.2,504.5,7231.2,505.6z"/>
		<path class="st0" d="M7235.7,506.1h-2.7c0.1,0.4,0.5,0.7,1,0.7c0.4,0,0.6-0.1,0.9-0.3l0.5,0.6c-0.3,0.4-0.8,0.6-1.5,0.6
			c-1.2,0-2-0.8-2-1.8c0-1.1,0.8-1.8,1.9-1.8c1,0,1.9,0.7,1.9,1.8C7235.7,505.9,7235.7,506.1,7235.7,506.1z M7233,505.5h1.8
			c-0.1-0.4-0.4-0.7-0.9-0.7C7233.4,504.8,7233.1,505.1,7233,505.5z"/>
		<path class="st0" d="M7240,502.7v4.9h-1v-0.4c-0.3,0.3-0.6,0.5-1.1,0.5c-1,0-1.8-0.7-1.8-1.8s0.8-1.8,1.8-1.8
			c0.4,0,0.8,0.1,1.1,0.4v-1.7H7240z M7239,505.8c0-0.6-0.4-1-0.9-1c-0.5,0-0.9,0.4-0.9,1c0,0.6,0.4,1,0.9,1
			C7238.6,506.8,7239,506.5,7239,505.8z"/>
		<path class="st0" d="M7246,505.6v2h-1v-0.4c-0.2,0.3-0.6,0.5-1.1,0.5c-0.8,0-1.3-0.5-1.3-1.1c0-0.6,0.4-1.1,1.5-1.1h0.8
			c0-0.4-0.3-0.7-0.8-0.7c-0.4,0-0.8,0.1-1,0.3l-0.4-0.7c0.4-0.3,1-0.4,1.5-0.4C7245.3,504,7246,504.5,7246,505.6z M7244.9,506.5
			v-0.4h-0.7c-0.5,0-0.6,0.2-0.6,0.4c0,0.3,0.2,0.4,0.6,0.4C7244.5,507,7244.8,506.8,7244.9,506.5z"/>
		<path class="st0" d="M7250.5,505.6v2h-1v-1.9c0-0.6-0.3-0.8-0.7-0.8c-0.5,0-0.9,0.3-0.9,1v1.8h-1v-3.6h1v0.4
			c0.3-0.3,0.7-0.5,1.2-0.5C7249.9,504,7250.5,504.5,7250.5,505.6z"/>
		<path class="st0" d="M7255.1,502.7v4.9h-1v-0.4c-0.3,0.3-0.6,0.5-1.1,0.5c-1,0-1.8-0.7-1.8-1.8s0.8-1.8,1.8-1.8
			c0.4,0,0.8,0.1,1.1,0.4v-1.7H7255.1z M7254.1,505.8c0-0.6-0.4-1-0.9-1c-0.5,0-0.9,0.4-0.9,1c0,0.6,0.4,1,0.9,1
			C7253.7,506.8,7254.1,506.5,7254.1,505.8z"/>
		<path class="st0" d="M7257.7,505.8c0-1.1,0.8-1.8,2-1.8c0.7,0,1.3,0.3,1.6,0.9l-0.8,0.4c-0.2-0.3-0.5-0.5-0.8-0.5
			c-0.5,0-0.9,0.4-0.9,1s0.4,1,0.9,1c0.3,0,0.6-0.1,0.8-0.5l0.8,0.4c-0.3,0.6-0.8,0.9-1.6,0.9
			C7258.5,507.7,7257.7,506.9,7257.7,505.8z"/>
		<path class="st0" d="M7265.5,505.6v2h-1v-1.9c0-0.6-0.3-0.8-0.7-0.8c-0.5,0-0.9,0.3-0.9,1v1.8h-1v-4.9h1v1.7
			c0.3-0.3,0.7-0.4,1.1-0.4C7264.8,504,7265.5,504.5,7265.5,505.6z"/>
		<path class="st0" d="M7266.2,505.8c0-1.1,0.8-1.8,2-1.8s1.9,0.8,1.9,1.8s-0.8,1.8-1.9,1.8S7266.2,506.9,7266.2,505.8z M7269,505.8
			c0-0.6-0.4-1-0.9-1c-0.5,0-0.9,0.4-0.9,1c0,0.6,0.4,1,0.9,1C7268.6,506.8,7269,506.5,7269,505.8z"/>
		<path class="st0" d="M7270.5,505.8c0-1.1,0.8-1.8,2-1.8s1.9,0.8,1.9,1.8s-0.8,1.8-1.9,1.8S7270.5,506.9,7270.5,505.8z
			 M7273.4,505.8c0-0.6-0.4-1-0.9-1c-0.5,0-0.9,0.4-0.9,1c0,0.6,0.4,1,0.9,1C7273,506.8,7273.4,506.5,7273.4,505.8z"/>
		<path class="st0" d="M7274.7,507.3l0.3-0.7c0.3,0.2,0.8,0.3,1.2,0.3c0.5,0,0.7-0.1,0.7-0.3c0-0.6-2.1,0-2.1-1.4
			c0-0.7,0.6-1.1,1.6-1.1c0.5,0,1,0.1,1.4,0.3l-0.3,0.7c-0.4-0.2-0.7-0.3-1-0.3c-0.5,0-0.7,0.1-0.7,0.3c0,0.6,2.1,0,2.1,1.4
			c0,0.7-0.6,1.1-1.7,1.1C7275.7,507.7,7275.1,507.5,7274.7,507.3z"/>
		<path class="st0" d="M7282.1,506.1h-2.7c0.1,0.4,0.5,0.7,1,0.7c0.4,0,0.6-0.1,0.9-0.3l0.5,0.6c-0.3,0.4-0.8,0.6-1.5,0.6
			c-1.2,0-2-0.8-2-1.8c0-1.1,0.8-1.8,1.9-1.8c1,0,1.9,0.7,1.9,1.8C7282.1,505.9,7282.1,506.1,7282.1,506.1z M7279.4,505.5h1.8
			c-0.1-0.4-0.4-0.7-0.9-0.7C7279.8,504.8,7279.4,505.1,7279.4,505.5z"/>
	</g>
</g>
<line id="Line_25" class="st3" x1="75.7" y1="10" x2="75.7" y2="92"/>
<g class="st4">
	<path class="st0" d="M83.2,19.5c0-1.1,0.8-1.8,2-1.8c0.7,0,1.3,0.3,1.6,0.9L86,19c-0.2-0.3-0.5-0.5-0.8-0.5c-0.5,0-0.9,0.4-0.9,1
		s0.4,1,0.9,1c0.3,0,0.6-0.1,0.8-0.5l0.8,0.4c-0.3,0.6-0.8,0.9-1.6,0.9C84,21.4,83.2,20.6,83.2,19.5z"/>
	<path class="st0" d="M91,19.3v2h-1v-1.9c0-0.6-0.3-0.8-0.7-0.8c-0.5,0-0.9,0.3-0.9,1v1.8h-1v-4.9h1v1.7c0.3-0.3,0.7-0.4,1.1-0.4
		C90.4,17.7,91,18.2,91,19.3z"/>
	<path class="st0" d="M91.7,19.5c0-1.1,0.8-1.8,2-1.8s1.9,0.8,1.9,1.8s-0.8,1.8-1.9,1.8S91.7,20.6,91.7,19.5z M94.6,19.5
		c0-0.6-0.4-1-0.9-1s-0.9,0.4-0.9,1c0,0.6,0.4,1,0.9,1S94.6,20.1,94.6,19.5z"/>
	<path class="st0" d="M96,19.5c0-1.1,0.8-1.8,2-1.8s1.9,0.8,1.9,1.8s-0.8,1.8-1.9,1.8S96,20.6,96,19.5z M98.9,19.5
		c0-0.6-0.4-1-0.9-1s-0.9,0.4-0.9,1c0,0.6,0.4,1,0.9,1S98.9,20.1,98.9,19.5z"/>
	<path class="st0" d="M100.3,21l0.3-0.7c0.3,0.2,0.8,0.3,1.2,0.3c0.5,0,0.7-0.1,0.7-0.3c0-0.6-2.1,0-2.1-1.4c0-0.7,0.6-1.1,1.6-1.1
		c0.5,0,1,0.1,1.4,0.3l-0.3,0.7c-0.4-0.2-0.7-0.3-1-0.3c-0.5,0-0.7,0.1-0.7,0.3c0,0.6,2.1,0,2.1,1.4c0,0.7-0.6,1.1-1.7,1.1
		C101.2,21.4,100.6,21.2,100.3,21z"/>
	<path class="st0" d="M107.6,19.8h-2.7c0.1,0.4,0.5,0.7,1,0.7c0.4,0,0.6-0.1,0.9-0.3l0.5,0.6c-0.3,0.4-0.8,0.6-1.5,0.6
		c-1.2,0-2-0.8-2-1.8c0-1.1,0.8-1.8,1.9-1.8c1,0,1.9,0.7,1.9,1.8C107.6,19.6,107.6,19.7,107.6,19.8z M104.9,19.2h1.8
		c-0.1-0.4-0.4-0.7-0.9-0.7C105.3,18.5,105,18.8,104.9,19.2z"/>
	<path class="st0" d="M112.5,21.1c-0.2,0.2-0.5,0.2-0.8,0.2c-0.8,0-1.3-0.4-1.3-1.3v-1.5h-0.5v-0.8h0.5V17h1v0.9h0.9v0.8h-0.9v1.4
		c0,0.3,0.2,0.5,0.4,0.5c0.2,0,0.3,0,0.4-0.1L112.5,21.1z"/>
	<path class="st0" d="M112.7,19.5c0-1.1,0.8-1.8,2-1.8s1.9,0.8,1.9,1.8s-0.8,1.8-1.9,1.8S112.7,20.6,112.7,19.5z M115.5,19.5
		c0-0.6-0.4-1-0.9-1s-0.9,0.4-0.9,1c0,0.6,0.4,1,0.9,1S115.5,20.1,115.5,19.5z"/>
	<path class="st0" d="M121.3,17.7v1c-0.1,0-0.2,0-0.2,0c-0.6,0-0.9,0.3-0.9,1v1.7h-1v-3.6h1v0.5C120.4,17.9,120.8,17.7,121.3,17.7z"
		/>
	<path class="st0" d="M125.4,19.8h-2.7c0.1,0.4,0.5,0.7,1,0.7c0.4,0,0.6-0.1,0.9-0.3l0.5,0.6c-0.3,0.4-0.8,0.6-1.5,0.6
		c-1.2,0-2-0.8-2-1.8c0-1.1,0.8-1.8,1.9-1.8c1,0,1.9,0.7,1.9,1.8C125.4,19.6,125.4,19.7,125.4,19.8z M122.7,19.2h1.8
		c-0.1-0.4-0.4-0.7-0.9-0.7C123.1,18.5,122.7,18.8,122.7,19.2z"/>
	<path class="st0" d="M129.9,19.5c0,1.1-0.8,1.8-1.8,1.8c-0.4,0-0.8-0.1-1.1-0.4v1.7h-1v-4.8h1v0.4c0.3-0.3,0.6-0.5,1.1-0.5
		C129.2,17.7,129.9,18.4,129.9,19.5z M128.9,19.5c0-0.6-0.4-1-0.9-1s-0.9,0.4-0.9,1c0,0.6,0.4,1,0.9,1S128.9,20.1,128.9,19.5z"/>
	<path class="st0" d="M130.6,16.4h1v4.9h-1V16.4z"/>
	<path class="st0" d="M135.8,19.3v2h-1v-0.4c-0.2,0.3-0.6,0.5-1.1,0.5c-0.8,0-1.3-0.5-1.3-1.1c0-0.6,0.4-1.1,1.5-1.1h0.8
		c0-0.4-0.3-0.7-0.8-0.7c-0.4,0-0.8,0.1-1,0.3l-0.4-0.7c0.4-0.3,1-0.4,1.5-0.4C135.1,17.7,135.8,18.2,135.8,19.3z M134.7,20.2v-0.4
		H134c-0.5,0-0.6,0.2-0.6,0.4c0,0.3,0.2,0.4,0.6,0.4C134.3,20.7,134.6,20.5,134.7,20.2z"/>
	<path class="st0" d="M136.5,19.5c0-1.1,0.8-1.8,2-1.8c0.7,0,1.3,0.3,1.6,0.9l-0.8,0.4c-0.2-0.3-0.5-0.5-0.8-0.5
		c-0.5,0-0.9,0.4-0.9,1s0.4,1,0.9,1c0.3,0,0.6-0.1,0.8-0.5l0.8,0.4c-0.3,0.6-0.8,0.9-1.6,0.9C137.3,21.4,136.5,20.6,136.5,19.5z"/>
	<path class="st0" d="M144.1,19.8h-2.7c0.1,0.4,0.5,0.7,1,0.7c0.4,0,0.6-0.1,0.9-0.3l0.5,0.6c-0.3,0.4-0.8,0.6-1.5,0.6
		c-1.2,0-2-0.8-2-1.8c0-1.1,0.8-1.8,1.9-1.8c1,0,1.9,0.7,1.9,1.8C144.1,19.6,144.1,19.7,144.1,19.8z M141.4,19.2h1.8
		c-0.1-0.4-0.4-0.7-0.9-0.7C141.8,18.5,141.4,18.8,141.4,19.2z"/>
</g>
<path id="Icon_awesome-hand-rock-3" class="st1" d="M95.6,30.9c-0.7,0-1.3,0.6-1.4,1.3c0,0,0,0,0,0H94v-0.9c0-0.7-0.6-1.3-1.3-1.4
	c-0.7,0-1.3,0.6-1.4,1.3c0,0,0,0,0,0v0.9h-0.2v-1.3c0-0.7-0.6-1.3-1.3-1.4c-0.7,0-1.3,0.6-1.4,1.3c0,0,0,0,0,0v1.3h-0.2v-0.9
	c0-0.7-0.6-1.3-1.3-1.4c-0.7,0-1.3,0.6-1.4,1.3c0,0,0,0,0,0v3.8l-0.2-0.2v-1.3c0-0.7-0.6-1.3-1.3-1.4c-0.7,0-1.3,0.6-1.4,1.3
	c0,0,0,0,0,0v1.8c0,0.8,0.3,1.5,0.9,2l3.1,2.8c0.3,0.3,0.4,0.6,0.4,1v0.2c0,0.4,0.3,0.7,0.7,0.7c0,0,0,0,0,0h6.7
	c0.4,0,0.7-0.3,0.7-0.7c0,0,0,0,0,0v-0.1c0-0.4,0.1-0.7,0.2-1l1.4-3.2c0.1-0.3,0.2-0.7,0.2-1v-3.7C96.9,31.5,96.3,30.9,95.6,30.9
	L95.6,30.9z"/>
<path id="Icon_awesome-hand-peace-3" class="st0" d="M119.8,33.9c-0.6,0-1.2,0.5-1.2,1.2l0,0h-0.2v-0.9c0-0.6-0.5-1.2-1.2-1.2
	s-1.2,0.5-1.2,1.2v0.9h-0.2v-6c0-0.8-0.6-1.4-1.4-1.4c-0.8,0-1.4,0.6-1.4,1.4c0,0,0,0,0,0v6h-0.4l-2-5.1c-0.3-0.7-1.1-1.1-1.8-0.8
	c-0.7,0.3-1.1,1.1-0.8,1.8l2.2,5.5l-0.9,0.7c-0.4,0.4-0.6,1-0.3,1.5l1.9,3.2c0.2,0.4,0.6,0.6,1,0.6h7c0.5,0,1-0.4,1.1-0.9l0.9-3.9
	c0-0.1,0-0.2,0-0.3v-2.3C120.9,34.4,120.4,33.9,119.8,33.9z"/>
<path id="Icon_awesome-hand-paper-3" class="st1" d="M141.8,31.1c-0.6,0-1.1,0.5-1.1,1.1c0,0,0,0,0,0v2.4h-0.2v-4.9
	c0-0.6-0.5-1.1-1.1-1.1c0,0,0,0,0,0c-0.6,0-1.1,0.5-1.1,1.1v4.9H138v-6c0-0.6-0.5-1.1-1.1-1.1c0,0,0,0,0,0c-0.6,0-1.1,0.5-1.1,1.1v6
	h-0.2v-4.9c0-0.6-0.5-1.1-1.1-1.1c0,0,0,0,0,0c-0.6,0-1.1,0.5-1.1,1.1v6.6l-0.9-1.2c-0.4-0.5-1.1-0.6-1.6-0.2
	c-0.5,0.4-0.6,1.1-0.2,1.6l3.5,4.8c0.3,0.3,0.7,0.6,1.1,0.6h5.5c0.6,0,1.2-0.4,1.3-1l0.7-3.1c0.1-0.4,0.1-0.8,0.1-1.2v-4.2
	C142.9,31.7,142.4,31.2,141.8,31.1z"/>
<path id="Icon_awesome-hand-peace-4" class="st1" d="M119.8,33.9c-0.6,0-1.2,0.5-1.2,1.2l0,0h-0.2v-0.9c0-0.6-0.5-1.2-1.2-1.2
	s-1.2,0.5-1.2,1.2v0.9h-0.2v-6c0-0.8-0.6-1.4-1.4-1.4c-0.8,0-1.4,0.6-1.4,1.4c0,0,0,0,0,0v6h-0.4l-2-5.1c-0.3-0.7-1.1-1.1-1.8-0.8
	c-0.7,0.3-1.1,1.1-0.8,1.8l2.2,5.5l-0.9,0.7c-0.4,0.4-0.6,1-0.3,1.5l1.9,3.2c0.2,0.4,0.6,0.6,1,0.6h7c0.5,0,1-0.4,1.1-0.9l0.9-3.9
	c0-0.1,0-0.2,0-0.3v-2.3C120.9,34.4,120.4,33.9,119.8,33.9z"/>
<path id="Path_16" class="st1" d="M147.1,73.8c-0.2-0.2-0.5-0.2-0.7,0c0,0,0,0,0,0c-0.2,0.2-0.5,0.2-0.7,0c-0.2-0.2-0.2-0.5,0-0.7
	l0,0l-3,3c0.2-0.2,0.5-0.2,0.7,0c0.2,0.2,0.2,0.5,0,0.7l0,0c-0.2,0.2-0.2,0.5,0,0.7c0,0,0,0,0,0l0.7,0.7c0.2,0.2,0.5,0.2,0.7,0
	c0,0,0,0,0,0l3-3c0.2-0.2,0.2-0.5,0-0.7c0,0,0,0,0,0L147.1,73.8z"/>
<path id="Path_17" class="st1" d="M139,72.6l2.2,2.2l2.6-2.6c0.2-0.2,0.2-0.5,0-0.7c0,0,0,0,0,0l-1.5-1.5c-2-2-5.2-3.1-7.5-0.7
	c-0.2,0.2-0.2,0.5,0,0.7c0.1,0.1,0.2,0.2,0.4,0.2c1.6,0,3.2,0.6,4.4,1.7c0,0,0,0.1,0,0.1L139,72.6z"/>
<path id="Path_18" class="st1" d="M129.4,84.5c0.6,0.6,1.6,0.6,2.2,0l8.8-8.8l-2.2-2.2l-8.8,8.8C128.7,82.9,128.7,83.9,129.4,84.5z"
	/>
<g id="Group_16" transform="translate(193.302 130.115)">
	<g id="Group_3-3">
		<path id="Path_1-3" class="st1" d="M-103.2-49.6c0-0.1-0.1-0.2-0.1-0.3c-0.5-1.5-1-2.8-2.5-3.2c-0.5-0.1-1-0.1-1.5,0l0.2,0.4
			c0.2,0.4,0.4,0.8,0.6,1.2l1.9,2.5L-103.2-49.6z"/>
		<path id="Path_2-3" class="st1" d="M-105.7-53.3c1.9,0.5,2.4,2.1,2.9,3.6c0,0.1,0.1,0.2,0.1,0.3l3.1-1.1l-0.5-1.3c0,0,0-0.1,0-0.1
			c0,0,0-0.1,0-0.1c0,0,0,0,0,0l2-4.2c0.2-0.4,0-1-0.4-1.2c-0.4-0.2-1,0-1.2,0.4l0,0l-0.6,1.4c-0.1,0.2-0.3,0.4-0.6,0.3
			c-0.2,0-0.5-0.2-0.5-0.4l-2.3-6.3c-0.1-0.3-0.5-0.5-0.8-0.4c0,0,0,0,0,0c-0.3,0.1-0.4,0.5-0.3,0.8l1.2,3.2l0.3,0.9
			c0,0,0,0.1,0,0.1c0,0.2-0.2,0.3-0.3,0.3c-0.1,0-0.2-0.1-0.3-0.2l-1.9-5.3c-0.1-0.1-0.2-0.3-0.3-0.3c-0.1-0.1-0.3-0.1-0.5,0
			c-0.3,0.1-0.5,0.5-0.4,0.8l1.9,5.3c0.1,0.2,0,0.3-0.2,0.4c0,0-0.1,0-0.1,0h0c0,0,0,0,0,0c0,0-0.1,0-0.1,0c0,0,0,0,0,0
			c0,0,0,0-0.1,0c0,0,0,0,0,0c0,0,0-0.1-0.1-0.1l-1.5-4.2c-0.1-0.3-0.5-0.5-0.8-0.4s-0.5,0.5-0.4,0.8l0.7,2l1.1,3.1
			c0.1,0.2,0,0.3-0.2,0.4c0,0-0.1,0-0.1,0h0c0,0,0,0,0,0c0,0-0.1,0-0.1,0c0,0,0,0,0,0c0,0,0,0-0.1,0c0,0,0,0,0,0c0,0,0-0.1-0.1-0.1
			l-1.1-3.1c-0.1-0.3-0.5-0.5-0.8-0.4c0,0,0,0,0,0c-0.3,0.1-0.4,0.5-0.3,0.8l1.6,4.4C-106.9-53.4-106.3-53.4-105.7-53.3z"/>
		<path id="Path_3-3" class="st1" d="M-100.4-57.2c0-0.1,0.1-0.1,0.1-0.2V-61c0-0.3-0.3-0.6-0.6-0.6c-0.3,0-0.6,0.3-0.6,0.6l0,0v3.9
			l0.5,1.3L-100.4-57.2z"/>
		<path id="Path_4-3" class="st1" d="M-98.5-58v-4.3c0-0.3-0.3-0.6-0.6-0.6c-0.3,0-0.6,0.3-0.6,0.6v4.3
			C-99.4-58.1-98.9-58.1-98.5-58z"/>
		<path id="Path_5-3" class="st1" d="M-96.4-48.5h-1.4c-0.1,0.3-0.3,0.5-0.5,0.5l-0.2,0.1h1.2c0.3,0,0.6,0.3,0.6,0.6v0.3
			c0,0.2-0.1,0.3-0.3,0.3c-0.2,0-0.3-0.1-0.3-0.3v-0.3h-2.9l-2.5,0.9h6.3c0.2,0,0.3-0.1,0.3-0.3v-1.5
			C-96.1-48.4-96.3-48.5-96.4-48.5z"/>
		<path id="Path_6-3" class="st1" d="M-93.4-54.9L-93.4-54.9c-0.4-0.4-0.9-0.4-1.3,0l-1.1,1.1c-0.2,0.2-0.6,0.2-0.9,0
			c-0.1-0.1-0.2-0.3-0.2-0.4V-61c0-0.3-0.3-0.6-0.6-0.6c0,0,0,0,0,0c-0.3,0-0.6,0.3-0.6,0.7v3.5c0.4,0.4,0.4,1.1,0.2,1.6l-1.9,4.1
			l0.5,1.2c0.4,0,0.7,0.2,0.8,0.6l0.5,1.4c0,0,0,0,0,0h1.1v-1.5c0,0,0-0.1,0-0.1c0,0,0-0.1,0.1-0.1l0,0l3.3-3.2
			C-93.1-53.9-93.1-54.5-93.4-54.9z"/>
		<path id="Path_7-3" class="st1" d="M-98.3-48.7c0-0.1,0-0.2,0-0.2l-0.5-1.4c0-0.1-0.2-0.2-0.3-0.2c0,0-0.1,0-0.1,0l-5.6,2
			l-0.3,0.1l0.7,2l5.9-2.1C-98.4-48.6-98.4-48.6-98.3-48.7z M-99.1-48.6L-99.1-48.6c-0.2,0.1-0.3,0-0.4-0.2l-0.1-0.3l-4.2,1.5
			c-0.2,0.1-0.3,0-0.4-0.2c-0.1-0.2,0-0.3,0.2-0.4c0,0,0,0,0,0l4.2-1.5c0.3-0.1,0.7,0,0.8,0.4L-99-49C-98.9-48.9-99-48.7-99.1-48.6
			C-99.1-48.6-99.1-48.6-99.1-48.6L-99.1-48.6z"/>
	</g>
</g>
<path id="Path_19" class="st1" d="M126,73.1v-1.4h-0.1v-1.4h-0.1v-0.5h-0.6v0.5c0,0-13.4,0.1-15.7,0c-0.4,0-2.4,0.2-0.4,3.4
	c0.5,1,0.4,2.2-0.3,3c-1.3,1.6-1.8,4.7-2,5.6h0v0.6h5.8v-1.1c-2.5,0.5,1.7-5.4,1.5-4.4c0.1,0,0.3,0.1,0.4,0.1h1.5
	c0.9,0,2.2-1,2.2-1.9c0-0.4-0.1-0.8-0.4-1.1h7.5l0.2-0.9h0.3L126,73.1L126,73.1L126,73.1L126,73.1z M116.1,76.6h-1.5
	c-0.1,0-0.2,0-0.3,0c0.1-0.5,0.2-1,0.2-1.3c0.1,0.5,0.4,0.9,0.9,1c0,0,0.1,0,0.1,0c0.2,0,0.3-0.1,0.3-0.3c0-0.1-0.1-0.2-0.2-0.3
	c-0.5-0.2-0.6-1-0.6-1.3h1.5c0.6,0.1,1,0.7,0.8,1.3C117.1,76.3,116.6,76.6,116.1,76.6L116.1,76.6z M123.9,73.6h-7.5l1.3-0.4h6.2
	V73.6z"/>
<line id="Line_8" class="st3" x1="114.3" y1="54.2" x2="95.1" y2="65.1"/>
<line id="Line_9" class="st3" x1="114.3" y1="65.1" x2="114.3" y2="54.2"/>
<line id="Line_10" class="st3" x1="114.1" y1="54.2" x2="134.8" y2="65.1"/>
<line id="Line_11" class="st3" x1="114.3" y1="54.2" x2="94.5" y2="44.7"/>
<line id="Line_12" class="st3" x1="114.3" y1="54.2" x2="114.3" y2="44.7"/>
<line id="Line_13" class="st3" x1="114.3" y1="54.2" x2="132.2" y2="43.8"/>
</svg>
