<?xml version="1.0" encoding="utf-8"?>
<!-- Generator: Adobe Illustrator 23.0.1, SVG Export Plug-In . SVG Version: 6.00 Build 0)  -->
<svg version="1.1" id="Layer_1" xmlns="http://www.w3.org/2000/svg" xmlns:xlink="http://www.w3.org/1999/xlink" x="0px" y="0px"
	 viewBox="0 0 150 70" style="enable-background:new 0 0 150 70;" xml:space="preserve">
<style type="text/css">
	.st0{fill:#5C5C5C;}
	.st1{fill:none;}
	.st2{fill:#7EEF8C;}
	.st3{fill:#E96161;}
	.st4{fill:none;stroke:#707070;stroke-width:2;}
</style>
<path id="Icon_awesome-hand-peace" class="st0" d="M15.1,39.3c-0.8,0-1.4,0.6-1.4,1.4l0,0h-0.3v-1.1c0-0.8-0.6-1.4-1.4-1.4
	s-1.4,0.6-1.4,1.4v1.1h-0.3v-7.7c0-1-0.8-1.7-1.7-1.7c-1,0-1.7,0.8-1.7,1.7l0,0v7.7H6.2l-2.6-6.6c-0.3-0.9-1.3-1.3-2.3-1
	s-1.3,1.3-1,2.3l2.8,7l-1.1,0.9c-0.6,0.4-0.7,1.2-0.4,1.8l2.4,4.1C4.2,49.7,4.6,50,5.1,50H14c0.7,0,1.2-0.5,1.4-1.1l1.2-5
	c0-0.1,0-0.2,0-0.3v-3C16.5,40,15.9,39.3,15.1,39.3L15.1,39.3z"/>
<path id="Icon_awesome-hand-paper" class="st0" d="M37.4,37.9c-0.8,0-1.4,0.6-1.4,1.4l0,0v3.1h-0.3v-6.3c0-0.8-0.6-1.4-1.4-1.4l0,0
	c-0.8,0-1.4,0.6-1.4,1.4v6.3h-0.3v-7.6c0-0.8-0.6-1.4-1.4-1.4l0,0c-0.8,0-1.4,0.6-1.4,1.4v7.7h-0.3v-6.3c0-0.8-0.6-1.4-1.4-1.4l0,0
	c-0.8,0-1.4,0.6-1.4,1.4v8.3L25.3,43c-0.4-0.6-1.3-0.8-2-0.3c-0.6,0.4-0.8,1.3-0.3,2l0,0l4.4,6.2c0.3,0.4,0.8,0.7,1.3,0.7h7
	c0.8,0,1.4-0.5,1.6-1.3l0.9-4c0.1-0.5,0.2-1,0.2-1.5v-5.3C38.7,38.5,38.1,37.9,37.4,37.9z"/>
<path id="Icon_awesome-hand-rock" class="st0" d="M62.9,37.6c-0.9,0-1.7,0.7-1.7,1.6l0,0h-0.3v-1.1c0-0.9-0.7-1.7-1.6-1.7
	s-1.7,0.7-1.7,1.6l0,0v1.1h-0.3v-1.6c0-0.9-0.7-1.7-1.6-1.7c-0.9,0-1.7,0.7-1.7,1.6l0,0v1.7h-0.3V38c0-0.9-0.7-1.7-1.6-1.7
	c-0.9,0-1.7,0.7-1.7,1.6l0,0v4.8l-0.3-0.2v-1.7c0-0.9-0.7-1.7-1.6-1.7s-1.7,0.7-1.7,1.6l0,0V43c0,0.9,0.4,1.8,1.1,2.6l3.9,3.5
	c0.4,0.3,0.6,0.8,0.6,1.2v0.2c0,0.5,0.4,0.8,0.8,0.8l0,0h8.5c0.5,0,0.8-0.4,0.8-0.8l0,0v-0.1c0-0.4,0.1-0.9,0.3-1.3l1.7-4.1
	c0.2-0.4,0.3-0.8,0.3-1.3v-4.7C64.6,38.4,63.9,37.6,62.9,37.6L62.9,37.6z"/>
<g id="Path_41" transform="translate(46.202)">
	<path class="st1" d="M-15.6,10.8c4.4,0,8,3.6,8,8s-3.6,8-8,8s-8-3.6-8-8l0,0C-23.6,14.4-20,10.8-15.6,10.8z"/>
	<path class="st2" d="M-15.6,13.8c-2.8,0-5.1,2.3-5.1,5.1s2.3,5.1,5.1,5.1s5.1-2.3,5.1-5.1S-12.7,13.8-15.6,13.8 M-15.6,10.8
		c4.4,0,8,3.6,8,8s-3.6,8-8,8s-8-3.6-8-8S-20,10.8-15.6,10.8z"/>
</g>
<path id="Icon_awesome-hand-rock-2" class="st0" d="M100.4,36.8c-0.9,0-1.7,0.7-1.7,1.6l0,0h-0.3v-1.1c0-0.9-0.7-1.7-1.6-1.7
	c-0.9,0-1.7,0.7-1.7,1.6l0,0v1.1h-0.3v-1.6c0-0.9-0.7-1.7-1.6-1.7c-0.9,0-1.7,0.7-1.7,1.6l0,0v1.7H91v-1.1c0-0.9-0.7-1.7-1.6-1.7
	s-1.7,0.7-1.7,1.6l0,0v4.8l-0.3,0v-1.7c0-0.9-0.7-1.7-1.6-1.7s-1.7,0.7-1.7,1.6l0,0v2.4c0,1,0.4,2,1.1,2.6l4,3.6
	c0.4,0.3,0.6,0.8,0.6,1.2V50c0,0.5,0.4,0.8,0.8,0.8l0,0H99c0.5,0,0.8-0.4,0.8-0.8l0,0v-0.1c0-0.4,0.1-0.9,0.3-1.3l1.7-4.1
	c0.2-0.4,0.3-0.8,0.3-1.3v-4.7C102.1,37.6,101.3,36.8,100.4,36.8z"/>
<path id="Icon_awesome-hand-paper-2" class="st0" d="M148.6,38.3c-0.8,0-1.4,0.6-1.4,1.4l0,0v3.1h-0.3v-6.3c0-0.8-0.6-1.4-1.4-1.4
	l0,0c-0.8,0-1.4,0.6-1.4,1.4v6.4h-0.3v-7.7c0-0.8-0.6-1.4-1.4-1.4l0,0c-0.8,0-1.4,0.6-1.4,1.4v7.7h-0.3v-6.3c0-0.8-0.6-1.4-1.4-1.4
	l0,0c-0.8,0-1.4,0.6-1.4,1.4v8.4l-1.1-1.5c-0.4-0.6-1.3-0.8-2-0.3c-0.6,0.4-0.8,1.3-0.3,2l0,0l4.5,6.2c0.3,0.4,0.8,0.7,1.4,0.7h7.1
	c0.8,0,1.5-0.5,1.6-1.3l0.9-4c0.1-0.5,0.2-1,0.2-1.5v-5.3C149.9,38.9,149.3,38.3,148.6,38.3z"/>
<path id="Icon_awesome-hand-peace-2" class="st0" d="M126.2,41.2c-0.8,0-1.5,0.6-1.5,1.4h-0.3v-1.2c0-0.8-0.6-1.5-1.4-1.5
	s-1.5,0.6-1.5,1.4c0,0,0,0,0,0.1v1.2H121v-7.7c0-1-0.7-1.8-1.7-1.8c-1,0-1.8,0.7-1.8,1.7c0,0,0,0,0,0.1v7.7h-0.5l-2.6-6.6
	c-0.3-0.9-1.3-1.4-2.3-1c-0.9,0.3-1.4,1.3-1,2.3c0,0,0,0,0,0.1l2.8,7.1l-1.1,0.9c-0.6,0.4-0.7,1.2-0.4,2l2.4,4.2
	c0.3,0.5,0.7,0.7,1.3,0.7h8.9c0.7,0,1.3-0.5,1.4-1.1l1.2-5c0-0.1,0-0.2,0-0.3v-3C127.6,41.9,127,41.2,126.2,41.2z"/>
<path id="Icon_metro-cross" class="st3" d="M100,23.3L100,23.3l-4.2-4.2l4.2-4.2l0,0c0.2-0.2,0.2-0.4,0-0.6l-2-2
	c-0.2-0.2-0.4-0.2-0.6,0l0,0l-4.2,4.2L89,12.3l0,0c-0.2-0.2-0.4-0.2-0.6,0l-2,2c-0.2,0.2-0.2,0.4,0,0.6l0,0l4.2,4.2l-4.2,4.2l0,0
	c-0.2,0.2-0.2,0.4,0,0.6l2,2c0.2,0.2,0.4,0.2,0.6,0l0,0l4.2-4.2l4.2,4.2l0,0c0.2,0.2,0.4,0.2,0.6,0l2-2
	C100.1,23.7,100.1,23.5,100,23.3z"/>
<line id="Line_22" class="st4" x1="74.5" y1="12.6" x2="74.4" y2="60.9"/>
<g>
</g>
<g>
</g>
<g>
</g>
<g>
</g>
<g>
</g>
<g>
</g>
<g>
</g>
<g>
</g>
<g>
</g>
<g>
</g>
<g>
</g>
</svg>
